<svg xmlns="http://www.w3.org/2000/svg" viewBox="0 0 406.48779 189.51367"><defs><style>.cls-1{fill:#0e2a3e;}</style></defs><g id="レイヤー_2" data-name="レイヤー 2"><g id="レイヤー_1-2" data-name="レイヤー 1"><path class="cls-1" d="M130.08118,3.66553c-.032,1.29638-.67224,2.09668-1.29651,2.09668a.62241.62241,0,0,1-.64026-.64014.68566.68566,0,0,1,.44824-.65625A2.05826,2.05826,0,0,0,129.79309,2.625c0-.064.16-.064.176,0a4.76256,4.76256,0,0,1,.09607.64014h4.59387V1.55273a10.25931,10.25931,0,0,0-.064-1.39257c1.5846.17578,1.77661.28808,1.77661.46386,0,.12793-.11193.24024-.54419.416v2.2251h1.44068a12.20361,12.20361,0,0,0,.94433-1.55274,6.09275,6.09275,0,0,0,.44812-1.18408c1.20057.44775,1.55262.64014,1.55262.84814,0,.1919-.192.272-.67224.272a10.26225,10.26225,0,0,1-1.76062,1.6167h2.75305c.59228-.624.67224-.688.7843-.688s.19214.064.91235.65625c.3042.30371.36817.38379.36817.49609,0,.22412-.16.28809-.57618.28809-.22412,0-.27221.064-.46423.24023a8.73884,8.73884,0,0,1-1.21643.96c-.06409.04834-.19214-.03173-.16016-.11181a6.83477,6.83477,0,0,0,.51221-1.44043Zm5.65039,6.0664h3.6654c.51221-.56054.59229-.62451.68836-.62451.11194,0,.208.064.7362.4961.24012.22412.3042.32031.3042.43261,0,.11182-.08008.22364-.44824.44776v.54443c0,.78418.016,1.28027.016,1.69678a1.134,1.134,0,0,1-.49621,1.05615,1.65024,1.65024,0,0,1-.89637.22412c-.176,0-.24-.064-.28808-.28808-.064-.39991-.25611-.624-1.40857-.81641-.09607-.01563-.09607-.22412,0-.22412.75232.03222,1.21655.06445,1.66467.06445.176,0,.24011-.06445.24011-.25635v-2.353h-3.77746v.78466c0,1.64844.048,3.13721.048,3.58545,0,.416-.2561.56006-.73633.56006-.38415,0-.5122-.144-.5122-.48047,0-.22412.048-1.08838.048-2.625V10.11572h-3.52136v1.2168c0,1.28027.016,1.77686.016,2.11279,0,.416-.208.57617-.70423.57617-.38415,0-.5122-.144-.5122-.43212,0-.272.048-.92823.048-2.19288,0-1.07226,0-1.68066-.064-2.38476a8.65282,8.65282,0,0,1,1.34448.7041H134.579V7.9873h-2.16077v.144c0,.35205-.22412.5122-.65637.5122-.35205,0-.46411-.144-.46411-.40039,0-.22412.032-.59228.032-2.145,0-.7041-.016-1.05615-.048-1.64843a13.3422,13.3422,0,0,1,1.26452.624h5.41016c.44812-.51221.5282-.56006.62427-.56006.12805,0,.22412.04785.70422.44824.24011.208.3042.3042.3042.39991,0,.1123-.08008.20849-.41626.4165v.51221c0,1.18457.03211,1.68066.03211,1.8247,0,.35206-.22413.4961-.65625.4961-.38428,0-.48023-.12793-.48023-.44824V7.9873h-2.33691Zm-3.87366-7.395a3.80318,3.80318,0,0,0-.84827-1.60058c-.04809-.04834.032-.12842.096-.11231,1.32861.40039,1.96887,1.02442,1.96887,1.68067a.69.69,0,0,1-.65625.73633C132.082,3.041,131.97,2.86523,131.85791,2.33691Zm6.21057,3.13721h-5.65027V7.58691h5.65027Z"/><path class="cls-1" d="M148.83911,13.8457c0,.38379-.24011.54395-.73633.54395-.40014,0-.54419-.12793-.54419-.46436,0-.33593.048-1.0083.048-3.23291,0-1.08886,0-1.84082-.016-2.49707a11.73452,11.73452,0,0,1-3.4574,2.80078c-.09607.04834-.22412-.144-.144-.208a15.541,15.541,0,0,0,5.13806-8.62745h-3.16931a10.3127,10.3127,0,0,0-1.37647.0962l-.16016-.6084a11.01349,11.01349,0,0,0,1.53663.1123H156.058C156.87439.832,156.98633.752,157.0824.752c.11206,0,.22412.08008,1.05639.72071.40015.31982.46424.44775.46424.54394s-.048.144-.20813.144h-7.85913a15.623,15.623,0,0,1-1.93677,4.69,3.1158,3.1158,0,0,1,.35217.22412h6.27454c.54419-.6084.62427-.67237.72021-.67237.11206,0,.20813.064.7843.54444.25611.23974.3202.33593.3202.43213,0,.144-.08008.22412-.46424.46435v1.5044c0,2.67285.0481,4.00146.0481,4.40185,0,.416-.20813.57617-.75232.57617-.40015,0-.5282-.12793-.5282-.46435v-.78418h-6.51465Zm6.51465-6.3706h-6.51465v5.20166h6.51465Z"/><path class="cls-1" d="M163.69983,6.77051a14.51721,14.51721,0,0,1-2.30493,1.90478.5385.5385,0,0,1-.30408.11231.1983.1983,0,0,1-.20813-.22412c0-.11231.144-.27246.36816-.48047a20.34171,20.34171,0,0,0,2.30494-2.5127A18.99462,18.99462,0,0,0,164.99634,3.457a2.5493,2.5493,0,0,0,.36816-.92822c0-.17578-.16-.38428-.57617-.624-.11206-.064-.20813-.0962-.20813-.17627s.28809-.1919.57617-.1919a2.96272,2.96272,0,0,1,1.21655.56006c.38416.25635.54419.44824.54419.68848a.55261.55261,0,0,1-.32006.46386c-.16016.09619-.24012.208-.68836.81641a.90736.90736,0,0,0,.20813.01611,6.0837,6.0837,0,0,0,.91235-.09619c.72034-.11181,1.21656-.19189,1.76075-.28808a.69584.69584,0,0,0,.36816-.208.52243.52243,0,0,1,.36817-.1919,1.67919,1.67919,0,0,1,.81628.43213c.36816.28809.60828.51221.60828.76807,0,.208-.16016.32031-.36817.4165a.89452.89452,0,0,0-.51221.46387,24.62317,24.62317,0,0,1-3.23327,4.52978,16.69214,16.69214,0,0,1-5.41028,4.01758.777.777,0,0,1-.30408.08008.22209.22209,0,0,1-.192-.208c0-.09619.064-.16015.208-.25586a20.76875,20.76875,0,0,0,4.962-4.29,22.23981,22.23981,0,0,0,3.02527-4.68994.49083.49083,0,0,0,.032-.12793.07338.07338,0,0,0-.08008-.064c-.24011.01611-1.12048.17627-1.74463.3042a5.73525,5.73525,0,0,1-.94445.12793,2.34135,2.34135,0,0,1-.83228-.208A20.05826,20.05826,0,0,1,163.69983,6.77051Zm6.93079-5.12207a3.60176,3.60176,0,0,1,1.39257.80029c.38416.33643.60828.62451.60828.96045a.44551.44551,0,0,1-.44824.48047q-.312,0-.5282-.43262a5.54884,5.54884,0,0,0-1.34448-1.53662.24716.24716,0,0,1-.11206-.15967.16463.16463,0,0,1,.176-.16015A.90677.90677,0,0,1,170.63062,1.64844ZM172.02319.57617a3.77932,3.77932,0,0,1,1.28052.624c.38416.27246.73633.64062.73633,1.00878a.45462.45462,0,0,1-.43225.51221c-.208,0-.33606-.08008-.51221-.38428A4.88478,4.88478,0,0,0,171.62305.832.19177.19177,0,0,1,171.511.67236a.16047.16047,0,0,1,.16-.16015A2.0669,2.0669,0,0,1,172.02319.57617Z"/><path class="cls-1" d="M177.38928,5.28223a2.2077,2.2077,0,0,0-.60827-.33643c-.08-.03174-.12806-.08008-.12806-.144,0-.12793.28821-.22412.52832-.22412a2.5172,2.5172,0,0,1,1.29651.54443c.33606.22412.57618.48.57618.72022a.52261.52261,0,0,1-.20813.3999,1.16084,1.16084,0,0,0-.2721.54443,11.18541,11.18541,0,0,1-1.48852,3.10547,9.86531,9.86531,0,0,1-2.78516,2.67285.72076.72076,0,0,1-.28809.11182.23834.23834,0,0,1-.19214-.208c0-.08008.03211-.12793.16-.23975a11.66549,11.66549,0,0,0,3.4414-5.49023,4.08157,4.08157,0,0,0,.17615-.97656A.58672.58672,0,0,0,177.38928,5.28223Zm3.74549-1.80909c.40026.24024.62426.43213.62426.72022a.574.574,0,0,1-.176.40039.82638.82638,0,0,0-.144.49609c-.04809,1.66455-.06408,3.10547-.08007,4.91407,0,.12793.048.19189.08007.19189a.71439.71439,0,0,0,.2721-.08008,24.39768,24.39768,0,0,0,5.60229-3.47314c.11207-.09619.176-.16016.2721-.16016a.27418.27418,0,0,1,.208.22412.382.382,0,0,1-.11194.208,20.17513,20.17513,0,0,1-5.66638,4.36963.91218.91218,0,0,0-.32007.33643c-.09607.17627-.17615.24023-.33618.24023-.22412,0-.43213-.144-.72034-.49658a1.42484,1.42484,0,0,1-.384-.78418.88837.88837,0,0,1,.048-.272,2.21015,2.21015,0,0,0,.08-.6084c.01611-1.45655.01611-3.05713,0-4.67383a2.33845,2.33845,0,0,0-.11194-1.04053,1.25313,1.25313,0,0,0-.76831-.54394c-.09607-.03223-.16016-.064-.16016-.144,0-.16015.40027-.3042.67236-.3042A3.20047,3.20047,0,0,1,181.13477,3.47314Z"/><path class="cls-1" d="M192.17908,8.72363c-.32019,0-.70435-.35254-1.12049-.92871a1.63044,1.63044,0,0,1-.36816-.832c0-.2085.032-.40039.144-.40039.08008,0,.144.08008.25611.19189.56018.54444.7843.65625,1.15246.65625.33618,0,.94434-.03173,2.03284-.0957,2.17688-.12842,4.33777-.208,5.69836-.25635a2.0884,2.0884,0,0,0,.97632-.19189,1.19323,1.19323,0,0,1,.49622-.11231,2.13438,2.13438,0,0,1,.65625.14405c.75232.28808.84839.46435.84839.75244,0,.32031-.20813.48047-.56031.48047-.60815,0-1.47253-.06446-2.25683-.06446-1.42456,0-4.25769.0962-6.35462.27247a3.35929,3.35929,0,0,0-1.10449.23974A.83066.83066,0,0,1,192.17908,8.72363Z"/><path class="cls-1" d="M206.15344,13.189c0-.11181.09607-.19189.2721-.28808a16.80046,16.80046,0,0,0,4.7539-4.09766A19.9926,19.9926,0,0,0,213.67651,4.626a.91651.91651,0,0,0,.12806-.36817c0-.06445-.06409-.08008-.16-.08008-.08008,0-.27209.01563-.64026.04786-1.58471.16015-3.72949.416-4.978.60839a1.57045,1.57045,0,0,0-.75232.22413.64525.64525,0,0,1-.41614.12793c-.25611,0-.65625-.272-1.04053-.8003a1.64172,1.64172,0,0,1-.43213-.9126c0-.272.11206-.352.176-.352.08008,0,.19214.12793.32019.25635a1.459,1.459,0,0,0,1.15246.56006c.38416,0,.78431-.01611,1.39258-.064,1.6167-.144,3.24927-.28809,4.81787-.44825a.95031.95031,0,0,0,.5763-.19189.692.692,0,0,1,.38415-.22412,1.45079,1.45079,0,0,1,.88037.48c.38416.33594.60828.59228.60828.86426,0,.19238-.17615.28808-.36816.36816a1.06171,1.06171,0,0,0-.5282.52832,20.73357,20.73357,0,0,1-2.75318,4.17773,14.29829,14.29829,0,0,1-5.31408,3.88965,1.05825,1.05825,0,0,1-.35218.09571A.24082.24082,0,0,1,206.15344,13.189Zm12.101-11.2041A1.4566,1.4566,0,1,1,216.79773.52832,1.462,1.462,0,0,1,218.25439,1.98486Zm-2.401,0a.9444.9444,0,1,0,.94434-.94482A.93617.93617,0,0,0,215.85339,1.98486Z"/><path class="cls-1" d="M229.23364,4.60986a10.94151,10.94151,0,0,0,4.06568,1.72852c.07995.01611.048.17627-.03211.19189-.46411.11231-.68823.38428-.86426.92871-.06408.17579-.144.24024-.2561.24024a2.39051,2.39051,0,0,1-.65625-.24024,14.93182,14.93182,0,0,1-2.68921-1.88867,14.14044,14.14044,0,0,1-3.13721-4.09765,14.458,14.458,0,0,1-7.427,6.40234c-.11206.04785-.19214-.208-.09607-.25586a16.99225,16.99225,0,0,0,5.52222-5.29834A7.8964,7.8964,0,0,0,224.67175.16016c1.64868.46386,1.87281.56005,1.87281.73584,0,.12841-.12806.19238-.60828.32031A11.34487,11.34487,0,0,0,229.23364,4.60986Zm1.28052,9.20362c.73633-.86426.84827-.92823.94434-.92823.11206,0,.20813.064.96045.688.32006.28809.40014.40039.40014.4961,0,.09619-.06409.144-.20813.144h-12.9812a6.62735,6.62735,0,0,0-1.12048.09619l-.16-.6084a5.965,5.965,0,0,0,1.26453.11231h1.85669V9.2998a14.2735,14.2735,0,0,0-.09607-1.98486c1.58472.16016,1.76074.3042,1.76074.48,0,.12793-.11206.25635-.5282.43213v5.58643h2.561V7.09082a17.378,17.378,0,0,0-.09607-2.40088c1.64868.17578,1.84082.30371,1.84082.4961,0,.144-.12805.25585-.5603.44824v3.313h2.369c.64025-.832.75231-.91211.84826-.91211.11206,0,.20813.08007.89649.67236.30407.272.384.38379.384.48,0,.1123-.048.16016-.208.16016h-4.28979v4.46582Z"/><path class="cls-1" d="M242.93958,10.18018a9.83528,9.83528,0,0,0,2.68908,1.85644,12.83335,12.83335,0,0,0,4.11365,1.04053c.08008,0,.06409.144-.016.17627-.44812.144-.5763.25586-.88037.896-.064.12842-.144.208-.25611.208a3.01559,3.01559,0,0,1-.67224-.19189,11.16421,11.16421,0,0,1-2.94519-1.52051,10.70162,10.70162,0,0,1-2.273-2.24072c.032.896.06409,1.61621.08008,2.3208.016.91211.032,1.56836.032,1.79248,0,.38428-.20813.52832-.75232.52832-.35217,0-.49621-.144-.49621-.44824,0-.24024.0321-.76807.06409-1.64844.032-.67236.048-1.39258.07995-2.11279a12.00551,12.00551,0,0,1-6.46655,3.60107c-.11206.03223-.19214-.17578-.09607-.22412a13.50329,13.50329,0,0,0,5.63428-4.0332H236.665a5.41,5.41,0,0,0-1.07239.0957L235.4165,9.668a6.73525,6.73525,0,0,0,1.21656.11182h4.994V8.291h-3.29737a7.64934,7.64934,0,0,0-1.07239.1123l-.16015-.62451a6.86784,6.86784,0,0,0,1.21655.1123h3.31336V6.45068h-4.16175a5.61486,5.61486,0,0,0-1.10437.09571l-.16015-.60791a7.08189,7.08189,0,0,0,1.23254.11181h5.76233A8.67413,8.67413,0,0,0,243.9,4.67383a4.28827,4.28827,0,0,0,.30408-.94434c1.07239.3999,1.52063.624,1.52063.8003,0,.16015-.11206.22412-.67236.25585a12.31869,12.31869,0,0,1-1.37647,1.26465h2.97718c.67224-.73633.80029-.80029.89636-.80029s.22412.064.88037.59229c.30408.25585.36816.35205.36816.44824,0,.11181-.04809.16015-.20813.16015h-5.82629V7.89111h2.96118c.60816-.68847.72022-.75244.81629-.75244.11206,0,.22412.064.84838.56055.2721.208.33606.33594.33606.43213,0,.11181-.048.15967-.208.15967h-4.75391V9.77979h4.46582c.68823-.76807.81628-.84815.91235-.84815.096,0,.208.08008.91236.624.30407.24024.38415.35205.38415.46436,0,.11182-.06408.16016-.20813.16016Zm2.08081-6.89893a11.24952,11.24952,0,0,0,.91235-1.72852A7.66386,7.66386,0,0,0,246.3009.51221c1.21656.52783,1.55262.688,1.55262.86425,0,.208-.144.272-.68824.272a10.59521,10.59521,0,0,1-1.68066,1.63281h2.08081c.64026-.73633.75232-.80029.84839-.80029.11206,0,.224.064.89636.57617.30408.25586.38416.35205.38416.46435,0,.09571-.06409.15967-.20813.15967H236.537a6.09058,6.09058,0,0,0-1.15247.09619l-.16-.60839a7.56211,7.56211,0,0,0,1.28051.1123h3.74549V1.42432A7.35543,7.35543,0,0,0,240.1864.16016c1.50464.15966,1.68079.272,1.68079.44775,0,.1123-.09607.2085-.51221.38428V3.28125h1.60059V1.42432a7.36906,7.36906,0,0,0-.064-1.26416c1.50452.17578,1.68067.272,1.68067.44775,0,.1123-.08008.2085-.51221.38428V3.28125Zm-7.10682-.78418a3.449,3.449,0,0,0-.96045-1.68066c-.048-.04834.016-.144.08008-.12842,1.23255.28808,2.01685.96045,2.01685,1.63281a.66842.66842,0,0,1-.62427.67236C238.15369,2.99316,238.02563,2.86523,237.91357,2.49707Zm1.87268,2.9292a2.95185,2.95185,0,0,0-.7843-1.457c-.048-.04785.03211-.12793.09607-.11182,1.12049.25586,1.82471.83252,1.82471,1.47266a.64006.64006,0,0,1-.64026.67236C240.01038,6.00244,239.89832,5.874,239.78625,5.42627Z"/><path class="cls-1" d="M254.79358,10.1001c.81641-.32031,1.6167-.65625,2.321-.99268.08-.04785.208.11231.12806.17627a20.48871,20.48871,0,0,1-4.52991,2.72119c-.048.52783-.11206.67188-.30408.67188-.19214,0-.35217-.23975-.88037-1.64844a10.92656,10.92656,0,0,0,1.0885-.22412c.35205-.09619.70422-.208,1.07239-.32031V6.24219h-.70435a7.77512,7.77512,0,0,0-.94433.08008l-.16-.59229a5.46033,5.46033,0,0,0,1.08838.11231h.72034V2.08057h-.88037a5.35047,5.35047,0,0,0-.97644.08007l-.16-.59228a5.49843,5.49843,0,0,0,1.1045.1123h2.27282c.56031-.68847.67237-.75244.76831-.75244.11206,0,.22412.064.84839.56006.25611.2085.33618.32031.33618.43213,0,.09619-.04809.16016-.20813.16016h-2.00085V5.84229h.40027c.46411-.6084.59216-.68848.68823-.68848s.20813.08008.75232.52832c.208.17627.28809.28808.28809.38428,0,.12793-.048.17578-.208.17578h-1.9209ZM258.52319,8.083c0,.36816-.22412.5122-.70434.5122-.35218,0-.48023-.12792-.48023-.46386,0-.38428.08008-1.521.08008-4.33789,0-1.53662-.016-2.08106-.09607-3.18555a12.64969,12.64969,0,0,1,1.3125.65625h5.50635c.44812-.49609.5282-.56006.62414-.56006.11207,0,.20813.064.75232.48047.25611.22363.32019.30371.32019.3999,0,.14405-.09606.24024-.49621.4961V3.58545c0,2.60889.064,3.95361.064,4.35351,0,.35206-.224.52833-.70422.52833-.33618,0-.46423-.12793-.46423-.44825v-.3999h-2.3689V10.228h1.69666c.72033-.81641.83239-.88037.92834-.88037.11206,0,.22412.064.94446.65625.32007.25586.38415.36816.38415.46435,0,.11182-.04809.15967-.20813.15967h-3.74548v2.9292h2.33691c.76831-.86426.88038-.94434.99244-.94434s.22412.08008.97631.68848c.33619.272.40015.38428.40015.48,0,.1123-.048.17627-.208.17627h-9.45984a6.47017,6.47017,0,0,0-1.0885.08008l-.16-.59229a6.60884,6.60884,0,0,0,1.21655.11182h3.87354v-2.9292h-2.35291a8.48687,8.48687,0,0,0-1.05652.08008l-.176-.59229a5.48676,5.48676,0,0,0,1.20044.11231h2.385V7.61914h-2.22486Zm0-6.41846V4.20947h2.22486V1.66455Zm2.22486,5.5542V4.60986h-2.22486V7.21875Zm3.48938-5.5542h-2.3689V4.20947h2.3689Zm0,2.94531h-2.3689V7.21875h2.3689Z"/><path class="cls-1" d="M279.67847,3.96924A12.06049,12.06049,0,0,0,283.488,5.34619c.07995.01563.064.15967-.016.17578-.41626.064-.59229.22412-.8003.83252-.06408.1919-.14416.272-.2561.272a2.83525,2.83525,0,0,1-.84839-.30419,15.821,15.821,0,0,1-2.78516-1.79248A13.41987,13.41987,0,0,1,275.965,1.2002a15.1341,15.1341,0,0,1-7.427,5.6665c-.11206.03174-.192-.22412-.09607-.272a16.15406,16.15406,0,0,0,5.55433-4.80225A7.1277,7.1277,0,0,0,275.00464,0c1.47253.544,1.76062.67236,1.76062.84814,0,.11231-.144.1919-.4801.24024A12.0073,12.0073,0,0,0,279.67847,3.96924ZM268.84216,13.2373c0-.36816.16-.54443.67224-.80029a2.38132,2.38132,0,0,0,1.40857-2.16113c.016-.08008.192-.08008.208,0a5.584,5.584,0,0,1,.06409.84863c0,1.6167-.75232,2.769-1.66467,2.769A.64766.64766,0,0,1,268.84216,13.2373Zm9.58777-6.707c.46424-.49609.5763-.56006.67236-.56006.11194,0,.224.064.76832.52833.2561.22412.30407.32031.30407.416,0,.144-.12805.25635-.56018.38428a18.16229,18.16229,0,0,1-1.32861,2.2251.51649.51649,0,0,1-.44812.23974c-.36817,0-.86438-.208-.86438-.3999a.60111.60111,0,0,1,.144-.28809,11.42021,11.42021,0,0,0,1.3606-2.145H272.4436a7.58267,7.58267,0,0,0-1.29651.08008l-.16015-.6084a6.63285,6.63285,0,0,0,1.42456.12793ZM273.80408,12.853c0,.59228.24011.72021,1.93676.72021a5.804,5.804,0,0,0,2.337-.208c.43213-.208.57617-.59228.94434-1.87255.016-.064.16-.01612.16.04785-.016.416-.032.96045-.032,1.24853,0,.3042.016.35205.33618.48a.42623.42623,0,0,1,.24.41651c0,.3042-.28809.56006-.80029.688a14.0603,14.0603,0,0,1-3.28125.22412c-2.433,0-2.9773-.3042-2.9773-1.71241,0-.22412.03211-.48046.03211-1.44091a14.33273,14.33273,0,0,0-.06409-1.72852c1.55261.19189,1.69666.25586,1.69666.44824,0,.12793-.08.22412-.5282.416Zm-.75232-8.24317a4.86282,4.86282,0,0,0,1.15246.11182h2.337c.5282-.65625.64026-.72022.75232-.72022.11194,0,.24.064.84827.54444.2561.208.33618.30371.33618.416,0,.0962-.0481.16016-.20813.16016h-4.04956a5.92985,5.92985,0,0,0-1.00843.0957Zm3.05725,6.61035a4.11173,4.11173,0,0,0-1.34448-1.72851c-.0481-.03223.032-.144.09594-.12793,1.71277.43213,2.48108,1.10449,2.48108,1.84082,0,.46387-.24011.76807-.62426.76807C276.41321,11.97266,276.28516,11.84473,276.109,11.22021Zm5.154,1.7129a4.977,4.977,0,0,0-1.3125-2.57715c-.048-.064.06409-.16016.12805-.12793,1.56873.76806,2.51306,1.84082,2.51306,2.75293,0,.5122-.20813.88037-.68823.88037C281.55127,13.86133,281.39124,13.63721,281.26306,12.93311Z"/><path class="cls-1" d="M213.61938,60.86475H197.61292v-.64014h16.00646Z"/><path class="cls-1" d="M69.51013,119.66943a24.60334,24.60334,0,0,1-4.86365,2.688c-.16.064-.416-.28808-.288-.38428a28.38511,28.38511,0,0,0,9.40723-11.55078H67.55823a8.26189,8.26189,0,0,0-2.01587.25586l-.35193-1.27978a11.52342,11.52342,0,0,0,2.3678.25586h1.88794v-3.90381a18.48364,18.48364,0,0,0-.192-2.78369c3.71167.38379,4.12769.73584,4.12769,1.08789,0,.28808-.35193.57617-1.02393.896v4.70362h1.37585c.96-1.05616,1.21595-1.24805,1.47193-1.24805.31994,0,.54394.19189,1.63183,1.312.48.51172.672.76807.672,1.02393,0,.31982-.224.51172-1.02392.7998a21.84808,21.84808,0,0,1-4.03174,5.63184c3.42383.86377,5.2157,2.17578,5.2157,3.87158a1.59844,1.59844,0,0,1-1.56788,1.6001c-.736,0-1.056-.32031-1.43994-1.34424a8.33834,8.33834,0,0,0-2.23986-3.48779v3.64795c0,4.92773.12805,8.63916.12805,9.63134,0,.896-.512,1.34375-2.01587,1.34375-.864,0-1.184-.352-1.184-1.21582,0-.5122.16-2.36767.16-7.03955ZM85.73291,129.877h3.23181c1.72778-2.208,2.11182-2.46386,2.33582-2.46386.288,0,.60791.25586,2.27185,1.6958.76794.67187,1.02392.96,1.02392,1.18408,0,.22363-.09607.31982-.416.31982H77.28552a21.55267,21.55267,0,0,0-2.65576.1919l-.35205-1.18408a16.36593,16.36593,0,0,0,2.8479.25634h5.43958V115.542H78.88538a14.2961,14.2961,0,0,0-2.1438.1919l-.35193-1.18409a11.52189,11.52189,0,0,0,2.3678.25586h3.80774v-6.97509a40.75991,40.75991,0,0,0-.192-4.54395c4.12768.38428,4.51172.7041,4.51172,1.08789q0,.48047-1.152.96v9.47119h2.84778c1.66394-1.95166,2.04785-2.20752,2.27185-2.20752.288,0,.608.25586,2.11182,1.53565.64.57617.896.86426.896,1.08789,0,.22412-.09607.32031-.416.32031H85.73291Z"/><path class="cls-1" d="M109.36243,129.30078a29.3508,29.3508,0,0,1-10.49524,2.81592c-.16.03174-.256-.31982-.09607-.38428a34.71687,34.71687,0,0,0,6.36755-3.19971,8.98129,8.98129,0,0,0,2.17591-2.01562c2.87976,1.376,3.74365,1.8877,3.74365,2.23975S110.7063,129.36475,109.36243,129.30078Zm-4.03174-3.42383c0,.896-.544,1.312-1.79187,1.312-.99194,0-1.40784-.31982-1.40784-1.05615,0-1.27978.15991-2.97558.15991-8.15918,0-2.01562-.032-4.35156-.15991-6.39941a27.21,27.21,0,0,1,3.51965,1.6958h14.431c1.11987-1.18408,1.37585-1.376,1.63183-1.376.32,0,.60791.1919,1.85584,1.08789.57605.44825.76794.67188.76794.92823,0,.31982-.22388.51172-.95984.9917V116.918c0,4.51123.12793,7.80713.12793,8.83105,0,.86377-.54394,1.27979-1.79187,1.27979-.99194,0-1.34387-.2876-1.34387-1.11963V125.813H105.33069Zm1.5039-15.32666c-.032.896-.60791,1.1836-1.7279,1.1836-.736,0-1.31189-.1919-1.31189-.89551,0-.64014.032-2.01611.032-3.936,0-1.40771,0-1.95166-.096-3.35986a34.8117,34.8117,0,0,1,3.45569,1.63232h11.51917c1.152-1.248,1.408-1.43994,1.66394-1.43994.32,0,.57593.1919,1.79187,1.15186.54394.44775.736.67187.736.92773,0,.28809-.16.416-.928.86426v.60791c0,1.53565.09607,2.71973.09607,3.16748,0,.86426-.608,1.21582-1.792,1.21582-.95984,0-1.34387-.31982-1.34387-1.11963Zm13.535,3.45557H105.33069v3.13574h15.03894Zm-15.03894,7.03955h15.03894v-3.168H105.33069Zm0,4.03174h15.03894v-3.2959H105.33069Zm13.599-19.16651h-12.0951v3.90381h12.0951Zm4.83166,26.43018c-.63989,0-.96-.19238-1.75989-.99219a15.85777,15.85777,0,0,0-6.78344-3.96777c-.16-.064-.032-.35205.12793-.35205,7.10351.28808,9.91931,1.43994,9.91931,3.648A1.50876,1.50876,0,0,1,123.76135,132.34082Z"/><path class="cls-1" d="M143.75891,111.66992a13.04249,13.04249,0,0,1-.70386,3.39209,22.98168,22.98168,0,0,1-2.01587,4.60742,26.2953,26.2953,0,0,1-3.55175,5.34375,3.51442,3.51442,0,0,1-2.65576,1.312,3.24732,3.24732,0,0,1-2.43189-1.248c-1.15186-1.27979-1.75989-2.91162-1.75989-5.82373a9.98964,9.98964,0,0,1,1.37586-4.86328,12.37031,12.37031,0,0,1,4.3197-4.48,14.33846,14.33846,0,0,1,7.74353-2.07959,12.24714,12.24714,0,0,1,7.93542,2.4956,9.80931,9.80931,0,0,1,3.74366,8.12744,8.6931,8.6931,0,0,1-2.94373,6.59131,13.96335,13.96335,0,0,1-4.73572,2.84815,22.772,22.772,0,0,1-6.55944,1.21582c-.48,0-.704-.064-.704-.31983,0-.25635.192-.32031.60791-.416a15.87822,15.87822,0,0,0,8.22338-4.1919,9.51,9.51,0,0,0,2.87989-7.42334,6.99356,6.99356,0,0,0-2.8158-6.01562,10.09488,10.09488,0,0,0-5.11963-1.728,14.38778,14.38778,0,0,0-2.01587.03223A4.39465,4.39465,0,0,1,143.75891,111.66992Zm-7.77539.12793a9.74654,9.74654,0,0,0-2.71985,3.936,8.33011,8.33011,0,0,0-.54394,3.03955,6.36007,6.36007,0,0,0,.79992,3.45605,2.06409,2.06409,0,0,0,1.408,1.05567c.512,0,.992-.31983,2.20777-2.04786a38.84755,38.84755,0,0,0,4.28772-7.83935,7.42447,7.42447,0,0,0,.672-2.71973,1.60979,1.60979,0,0,0-.57592-1.43994A10.77713,10.77713,0,0,0,135.98352,111.79785Z"/><path class="cls-1" d="M176.55237,112.79h8.09546c1.53589-1.82373,1.91992-2.08008,2.1438-2.08008.28808,0,.672.25635,2.23986,1.47217.704.54394.96.7998.96,1.02392s-.09595.31983-.416.31983h-26.238a11.41781,11.41781,0,0,0-1.91992.19189l-.35193-1.18359a9.95392,9.95392,0,0,0,2.20789.25586h10.1112v-4.54346h-7.58349a10.7412,10.7412,0,0,0-1.85584.1919l-.35193-1.18409a9.95234,9.95234,0,0,0,2.20777.25586h7.58349v-1.82373a25.26755,25.26755,0,0,0-.15991-2.81591c4.0636.35205,4.44763.7041,4.44763,1.05615,0,.31982-.35193.60791-1.12.86377v2.71972h5.88769c1.47181-1.75976,1.85584-2.01562,2.07984-2.01562.288,0,.63989.25586,2.17578,1.40771.672.544.928.79981.928,1.02393s-.09607.32031-.416.32031H176.55237Zm-.032,11.83935H182.856c1.5039-1.82421,1.88781-2.08007,2.11181-2.08007.288,0,.672.25586,2.23987,1.43994.736.57568.99194.832.99194,1.05566,0,.22412-.09594.32031-.416.32031H176.52039c.06408,2.39991.16,4.86329.16,5.82325,0,.86425-.704,1.28027-2.01587,1.28027-.96,0-1.37585-.22412-1.37585-1.05615,0-.60791.09594-2.49561.12793-6.04737h-8.09534a11.41676,11.41676,0,0,0-1.91992.1919l-.35193-1.18408a9.95649,9.95649,0,0,0,2.20776.25634h8.15943v-4.67187h-9.59925a14.2976,14.2976,0,0,0-2.14392.19189l-.35193-1.18359a13.27772,13.27772,0,0,0,2.55982.25586h13.343a25.17465,25.17465,0,0,0,1.12-3.04,18.95254,18.95254,0,0,0,.57593-2.55957c2.94372.86377,3.96765,1.34375,3.96765,1.82373,0,.416-.256.54395-1.27991.60791a22.50806,22.50806,0,0,1-3.23169,3.168h5.56751c1.69592-1.98389,2.07995-2.23975,2.30383-2.23975.28809,0,.64.25586,2.23987,1.56787.704.57569.96.86377.96,1.0879,0,.22363-.09607.31982-.416.31982h-12.5111Zm-6.04749-5.63183c-.896,0-1.152-.352-1.47192-1.8877a9.12253,9.12253,0,0,0-1.37586-3.13574c-.09607-.12842.09595-.28808.256-.25635,3.13575.92823,4.25562,1.856,4.25562,3.4878A1.6665,1.6665,0,0,1,170.4729,118.99756Z"/><path class="cls-1" d="M216.17114,110.71a6.80461,6.80461,0,0,0,2.23987,1.15234c.86389.15967,1.82385.1919,2.62378.35157.76794.16015,1.50391.25634,1.50391,1.43994,0,.896-.83191,1.18408-1.50391,1.18408-.60791,0-1.21594-.09619-2.11182-.19189a9.72649,9.72649,0,0,0-1.66394-.03223c-1.05591.03223-2.04785.16016-3.10376.28809a53.98409,53.98409,0,0,1-.256,6.23974,4.27532,4.27532,0,0,1-1.5039,2.52783,2.91277,2.91277,0,0,1-1.50391.48,1.18436,1.18436,0,0,1-1.11987-.86425c-.256-.79981-.768-1.05567-2.27185-2.04786-.256-.15966-.4159-.25585-.4159-.44775,0-.16016.12793-.19189.288-.19189a4.35671,4.35671,0,0,1,.57592.0957,13.51945,13.51945,0,0,0,2.5918.35205c.79993,0,.83191-.16016.96-.64014a19.56544,19.56544,0,0,0,.35193-4.99121,57.42613,57.42613,0,0,0-7.26343,1.9834c-.032,1.95215-.09594,4.1919-.09594,5.21582,0,1.6001.064,2.81592.512,3.35986.54394.67188,1.37585,1.0879,3.77563,1.0879a21.04747,21.04747,0,0,0,4.73572-.48,5.323,5.323,0,0,1,1.6958-.38378,5.47048,5.47048,0,0,1,1.82385.25585c.64.22413,1.12.57569,1.12,1.27979,0,.96-.544,1.312-1.75989,1.53613a35.458,35.458,0,0,1-5.85559.31983,16.73766,16.73766,0,0,1-5.24756-.79981,4.57916,4.57916,0,0,1-2.27185-2.04785,8.87575,8.87575,0,0,1-.704-3.96777c-.032-1.6001,0-3.04-.032-4.51172-2.68787,1.11963-3.48779,1.5039-3.8717,1.91992a1.22631,1.22631,0,0,1-1.05591.54395,4.97616,4.97616,0,0,1-2.3999-1.18409,3.13492,3.13492,0,0,1-1.34388-2.04785c0-.51172.16-.76806.35193-.76806.16,0,.224.09619.54395.35205a6.05488,6.05488,0,0,0,.736.5122,2.011,2.011,0,0,0,.96.25586,4.698,4.698,0,0,0,1.05591-.16015c1.56787-.44776,3.39172-.92774,5.05566-1.43994,0-.92774-.032-1.8877-.064-2.7837a6.32645,6.32645,0,0,0-.256-2.17578c-.256-.60791-.704-.832-1.47193-.9917-.384-.06445-.448-.12841-.448-.25634a.50679.50679,0,0,1,.256-.416,3.46975,3.46975,0,0,1,1.6-.48,4.365,4.365,0,0,1,2.78369,1.376,1.8406,1.8406,0,0,1,.768,1.34423.996.996,0,0,1-.224.67188,1.02833,1.02833,0,0,0-.32.67187c-.032.38379-.064.9917-.12793,2.272,2.3678-.67237,4.79968-1.21631,7.1034-1.792v-2.43213c0-1.82373,0-2.75147-.064-3.74366a1.101,1.101,0,0,0-.736-1.08789,7.455,7.455,0,0,0-1.31189-.352c-.15991-.03174-.224-.22363-.224-.35156,0-.12842.224-.38428.57605-.6084a2.318,2.318,0,0,1,1.27991-.35156,5.22424,5.22424,0,0,1,3.16772,1.53564,1.25966,1.25966,0,0,1,.416.96,1.86023,1.86023,0,0,1-.35205.99219,4.4851,4.4851,0,0,0-.32,1.95166c-.032,1.08789-.064,2.01563-.09595,2.94385.992-.19189,2.01587-.38428,2.62378-.51221-.224-.31982-.864-1.15185-1.184-1.56787-.192-.25586-.256-.31982-.256-.416,0-.12793.064-.1919.16-.1919A1.527,1.527,0,0,1,216.17114,110.71Z"/><path class="cls-1" d="M240.60364,111.66992a13.04291,13.04291,0,0,1-.70386,3.39209,22.98225,22.98225,0,0,1-2.01587,4.60742,26.29492,26.29492,0,0,1-3.55176,5.34375,3.51442,3.51442,0,0,1-2.65576,1.312,3.2473,3.2473,0,0,1-2.43188-1.248c-1.15186-1.27979-1.75989-2.91162-1.75989-5.82373a9.98963,9.98963,0,0,1,1.37585-4.86328,12.37041,12.37041,0,0,1,4.31971-4.48,14.33846,14.33846,0,0,1,7.74353-2.07959,12.24714,12.24714,0,0,1,7.93542,2.4956,9.8093,9.8093,0,0,1,3.74365,8.12744,8.6931,8.6931,0,0,1-2.94372,6.59131,13.96335,13.96335,0,0,1-4.73572,2.84815,22.772,22.772,0,0,1-6.55945,1.21582c-.48,0-.704-.064-.704-.31983,0-.25635.192-.32031.60791-.416a15.87822,15.87822,0,0,0,8.22339-4.1919,9.51,9.51,0,0,0,2.87988-7.42334,6.99358,6.99358,0,0,0-2.81579-6.01562,10.09488,10.09488,0,0,0-5.11963-1.728,14.38778,14.38778,0,0,0-2.01587.03223A4.39465,4.39465,0,0,1,240.60364,111.66992Zm-7.77539.12793a9.74654,9.74654,0,0,0-2.71985,3.936,8.32989,8.32989,0,0,0-.54395,3.03955,6.36007,6.36007,0,0,0,.79993,3.45605,2.06407,2.06407,0,0,0,1.408,1.05567c.512,0,.99194-.31983,2.20776-2.04786a38.84705,38.84705,0,0,0,4.28772-7.83935,7.42431,7.42431,0,0,0,.672-2.71973,1.60976,1.60976,0,0,0-.57593-1.43994A10.77714,10.77714,0,0,0,232.82825,111.79785Z"/><path class="cls-1" d="M271.69812,109.20605a2.81782,2.81782,0,0,1,1.43994.28809,1.07408,1.07408,0,0,1,.70386.96c0,.48-.32.896-.99194,1.15186a55.31671,55.31671,0,0,1-5.31153,1.63183c-.512,1.34424-1.53589,4.22412-2.23987,6.14356-.76794,2.08008-1.88781,4.96-3.58374,9.27929-.48,1.21631-1.0559,1.63233-1.85583,1.63233a1.543,1.543,0,0,1-.928-.48,1.42357,1.42357,0,0,1-.35193-1.15235,5.57661,5.57661,0,0,1,.86389-2.23974,112.78531,112.78531,0,0,0,5.69556-12.76709,19.83989,19.83989,0,0,1-3.48767.44824,3.48913,3.48913,0,0,1-3.07178-1.24805,3.03738,3.03738,0,0,1-.864-1.66406c0-.19189.06408-.2876.16-.2876.192,0,.32.12793.54395.2876a3.90748,3.90748,0,0,0,2.62378.832,20.47739,20.47739,0,0,0,4.89563-.76806,21.24493,21.24493,0,0,0,.99194-4.19141,1.11083,1.11083,0,0,0-.67188-1.12012,7.39351,7.39351,0,0,0-1.184-.38379c-.224-.064-.35192-.12793-.35192-.25586,0-.19238.09594-.352.44787-.54394a3.23356,3.23356,0,0,1,1.50391-.38428,6.11786,6.11786,0,0,1,3.29577,1.27979,1.20706,1.20706,0,0,1,.48.896,1.57958,1.57958,0,0,1-.448.96c-.57593.57618-.79993,1.18409-1.53589,3.13575a7.41868,7.41868,0,0,0,1.9519-.92774A2.74624,2.74624,0,0,1,271.69812,109.20605Zm-.60791,13.34327a6.01849,6.01849,0,0,0-.28809,1.95166c0,1.728,1.50391,3.04,4.86365,3.04a12.91176,12.91176,0,0,0,3.23181-.25586,4.73718,4.73718,0,0,1,1.66382-.22412,3.95349,3.95349,0,0,1,1.6.416,1.50827,1.50827,0,0,1,.79992,1.34375c0,.832-.76794,1.21582-1.7279,1.376a24.97189,24.97189,0,0,1-3.51978.16015,16.1827,16.1827,0,0,1-4.25561-.54394c-2.49585-.7041-3.83972-2.4961-3.83972-4.544a5.84066,5.84066,0,0,1,.89587-3.10351c.16-.28809.416-.544.57605-.544.15991,0,.19189.09571.19189.25586A3.69683,3.69683,0,0,1,271.09021,122.54932Zm3.39172-6.7837a11.10762,11.10762,0,0,0-3.64782,1.24805.44674.44674,0,0,1-.288.09619.25467.25467,0,0,1-.288-.28808.76806.76806,0,0,1,.224-.416,10.96677,10.96677,0,0,1,2.94385-1.95166,11.19792,11.19792,0,0,1,4.06359-.76806,9.00521,9.00521,0,0,1,3.55176.7041,1.62582,1.62582,0,0,1,1.088,1.56787,1.02589,1.02589,0,0,1-1.12.96,5.5768,5.5768,0,0,1-1.24793-.16016,7.388,7.388,0,0,0-1.18383-.09619c-.79993,0-2.20789.51221-4.51172,1.82422a.723.723,0,0,1-.48.15967c-.15991,0-.12793-.12793-.12793-.22412a32.87425,32.87425,0,0,1,3.07178-2.6875A8.89443,8.89443,0,0,0,274.48193,115.76562Z"/><path class="cls-1" d="M309.29431,113.52588a7.77264,7.77264,0,0,1,2.94385,3.07178,7.33917,7.33917,0,0,1,.83191,3.61572,7.79137,7.79137,0,0,1-2.8158,5.91943,14.0314,14.0314,0,0,1-5.82361,2.87989,29.46915,29.46915,0,0,1-5.08764.80029c-.288,0-.544-.12842-.544-.32031,0-.22364.192-.2876.57593-.38379a18.23838,18.23838,0,0,0,7.1355-3.00782,8.37461,8.37461,0,0,0,3.32776-6.52734,5.8444,5.8444,0,0,0-1.75989-4.76807,6.42868,6.42868,0,0,0-4.38367-1.66357,73.88082,73.88082,0,0,1-5.40759,8.44727c.16.22412.35193.48.57593.73584a2.23862,2.23862,0,0,1,.76794,1.56787c0,.67187-.38391,1.248-.89587,1.248-.64,0-1.08789-.25586-2.17591-1.56787a22.68054,22.68054,0,0,1-1.98376,1.98389,9.09221,9.09221,0,0,1-1.47192,1.05566,3.39759,3.39759,0,0,1-1.72791.44825,2.46309,2.46309,0,0,1-2.01587-1.02393,5.11535,5.11535,0,0,1-.76794-2.81592c0-2.97558,1.5039-5.59961,4.41565-8.06348-.096-.44775-.1919-.92773-.38391-1.85595-.192-.92774-.288-1.34375-.448-1.8877a5.3757,5.3757,0,0,0-1.63184-2.55957c-.224-.19238-.32-.22412-.32-.38428,0-.19189.12793-.25585.288-.25585a6.9937,6.9937,0,0,1,2.62378,1.18408,3.57549,3.57549,0,0,1,1.66394,2.36767c.096.64014.064.92774.19189,2.07959a19.28033,19.28033,0,0,1,6.6875-2.01562,10.973,10.973,0,0,0,.57605-1.40772,7.61188,7.61188,0,0,0,.512-2.272.476.476,0,0,0-.288-.51221,4.28866,4.28866,0,0,0-1.6-.31982c-.288,0-.4159-.16016-.4159-.28809q0-.14355.288-.38379a2.62392,2.62392,0,0,1,1.56787-.64013,6.42985,6.42985,0,0,1,3.16772,1.18408,1.496,1.496,0,0,1,.79993,1.312,1.44176,1.44176,0,0,1-.512,1.05567,15.39055,15.39055,0,0,0-1.40784,2.3999A9.47466,9.47466,0,0,1,309.29431,113.52588Zm-18.49463,8.57568a3.91423,3.91423,0,0,0,.288,1.79151.80008.80008,0,0,0,.76794.5122c.79993,0,2.01587-.7998,3.58374-2.56006a22.53769,22.53769,0,0,1-2.07983-5.11962A7.86513,7.86513,0,0,0,290.79968,122.10156Zm6.39954-2.3042a37.10994,37.10994,0,0,0,3.90369-6.59131,12.51274,12.51274,0,0,0-5.79151,2.11182A13.961,13.961,0,0,0,297.19922,119.79736Z"/><path class="cls-1" d="M324.17871,124.7251a7.13787,7.13787,0,0,0-.192,1.792c0,.67187.192,1.50391.192,1.82373.032.896-.192,1.43994-.896,1.43994-.92785,0-1.21594-.31982-2.07983-1.98388a14.96787,14.96787,0,0,1-1.05591-5.9834,38.72881,38.72881,0,0,1,1.37586-8.99121,19.46351,19.46351,0,0,0,.64-3.26416,4.26591,4.26591,0,0,0-.83191-2.52784.487.487,0,0,1-.12805-.31982c0-.09619.16-.25586.448-.25586a3.08535,3.08535,0,0,1,1.53589.7998,7.09864,7.09864,0,0,1,1.47192,1.91993,3.46843,3.46843,0,0,1,.54395,1.75976,1.67657,1.67657,0,0,1-.448,1.15186,6.78854,6.78854,0,0,0-.99194,1.75976,19.58045,19.58045,0,0,0-1.63184,6.84766c0,1.91992.096,2.78369.35193,3.23193a.13334.13334,0,0,0,.256,0c.99194-1.88818,1.98389-4.03174,2.87976-5.88769.128-.28809.28809-.38379.448-.38379.16,0,.31994.19189.16.67187C325.39465,120.85352,324.53064,123.31738,324.17871,124.7251Zm5.08765-3.77588a5.09,5.09,0,0,0,.38391,2.04785c.54394,1.28027,2.04785,2.36816,5.47168,2.36816a19.20936,19.20936,0,0,0,4.15967-.28808,3.62249,3.62249,0,0,1,1.31189-.35205,5.15892,5.15892,0,0,1,1.85583.5122,1.34338,1.34338,0,0,1,.864,1.21582,1.31405,1.31405,0,0,1-.99194,1.24805,17.62006,17.62006,0,0,1-5.37561.54395c-5.4397,0-8.60742-2.24024-8.60742-6.17578a7.34261,7.34261,0,0,1,.79993-3.4878c.16-.28808.224-.35205.35205-.35205.12793,0,.19189.12793.19189.32031A11.07051,11.07051,0,0,0,329.26636,120.94922Zm.86389-8.60693a2.64994,2.64994,0,0,1-.672.25585c-.256,0-.288-.09619-.288-.28808q0-.19189.384-.48a15.30032,15.30032,0,0,1,3.99964-2.11182,11.92322,11.92322,0,0,1,4.1278-.67187c2.91175,0,3.80762,1.02392,3.80762,1.88769,0,.896-.57593,1.18408-1.95178,1.18408-.416,0-1.088-.09619-1.50391-.09619a8.03771,8.03771,0,0,0-1.88782.22412c-.928.25586-1.7279.60791-3.74377,2.272a.61973.61973,0,0,1-.416.19189.2023.2023,0,0,1-.224-.22412c0-.0957.032-.19189.224-.416.512-.63964,1.21595-1.34375,2.20789-2.4956A9.68884,9.68884,0,0,0,330.13025,112.34229Z"/><path class="cls-1" d="M15.87085,182.34619c.032,1.43945.064,2.75147.064,3.87158a2.92675,2.92675,0,0,1-.57592,1.792,3.38377,3.38377,0,0,1-2.94385,1.15185c-.57593,0-.60791-.03223-.76795-.896-.19189-1.05615-1.02392-1.66406-3.77563-2.33593-.16-.03223-.16-.44776,0-.44776,1.56787.09571,3.19971.1919,4.57568.1919.32,0,.4159-.16016.4159-.48v-2.84766H5.47156a11.67932,11.67932,0,0,0-2.17578.22363l-.35205-1.18359a14.305,14.305,0,0,0,2.43188.22363H12.863v-2.84765H3.00781a21.55424,21.55424,0,0,0-2.65588.19189L0,177.77051a16.40733,16.40733,0,0,0,2.84778.25586H12.863v-2.78369H5.82361a11.87177,11.87177,0,0,0-2.43189.25586l-.35193-1.248a14.20252,14.20252,0,0,0,2.65577.25586H12.863v-2.6875H7.1355v.19189c0,.7041-.57605,1.05567-1.632,1.05567-.89587,0-1.31189-.2876-1.31189-.92774,0-.51172.09607-1.47168.09607-3.64746,0-1.12012,0-1.856-.09607-3.00781a17.97211,17.97211,0,0,1,3.23181,1.40771H12.863v-2.624H3.8717a17.84235,17.84235,0,0,0-2.71984.22412l-.35193-1.21582a16.74524,16.74524,0,0,0,2.87976.25586H12.863v-.54395a27.313,27.313,0,0,0-.16-3.42382c4.09571.57617,4.09571.57617,4.09571,1.12011,0,.31983-.22388.48-.99183.76807v2.07959h7.58338c1.56787-1.728,1.9519-1.98389,2.1759-1.98389.288,0,.63989.25586,2.04785,1.40821.6399.51172.89588.76757.89588.9917s-.09595.31982-.4159.31982H15.80688v2.624h5.47156c1.05591-1.18408,1.31189-1.376,1.56787-1.376.32,0,.57593.19189,1.66394,1.08789.47986.416.67188.64013.67188.896,0,.28809-.096.38379-.76795.832v.57569c0,1.5039.064,2.56006.064,2.87988,0,.73584-.63989,1.08789-1.79175,1.08789-.8,0-1.184-.25586-1.184-.86377v-.19189H15.80688v2.6875h6.04749c1.05591-1.11963,1.31189-1.31153,1.56787-1.31153.32007,0,.608.1919,1.75989,1.02393.54394.416.736.63965.736.89551,0,.22412-.09595.32031-.89587.86426v2.04785h.512c.95984-1.43994,1.34387-1.6958,1.56787-1.6958.288,0,.63989.25586,1.79187,1.21582.48.38379.736.67187.736.896,0,.22364-.09607.31983-.416.31983H25.02222c.032,2.208.12793,3.74365.12793,4.31982,0,.92774-.672,1.27979-1.95179,1.27979-.8,0-1.184-.31983-1.184-1.02393v-.9917ZM12.863,167.627H7.1355V171.083H12.863Zm8.6394,3.45606V167.627H15.80688V171.083Zm.512,6.94336v-2.78369H15.80688v2.78369Zm0,3.58349v-2.84765H15.80688c0,.73584.032,1.5039.064,2.84765Z"/><path class="cls-1" d="M49.458,179.59424a19.67191,19.67191,0,0,0,5.2157,3.13574,26.59026,26.59026,0,0,0,8.41528,1.856c.16,0,.16.28808,0,.35205-1.18384.44775-1.4718.70361-2.33582,2.65576a.52255.52255,0,0,1-.48.35156,6.06979,6.06979,0,0,1-1.50378-.47949,23.58248,23.58248,0,0,1-5.63159-3.104,19.82821,19.82821,0,0,1-4.09571-4.22364c.096,4.09571.1919,7.10352.1919,7.96729,0,.86426-.512,1.21582-1.88782,1.21582-.86389,0-1.24792-.35156-1.24792-1.05567,0-.76806.16-3.87158.224-6.6875-2.71985,3.00782-7.07154,5.34376-12.67115,6.49561-.15991.03174-.31994-.22412-.15991-.28809,4.76758-2.23974,8.15942-4.83154,10.65515-8.1914H36.595a15.4746,15.4746,0,0,0-2.23987.19189l-.35193-1.18408a12.35292,12.35292,0,0,0,2.46375.25635H46.2262v-2.97608H39.95471a15.87782,15.87782,0,0,0-2.27185.1919l-.35193-1.1836a12.97582,12.97582,0,0,0,2.52783.25586H46.2262v-2.91162H38.29089a16.28777,16.28777,0,0,0-2.304.1919l-.35193-1.18408a13.2777,13.2777,0,0,0,2.55981.25586H43.4425c-.416-.12793-.64-.54395-.896-1.47168a6.09253,6.09253,0,0,0-1.59985-2.752c-.12806-.0957.032-.2876.192-.25586,2.87976.44776,4.35169,1.43994,4.35169,2.91162a1.63418,1.63418,0,0,1-1.12,1.56788H49.522a21.20894,21.20894,0,0,0,1.344-2.75147,14.53936,14.53936,0,0,0,.63989-2.01611c2.5918.99218,3.6477,1.5039,3.6477,1.88818,0,.38379-.224.48-1.40783.544A19.1216,19.1216,0,0,1,50.61,171.49854h5.31152c1.50391-1.66358,1.88794-1.91944,2.11194-1.91944.288,0,.63989.25586,2.04785,1.34375.60791.51172.86389.76807.86389.9917,0,.22412-.09595.32031-.416.32031H49.10608v2.91162h4.99158c1.376-1.53613,1.75988-1.792,1.98388-1.792.288,0,.64.25586,1.85584,1.24805.54394.44775.79992.73584.79992.96s-.09594.31982-.41589.31982H49.10608v2.97608H57.0415c1.63184-1.82422,2.01587-2.08008,2.23987-2.08008.288,0,.60791.25586,2.07984,1.43994.63989.51221.89587.832.89587,1.05615,0,.22364-.096.31983-.41589.31983Zm-5.98352-17.63086a12.58685,12.58685,0,0,0-.16-2.33594c3.61573.352,3.96778.60791,3.96778.99219,0,.25586-.256.44775-1.02393.7998v4.54395h2.65576v-4a12.58619,12.58619,0,0,0-.16-2.33594c3.64783.38428,3.99975.60791,3.99975.99219,0,.25586-.224.44775-1.0559.7998v4.54395h1.31189a31.042,31.042,0,0,0,1.79187-3.584,13.89892,13.89892,0,0,0,.704-2.144c2.81579,1.18408,3.80773,1.69629,3.80773,2.08008,0,.48-.224.57617-1.47192.60791a20.5455,20.5455,0,0,1-3.83972,3.04h3.74377c1.43982-1.6001,1.82386-1.856,2.04785-1.856.288,0,.6399.25586,1.98377,1.27979.608.51172.864.76806.864.9917,0,.22412-.09607.32031-.416.32031H36.4989a17.50566,17.50566,0,0,0-2.3678.19189l-.35193-1.18408a13.89456,13.89456,0,0,0,2.62378.25635h7.07154Zm-3.42383,3.42383c-.73584,0-1.02393-.28809-1.34387-1.24805a6.36815,6.36815,0,0,0-1.72791-3.13574c-.12793-.09571,0-.31983.16-.28809,3.00781.51221,4.57568,1.56787,4.57568,3.07178A1.66092,1.66092,0,0,1,40.05066,165.38721Z"/><path class="cls-1" d="M80.84045,168.36279a13.04282,13.04282,0,0,1-.70385,3.39209,22.98258,22.98258,0,0,1-2.01587,4.60742,26.29533,26.29533,0,0,1-3.55176,5.34375,3.51442,3.51442,0,0,1-2.65576,1.312A3.24734,3.24734,0,0,1,69.48132,181.77c-1.15185-1.27979-1.75988-2.91162-1.75988-5.82373a9.98963,9.98963,0,0,1,1.37585-4.86328,12.37039,12.37039,0,0,1,4.3197-4.48,14.33851,14.33851,0,0,1,7.74353-2.07959A12.24719,12.24719,0,0,1,89.096,167.019a9.80933,9.80933,0,0,1,3.74365,8.12744,8.6931,8.6931,0,0,1-2.94373,6.59131,13.96332,13.96332,0,0,1-4.73571,2.84815,22.77206,22.77206,0,0,1-6.55945,1.21582c-.48,0-.704-.064-.704-.31983,0-.25634.192-.32031.60791-.416A15.87814,15.87814,0,0,0,86.728,180.874a9.51007,9.51007,0,0,0,2.87988-7.42334,6.99356,6.99356,0,0,0-2.8158-6.01562,10.09484,10.09484,0,0,0-5.11962-1.728,14.38774,14.38774,0,0,0-2.01587.03223A4.39338,4.39338,0,0,1,80.84045,168.36279Zm-7.77539.12842a9.742,9.742,0,0,0-2.71985,3.93555,8.33011,8.33011,0,0,0-.54394,3.03955,6.36,6.36,0,0,0,.79993,3.45605,2.06405,2.06405,0,0,0,1.408,1.05567c.512,0,.99194-.31983,2.20776-2.04785a38.84787,38.84787,0,0,0,4.28772-7.83936,7.42431,7.42431,0,0,0,.672-2.71973,1.60976,1.60976,0,0,0-.57593-1.43994A10.76961,10.76961,0,0,0,73.06506,168.49121Z"/><path class="cls-1" d="M121.76453,164.7793c1.312-1.53614,1.568-1.728,1.824-1.728.32,0,.57593.19189,2.46375,1.856.896.832.99194,1.08789.99194,1.34375,0,.44824-.256.73632-1.24793.67187a1.6036,1.6036,0,0,0-1.59985.48,14.0925,14.0925,0,0,1-2.81579,1.91992c-.12806.064-.35193-.064-.288-.22363a21.78274,21.78274,0,0,0,1.02393-3.584H102.342c.12793,2.52783-.864,4.25586-2.52783,4.25586a1.597,1.597,0,0,1-1.632-1.6958,1.51464,1.51464,0,0,1,1.02393-1.53614c1.66394-.86377,2.11194-1.5039,2.33593-3.55176.032-.16015.32-.19189.35193-.03173a10.32324,10.32324,0,0,1,.38391,1.82373h8.19141v-2.08008c0-1.08789-.032-1.95166-.09595-2.65576,3.96778.38427,4.31971.76806,4.31971,1.12011,0,.28809-.35193.57569-1.05591.896v2.71973Zm-1.95179,8.60742a22.15059,22.15059,0,0,1-3.93566,8.03125c4.99157,1.82373,7.16748,3.61572,7.16748,5.31152,0,1.02393-.54407,1.728-1.344,1.728-.86389,0-.92785-.03223-2.46374-1.47168a33.93342,33.93342,0,0,0-4.9917-3.87207c-3.51978,3.168-8.57532,4.7998-15.71082,5.24756-.16,0-.16-.416,0-.44776,6.11157-1.18408,10.39917-3.104,13.407-6.14355a52.509,52.509,0,0,0-5.47155-2.43164c-.256.41553-.54395.83154-.83191,1.27978a1.31993,1.31993,0,0,1-1.152.63965c-.96,0-1.9519-.54394-1.9519-1.08789a1.3809,1.3809,0,0,1,.224-.63965,42.36842,42.36842,0,0,0,3.83973-6.14355h-5.75953a11.76241,11.76241,0,0,0-1.9519.19189l-.35193-1.18408a10.45633,10.45633,0,0,0,2.27185.25635h6.17554l.41589-.86426a32.81169,32.81169,0,0,0,1.95191-5.24756c3.58374.86377,3.77575.96,3.77575,1.376,0,.38379-.192.48-1.31189.73584-.48,1.34375-1.0559,2.688-1.66394,4H120.9967c1.72779-1.98389,2.11182-2.24024,2.33582-2.24024.288,0,.63989.25635,2.17578,1.53614.704.60791.96.896.96,1.11963,0,.22412-.09607.32031-.416.32031Zm-9.98327,0a59.62148,59.62148,0,0,1-3.00781,5.40771c2.11181.54395,4.19165,1.05567,6.2716,1.66358a19.48469,19.48469,0,0,0,3.35974-7.07129Z"/><path class="cls-1" d="M144.14941,170.41064h-6.94348a11.374,11.374,0,0,0-1.91992.19239l-.35193-1.18408a10.48387,10.48387,0,0,0,2.27185.25585h14.59095c1.40783-1.792,1.79187-2.04785,2.01586-2.04785.288,0,.6399.25586,2.17579,1.43994.672.54395.928.79981.928,1.02393s-.09594.31982-.416.31982h-9.37525v6.75147h4.19165c1.408-1.82373,1.79187-2.07959,2.01587-2.07959.288,0,.64.25586,2.04786,1.43994.64.54395.89587.832.89587,1.05566,0,.22413-.09595.32032-.41589.32032h-8.73536V185.418a27.634,27.634,0,0,0,3.83973.22363,50.45952,50.45952,0,0,0,8.54333-.67187c.16-.03174.12805.22412,0,.31982a2.53052,2.53052,0,0,0-1.05591,2.272c0,.48-.16.67188-.704.73584-1.34387.16016-3.77563.22412-5.40759.22412-4.7356,0-8.09534-.96-10.52722-3.168a14.03211,14.03211,0,0,1-3.19971-4.63965c-1.408,3.35986-3.58374,5.63183-7.29553,7.80761-.12805.0962-.38391-.25586-.256-.352a20.35873,20.35873,0,0,0,5.72754-11.29492,24.31958,24.31958,0,0,0,.32007-3.42383c3.35974.67188,3.99963.86377,3.99963,1.34375,0,.28809-.192.44825-1.02393.79981a31.94967,31.94967,0,0,1-1.11987,4.28808,9.91005,9.91005,0,0,0,5.18359,4.83155Zm11.23121-6.14355c1.24792-1.40771,1.5039-1.59961,1.75988-1.59961.32,0,.57593,0,2.30384,1.63184.79992.73584.96.9917.96,1.248,0,.416-.288.73584-1.43994.76758a2.11623,2.11623,0,0,0-1.27991.28809,10.75849,10.75849,0,0,1-2.1438,1.376c-.12805.064-.256-.064-.224-.22412a15.77631,15.77631,0,0,0,.57593-2.75146H135.5741c.09594,2.4956-.896,4.22363-2.55982,4.22363a1.597,1.597,0,0,1-1.632-1.6958,1.51464,1.51464,0,0,1,1.02393-1.53613c1.66394-.86377,2.11194-1.50391,2.33582-3.55176.032-.16016.32006-.1919.352-.03174a15.13492,15.13492,0,0,1,.41589,1.85547h8.35144v-2.6875c0-.44824-.032-1.02393-.09595-1.792,3.83972.352,4.19165.7041,4.19165,1.02392,0,.28809-.31994.54395-.99194.73584v2.71973Z"/><path class="cls-1" d="M171.68555,171.5625a49.434,49.434,0,0,1-.16-6.11133,4.988,4.988,0,0,0-.12793-1.66406c-.09607-.38379-.28808-.57568-.928-.89551-.31994-.16015-.63989-.32031-.96-.44824-.19189-.064-.288-.0957-.288-.22412,0-.1919.192-.38379.416-.51172a3.48592,3.48592,0,0,1,1.7279-.51221,4.81493,4.81493,0,0,1,2.78369,1.312,1.76655,1.76655,0,0,1,.832,1.40821,1.362,1.362,0,0,1-.384.89551,2.79936,2.79936,0,0,0-.256.896,17.99905,17.99905,0,0,0-.192,1.98389,31.92245,31.92245,0,0,0,0,4.064c.06409.63965.448.76758.896.76758a17.61294,17.61294,0,0,0,2.78381-1.11963,19.89526,19.89526,0,0,0,2.01587-.99219.55655.55655,0,0,0,.15991-.83154,3.32926,3.32926,0,0,0-.63989-.80029c-.16-.15967-.288-.25586-.288-.38379,0-.16016.31994-.352.73584-.352a2.166,2.166,0,0,1,1.088.352,7.36586,7.36586,0,0,1,2.01587,1.59961,3.10111,3.10111,0,0,1,.736,1.6001c0,.57617-.2561.86377-.896.96-.512.064-1.43994.28808-2.01587.416a39.21408,39.21408,0,0,0-5.85559,1.728c-4.73559,1.8877-6.78344,3.51953-6.78344,6.07959,0,2.04785,1.88781,3.19971,6.14355,3.19971,3.29578,0,4.86365-.28809,5.56751-.57617a3.16953,3.16953,0,0,1,1.5039-.38379,4.74187,4.74187,0,0,1,1.632.28759c.89587.28809,1.37585.832,1.37585,1.40821,0,.73584-.224,1.21582-1.47192,1.5039a26.34965,26.34965,0,0,1-6.4635.51172,20.84956,20.84956,0,0,1-5.98352-.70361,6.32667,6.32667,0,0,1-2.87988-1.792,4.45018,4.45018,0,0,1-1.11988-2.97608c0-3.42334,2.43189-5.40722,6.4635-7.519A3.14773,3.14773,0,0,1,171.68555,171.5625Z"/><path class="cls-1" d="M202.07275,161.51562c1.31189-1.43994,1.56787-1.63183,1.82386-1.63183.31994,0,.60791.19189,1.82385,1.15185.54394.416.736.63965.736.896,0,.2876-.192.44775-1.02392.76758a17.3469,17.3469,0,0,0,2.23986,2.5918,23.986,23.986,0,0,0,1.69593-2.39942,20.625,20.625,0,0,0,1.34387-2.65625c3.00769,1.56787,3.16772,1.792,3.16772,2.17627,0,.35156-.192.44776-1.47192.48a17.52271,17.52271,0,0,1-4.2876,2.84766A17.691,17.691,0,0,0,211.16,168.043a22.4467,22.4467,0,0,0,2.08-2.78369,17.1883,17.1883,0,0,0,1.08789-1.98389c2.46375,1.27979,3.16773,1.75977,3.16773,2.23975,0,.352-.256.44824-1.34388.44824a19.47084,19.47084,0,0,1-4.28772,2.4956,27.97216,27.97216,0,0,0,8.09546,2.65577.214.214,0,0,1,.032.38379,3.11367,3.11367,0,0,0-1.72791,2.33593c-.096.416-.224.57617-.48.57617a4.93315,4.93315,0,0,1-1.40784-.38427,28.00553,28.00553,0,0,1-6.17553-3.87158,20.84328,20.84328,0,0,1-5.11963-6.91163,22.26612,22.26612,0,0,1-8.22339,8.4795,6.77814,6.77814,0,0,0,1.34387.12793h8.44739c1.24792-1.66358,1.63183-1.91993,1.85583-1.91993.288,0,.64.25635,2.04785,1.34424.60791.51172.864.76758.864.9917s-.09607.32031-.416.32031h-2.1759v5.43946H212.856c1.632-1.88819,2.01587-2.144,2.23987-2.144.288,0,.63989.25586,2.23986,1.47217.736.60791.99182.86377.99182,1.08789,0,.22364-.09594.31983-.41589.31983h-9.0874V184.874c0,1.05567.0321,1.05567,2.97583,1.05567,2.27185,0,3.00781-.12793,3.45569-.51172.384-.38428.672-1.18408,1.568-3.96777.064-.16016.41589-.0962.41589.064V184.522c0,.63965.032.70362.448.9917a1.3071,1.3071,0,0,1,.79993,1.21582c0,.7041-.41589,1.18408-1.53589,1.47217a23.07969,23.07969,0,0,1-5.34363.38379c-5.08764,0-5.82348-.416-5.82348-3.3916,0-.67188.032-1.376.032-4.12793v-2.30371h-4.03174c-.96,6.11181-4.15967,8.79931-11.16724,10.33545-.15991.03173-.31994-.32032-.15991-.38428,5.47156-2.36768,7.67944-4.63965,8.41528-9.95117h-5.05554a22.5124,22.5124,0,0,0-2.71985.19189l-.35192-1.18359a19.50279,19.50279,0,0,0,3.10376.25586H198.937a35.5227,35.5227,0,0,0,.224-5.43946h-.96a7.42237,7.42237,0,0,0-1.53589.1919l-.256-.80029a39.39972,39.39972,0,0,1-6.23962,2.81591c-.15992.064-.35193-.25586-.22388-.31982,5.66357-3.19971,9.85522-7.45557,12.06311-12.22315h-4.7677a8.74466,8.74466,0,0,0-2.07984.25586l-.35192-1.248a10.99893,10.99893,0,0,0,2.33581.25634Zm-5.95153,6.78321c-.736,0-.992-.25586-1.43995-1.79151a7.16062,7.16062,0,0,0-1.9198-3.07177c-.12805-.12842-.0321-.25635.12793-.22412,3.39173.86377,4.79969,1.856,4.79969,3.35986A1.61184,1.61184,0,0,1,196.12122,168.29883Zm5.98352,4.28808a33.26737,33.26737,0,0,1-.224,5.43946h3.93579v-5.43946Z"/><path class="cls-1" d="M233.56726,177.38623v-4.86377h-2.04785a13.17346,13.17346,0,0,0-2.04785.19238l-.35205-1.18408a11.58708,11.58708,0,0,0,2.3999.25586h2.04785v-1.27978c0-.57618-.032-1.376-.12805-2.39991,3.6477.352,3.96777.67188,3.96777.99219,0,.25586-.32007.54395-.96.83154v1.856h4.44763v-1.24756c0-.57617-.064-1.376-.15991-2.36816,3.64771.35205,3.96765.67187,3.96765.99219,0,.25586-.288.51171-.89587.83154v1.792h1.82385c1.31189-1.6958,1.6958-1.95166,1.9198-1.95166.288,0,.608.25586,1.95191,1.376.57592.48.8319.76758.8319.9917s-.09594.31982-.41589.31982h-6.11157v4.86377h3.29565c1.408-1.75977,1.792-2.01562,2.01587-2.01562.28809,0,.608.25585,1.98389,1.40771.57593.51221.83191.7998.83191,1.02393s-.096.31982-.4159.31982h-12.5111a13.1145,13.1145,0,0,0,3.4237,4.064,25.54926,25.54926,0,0,0,2.30384-2.144,6.08262,6.08262,0,0,0,1.21594-1.66357c2.17578,1.24756,2.94385,1.85547,2.94385,2.23974,0,.31983-.384.51172-1.44.38379a25.39152,25.39152,0,0,1-4.35168,1.6958,10.201,10.201,0,0,0,.99194.60791,20.25579,20.25579,0,0,0,8.51135,2.24024c.16,0,.16.31982,0,.35156a2.148,2.148,0,0,0-1.82385,1.95215c-.12805.832-.288,1.02393-.704,1.02393a5.21851,5.21851,0,0,1-1.2799-.25586,16.34123,16.34123,0,0,1-5.91956-3.39209,20.67219,20.67219,0,0,1-4.7677-7.10352h-3.39172v7.03955c2.1759-.22363,4.41565-.57568,6.36755-.96.16-.03174.256.352.12805.416a48.01227,48.01227,0,0,1-11.16723,3.77587c-.16.76807-.448,1.12012-.864,1.12012-.38391,0-.38391,0-1.34387-4.0957a7.76989,7.76989,0,0,0,1.152.064c.86389,0,1.85583-.03222,2.87976-.09619v-7.26367h-3.83972a21.38413,21.38413,0,0,1-4.86365,10.65527c-.09595.12793-.38391-.0957-.32-.25586a32.99728,32.99728,0,0,0,2.52783-10.71923c.288-3.16748.38392-7.03955.38392-12.15918,0-2.94385-.032-4.19141-.16-5.9834a28.61758,28.61758,0,0,1,3.71179,1.82373h17.47071c1.152-1.376,1.408-1.56787,1.66394-1.56787.31994,0,.57592.19189,1.75988,1.18408.54395.48.736.70361.736.96,0,.352-.224.57568-.896,1.02393v.67187c0,1.75977.064,2.71973.064,3.67969,0,.60791-.736.9917-1.85584.9917-.928,0-1.184-.25586-1.21594-1.15186h-18.1427a71.29313,71.29313,0,0,1-.736,10.11133Zm13.47095-15.167h-18.1106v1.4082c0,1.02393,0,1.98389-.0321,2.91162h18.1427Zm-6.14356,10.30322H236.447v4.86377h4.44763Z"/><path class="cls-1" d="M277.16956,168.71484a6.74439,6.74439,0,0,1,2.55981.79981c1.50391.76806,1.82385,1.56836,1.82385,2.17627,0,.63965-.416.96-1.12,1.02392a8.68454,8.68454,0,0,0-1.79187.44776,35.65406,35.65406,0,0,0-4.7356,2.01611c-1.05591.54395-2.23987,1.11963-3.00781,1.56787-.032.79981-.032,1.75977-.032,2.43164a11.69936,11.69936,0,0,1-.096,2.81592,1.25613,1.25613,0,0,1-1.184.832c-.928,0-1.408-.44824-1.408-1.53613,0-.57617.06409-1.34375.09607-3.07178-.76794.44776-1.27991.79981-1.66394,1.05615-1.72778,1.1836-2.5918,2.17579-2.5918,3.55176,0,1.50342,1.344,2.27149,4.35169,2.27149a27.43439,27.43439,0,0,0,4.35168-.22364,8.63114,8.63114,0,0,0,1.88794-.54443,4.13783,4.13783,0,0,1,1.31189-.25586,3.06257,3.06257,0,0,1,1.88782.54395,1.61639,1.61639,0,0,1,.672,1.18408,1.24018,1.24018,0,0,1-.54395.96c-.64.44775-2.59192.7998-6.23962.7998-3.80774,0-5.31153-.22412-6.87952-.96a3.71491,3.71491,0,0,1-2.20776-3.58349,5.64353,5.64353,0,0,1,2.20776-4.15967,24.19573,24.19573,0,0,1,3.48779-2.4961c.032-.57568.032-1.05566.032-1.5039,0-1.6958-.41589-2.75147-1.56787-2.75147-1.184,0-2.33581.76758-3.61572,2.20752a34.80522,34.80522,0,0,0-2.27185,3.26367,2.06119,2.06119,0,0,1-1.43994.92823,1.30626,1.30626,0,0,1-.99194-.352,1.23461,1.23461,0,0,1-.35193-1.02393,2.04837,2.04837,0,0,1,.512-1.312c.32-.28809.76794-.7041,1.12-1.05566a31.19828,31.19828,0,0,0,4.67164-6.33594c-.608.06445-1.53589.16015-2.30384.22412a3.67027,3.67027,0,0,1-3.83972-2.5918,1.90484,1.90484,0,0,1-.16-.73584c0-.16015.064-.28808.192-.28808a.56529.56529,0,0,1,.35193.28808,3.71606,3.71606,0,0,0,3.19983,1.312,17.5346,17.5346,0,0,0,3.71167-.5122,14.9848,14.9848,0,0,0,1.05591-2.62354,3.57791,3.57791,0,0,0,.16-.86426.77.77,0,0,0-.288-.54394,2.42535,2.42535,0,0,0-.76794-.44776,4.11405,4.11405,0,0,0-.672-.22412c-.15991-.03173-.1919-.064-.1919-.16015,0-.15967.12793-.25586.22388-.35157a1.75815,1.75815,0,0,1,1.184-.38427,6.93229,6.93229,0,0,1,3.23181.832,1.29209,1.29209,0,0,1,.76795,1.18408,1.07513,1.07513,0,0,1-.448.79981,3.73534,3.73534,0,0,0-.86389.896c-.192.25586-.704.9917-.96,1.40772a5.76739,5.76739,0,0,0,2.55981-1.1836,1.92466,1.92466,0,0,1,1.15186-.35205c1.21594,0,2.07983.48,2.07983,1.1836a1.20272,1.20272,0,0,1-.89587,1.12011,37.63036,37.63036,0,0,1-6.11158,1.63184c-.31994.48-.672.96-1.11987,1.6958a27.46388,27.46388,0,0,1-1.66394,2.49609,6.17231,6.17231,0,0,1,3.48779-1.34424,2.99048,2.99048,0,0,1,2.71973,1.248,4.98584,4.98584,0,0,1,.57605,2.71973c2.55981-1.56787,3.93567-2.3999,5.43957-3.35986.6399-.41553,1.15186-.70362,1.15186-.95948a.87435.87435,0,0,0-.35193-.64013,1.98678,1.98678,0,0,0-.928-.48c-.09594-.03223-.12793-.0962-.12793-.25586C275.95361,168.875,276.52954,168.71484,277.16956,168.71484Z"/><path class="cls-1" d="M294.22021,182.08984a5.304,5.304,0,0,0,2.84778,2.56006c1.56787.63965,3.87183.832,7.55152.832a106.01261,106.01261,0,0,0,12.19116-.76806c.15991-.03223.12793.28808,0,.35205a2.07051,2.07051,0,0,0-1.24793,1.7915c-.09607.99219-.16,1.08789-.76794,1.15235-1.6.12793-5.72766.22363-7.87146.22363-5.37561,0-8.57544-.44776-10.59119-1.79151a7.94691,7.94691,0,0,1-3.03979-4.54394,20.898,20.898,0,0,1-3.80774,4.92773c.096,1.18409-.06409,1.43994-.54395,1.43994-.48,0-1.12-1.05615-2.36792-3.87158a15.57627,15.57627,0,0,0,4.63977-2.17627v-8.3833h-2.30395a5.427,5.427,0,0,0-1.75977.28809l-.35205-1.27979a8.99155,8.99155,0,0,0,2.11182.25586h2.11194c1.11987-1.312,1.37585-1.5039,1.63183-1.5039.32,0,.57593.19189,1.75989,1.18408.54395.48.736.70361.736.96,0,.22363-.09607.31982-.928.9917Zm-2.04785-15.19873c-.736,0-1.11987-.38379-1.56787-1.98388a9.371,9.371,0,0,0-2.04785-3.74366c-.12793-.12793.09607-.31982.256-.28808,3.74378.92773,5.11963,2.46387,5.11963,4.0957A1.74122,1.74122,0,0,1,292.17236,166.89111Zm17.95069,7.83936c1.184-1.34375,1.43994-1.53565,1.69592-1.53565.32,0,.57593.1919,1.75989,1.15186.54394.44775.736.67187.736.92773,0,.22413-.09607.31983-.864.92823v1.21582c0,2.97558.09607,4.51172.09607,5.05566,0,.896-.608,1.31152-1.79188,1.31152-.99194,0-1.2799-.28759-1.2799-1.21582v-.70361h-9.5033v.76758c0,.99219-.54394,1.376-1.75989,1.376-.928,0-1.31189-.31983-1.31189-1.08789,0-2.30372.15992-4.60743.15992-13.82276,0-2.144-.032-4.31982-.224-6.4956a28.01576,28.01576,0,0,1,3.39184,1.792h1.75989c.25586-.832.47986-1.53613.63989-2.272.12793-.70411.256-1.50391.416-2.56006,3.90369.896,4.03162.92822,4.03162,1.376,0,.35205-.288.54395-1.31189.73584a14.24219,14.24219,0,0,1-2.62378,2.72022h5.24755c.96-1.08838,1.21595-1.28028,1.47193-1.28028.32007,0,.608.1919,1.7279,1.02393.512.38428.704.60791.704.86426,0,.2876-.192.48-.79992.86377v.86377c0,2.272.064,3.8081.064,4.31982,0,.96-.48,1.376-1.632,1.376-.95984,0-1.27978-.31983-1.27978-1.27979v-.32031H300.9718v3.90381Zm-.47986-9.59912H300.9718v4.95947h8.67139Zm-8.67139,15.99853h9.5033v-5.66357h-9.5033Z"/><path class="cls-1" d="M340.1554,176.5542a19.64034,19.64034,0,0,0,9.75927,6.78369c.16.03223.096.31982-.064.35205a3.083,3.083,0,0,0-2.52783,2.01563c-.256.73632-.35205.86425-.672.86425a3.47727,3.47727,0,0,1-1.31189-.73632,25.27073,25.27073,0,0,1-6.43152-7.45508,36.22455,36.22455,0,0,1-3.39172-9.05567c.09594,7.61573.31994,15.19922.31994,16.479a3.09655,3.09655,0,0,1-.96,2.46386,4.23636,4.23636,0,0,1-2.87976.86377.41054.41054,0,0,1-.448-.416c-.15991-1.59961-.79992-2.04785-3.96765-2.84766-.16-.03222-.16-.48,0-.48,1.72791.12793,3.45569.25586,4.67163.25586.448,0,.54395-.12793.54395-.54394v-7.10352a52.90284,52.90284,0,0,1-9.2793,6.07959c0,1.12012-.192,1.4082-.57593,1.4082-.48,0-.96-.832-2.36792-3.77588.768-.16015,1.75989-.44824,2.87989-.7998a66.36712,66.36712,0,0,0,9.34326-4.0957V167.915h-9.24732a15.47448,15.47448,0,0,0-2.23986.19189l-.35193-1.18408a13.24338,13.24338,0,0,0,2.55981.25635h9.2793v-2.752a46.18893,46.18893,0,0,0-.16-4.83155c3.83985.38379,4.22376.51172,4.22376,1.02393,0,.31982-.256.54394-1.11987.92773v5.63184h7.42346c1.53589-1.88818,1.9198-2.144,2.1438-2.144.288,0,.63989.25586,2.23987,1.5039.704.57617.95983.832.95983,1.05615,0,.22364-.09594.31983-.41589.31983H335.73975a25.22278,25.22278,0,0,0,3.77563,7.80762,30.50448,30.50448,0,0,0,2.68787-4.38379,13.89971,13.89971,0,0,0,.67187-1.66407c3.00781,1.82374,3.67981,2.33594,3.67981,2.7837,0,.416-.224.5122-1.53589.64013a28.71294,28.71294,0,0,1-4.9917,3.2959Zm-11.93519-.48c-.63989,0-.99194-.25586-1.31188-1.02393a9.77458,9.77458,0,0,0-3.51978-4.54345c-.12793-.064,0-.28809.16-.25586,4.28772.60791,6.23951,1.856,6.23951,3.93554A1.68337,1.68337,0,0,1,328.22021,176.07422Zm13.47107-10.11084a1.275,1.275,0,0,1-1.21594-.76807,7.35712,7.35712,0,0,0-2.91174-3.39209c-.12805-.0957.064-.35156.224-.35156,3.4237.31982,5.27954,1.37549,5.27954,2.91162A1.48884,1.48884,0,0,1,341.69128,165.96338Z"/><path class="cls-1" d="M375.21118,166.50732a5.0975,5.0975,0,0,0,1.43994-.32031,2.39927,2.39927,0,0,1,1.05591-.31982,6.59355,6.59355,0,0,1,3.19983.896,1.84874,1.84874,0,0,1,.92786,1.50391.95833.95833,0,0,1-1.02393.96,5.67817,5.67817,0,0,1-1.56787-.16016,15.05773,15.05773,0,0,0-3.58374-.54394c-2.04785,0-3.48779.03223-5.56763.19189-.032,1.63184-.09594,3.2959-.09594,5.11963a9.13862,9.13862,0,0,1,.79992,3.83985,9.58477,9.58477,0,0,1-3.83972,7.51953,13.96523,13.96523,0,0,1-5.72754,2.6875,9.63091,9.63091,0,0,1-1.79187.32031c-.224,0-.448-.12793-.448-.32031,0-.25586.12793-.35156.38391-.44776,4.51172-1.60009,7.29554-4.19189,8.31946-7.42334a4.05085,4.05085,0,0,1-1.88794.38379,3.72163,3.72163,0,0,1-2.30371-.86377,4.06045,4.06045,0,0,1-1.376-3.104,3.94325,3.94325,0,0,1,1.34387-3.10352,4.60845,4.60845,0,0,1,2.65588-.99218,7.53816,7.53816,0,0,1,1.63184.19189c.032-1.24756,0-2.43164-.032-3.55176a70.184,70.184,0,0,0-7.7434,1.40821,5.81248,5.81248,0,0,0-1.88794.832,1.74114,1.74114,0,0,1-1.05591.35156,3.01674,3.01674,0,0,1-2.04785-.9917,4.20112,4.20112,0,0,1-1.53589-2.3999,1.11888,1.11888,0,0,1,.09607-.51172.33693.33693,0,0,1,.31994-.25635.44177.44177,0,0,1,.288.16016,4.02421,4.02421,0,0,0,2.81579,1.18408,18.56885,18.56885,0,0,0,2.27185-.28809c2.71985-.44775,5.88758-.896,8.47937-1.21582,0-1.02392-.032-2.01611-.064-3.26367a2.99744,2.99744,0,0,0-.128-1.12011c-.12793-.28809-.288-.48-.86389-.54395-.64-.064-.896-.09619-1.21595-.12793-.192-.03223-.35192-.09619-.35192-.25586,0-.22412.224-.44824.512-.67236a2.9015,2.9015,0,0,1,1.6958-.73584,5.00182,5.00182,0,0,1,2.87988,1.05615c.57593.38379.92786.7998.92786,1.24756a1.35122,1.35122,0,0,1-.44788.92822,1.05159,1.05159,0,0,0-.35205.67188c-.064.73584-.09595,1.312-.12793,2.52783C372.26746,166.79492,373.80334,166.667,375.21118,166.50732Zm-10.71924,7.45508a2.48657,2.48657,0,0,0-.67187,1.76026,2.39454,2.39454,0,0,0,.57593,1.72754,2.13165,2.13165,0,0,0,1.69592.7041,2.09244,2.09244,0,0,0,1.43982-.54395,2.44421,2.44421,0,0,0,.57605-1.856,2.74832,2.74832,0,0,0-.48-1.6958,1.94669,1.94669,0,0,0-1.53589-.7041A2.19078,2.19078,0,0,0,364.49194,173.9624Z"/><path class="cls-1" d="M392.2168,175.37061a10.04289,10.04289,0,0,1,6.49548-2.688,8.12168,8.12168,0,0,1,5.66357,1.91992,6.20528,6.20528,0,0,1,2.11194,4.57568,7.25866,7.25866,0,0,1-3.23181,6.30371,11.033,11.033,0,0,1-6.33557,1.8877,8.07471,8.07471,0,0,1-4.41565-.96,3.41425,3.41425,0,0,1-1.63184-2.94385,2.81979,2.81979,0,0,1,1.11988-2.272,4.23261,4.23261,0,0,1,2.65576-.76758,5.3959,5.3959,0,0,1,3.64783,1.63184,9.59937,9.59937,0,0,1,1.63183,2.65576,5.36926,5.36926,0,0,0,2.23987-1.63184A5.931,5.931,0,0,0,403.32,179.21a5.2874,5.2874,0,0,0-1.56787-3.83935,5.36683,5.36683,0,0,0-3.61573-1.21582c-3.71167,0-6.36755,2.36767-8.8313,5.82324-.64.896-1.088,1.27978-1.568,1.27978a1.3949,1.3949,0,0,1-.92786-.38379,1.6229,1.6229,0,0,1-.57592-1.18408,1.81081,1.81081,0,0,1,.60791-1.43945,134.18687,134.18687,0,0,0,11.10315-13.0874c.224-.31983.352-.48.352-.63965,0-.16016-.16-.28809-.384-.22412a22.48773,22.48773,0,0,0-3.35974,1.34375c-.79992.38427-1.2799.64013-1.82385.92822a1.70141,1.70141,0,0,1-2.75183-.12793,4.195,4.195,0,0,1-1.24793-2.43213c0-.48.288-1.18408.512-1.18408.192,0,.31994.22412.57605.57617.54394.7041.92785.92773,1.34387.92773a21.23251,21.23251,0,0,0,5.47156-1.27978,3.06087,3.06087,0,0,0,1.53588-.832,1.221,1.221,0,0,1,.864-.416,5.44837,5.44837,0,0,1,2.87976,1.34424,1.38435,1.38435,0,0,1,.60791,1.11963.87319.87319,0,0,1-.512.832,7.50252,7.50252,0,0,0-1.24793.79981,44.08625,44.08625,0,0,0-4.38367,4.67187c-1.47192,1.6958-2.62377,2.91162-4.19165,4.73584Zm3.71167,7.19921a2.99233,2.99233,0,0,0-2.01575-.92773,1.88333,1.88333,0,0,0-1.47192.54395,1.533,1.533,0,0,0-.32007,1.02392,1.92415,1.92415,0,0,0,.928,1.63184,5.929,5.929,0,0,0,3.00781.60791,8.0925,8.0925,0,0,0,1.37585-.09619A5.86133,5.86133,0,0,0,395.92847,182.56982Z"/></g></g></svg>