<svg xmlns="http://www.w3.org/2000/svg" viewBox="0 0 556.59766 491.63184"><defs><style>.cls-1{fill:#0e2a3e;}</style></defs><g id="レイヤー_2" data-name="レイヤー 2"><g id="レイヤー_1-2" data-name="レイヤー 1"><path class="cls-1" d="M129.21729,7.32764c-.064,2.59179-1.344,4.1914-2.5918,4.1914a1.24443,1.24443,0,0,1-1.28-1.27978,1.37177,1.37177,0,0,1,.896-1.312,4.114,4.114,0,0,0,2.3999-3.67969c0-.12793.31982-.12793.3518,0a9.5522,9.5522,0,0,1,.19214,1.27978h9.18335V3.10352a20.479,20.479,0,0,0-.12817-2.7837c3.16772.35206,3.55176.57618,3.55176.92823,0,.25586-.22388.48-1.08789.832V6.52734h2.87988a24.47537,24.47537,0,0,0,1.88769-3.10351,12.16127,12.16127,0,0,0,.896-2.36817c2.3999.896,3.10376,1.28028,3.10376,1.69629,0,.38379-.38379.544-1.34375.544a20.551,20.551,0,0,1-3.51978,3.23144h5.50367c1.18383-1.24755,1.34375-1.376,1.56787-1.376.22387,0,.38379.12842,1.82373,1.312.60791.60791.73608.76807.73608.99219,0,.44775-.32007.57568-1.1521.57568-.448,0-.54394.12793-.92773.48a17.40808,17.40808,0,0,1-2.43189,1.91992c-.12817.09619-.384-.064-.32007-.22412a13.64627,13.64627,0,0,0,1.02393-2.87939Zm11.29516,12.127h7.32739c1.02393-1.12012,1.18384-1.248,1.376-1.248.22388,0,.416.12793,1.47192.99219.48.44775.60791.63965.60791.86377s-.15991.44824-.896.896v1.08789c0,1.56787.032,2.56006.032,3.3916a2.2679,2.2679,0,0,1-.99194,2.11181,3.298,3.298,0,0,1-1.79175.44825c-.35205,0-.48-.12793-.57593-.57617-.12817-.79981-.512-1.24756-2.81592-1.63184-.19189-.03174-.19189-.44775,0-.44775,1.50391.064,2.43189.12792,3.32788.12792.35181,0,.48-.12792.48-.5122V20.25439h-7.55151v1.56788c0,3.29589.09595,6.27148.09595,7.16748,0,.832-.512,1.12011-1.47193,1.12011-.76782,0-1.02392-.28808-1.02392-.96,0-.44775.09595-2.17578.09595-5.24756V20.22266H131.169V22.6543c0,2.56006.03222,3.55175.03222,4.22363,0,.832-.416,1.15186-1.408,1.15186-.76806,0-1.02392-.2876-1.02392-.86377,0-.54395.09594-1.856.09594-4.38379,0-2.14356,0-3.35987-.12793-4.76758a17.34246,17.34246,0,0,1,2.68775,1.40771h6.78345V15.9668h-4.31958v.28808c0,.7041-.448,1.02393-1.312,1.02393-.70385,0-.928-.28809-.928-.79981,0-.44824.0642-1.18408.0642-4.28808,0-1.40772-.032-2.11182-.09619-3.29541a26.51773,26.51773,0,0,1,2.52784,1.24756H144.96c.896-1.02393,1.05615-1.11963,1.24805-1.11963.25586,0,.448.0957,1.408.896.48.416.60791.60791.60791.79981,0,.22412-.15992.416-.832.832V12.5752c0,2.36767.064,3.35986.064,3.64746,0,.7041-.448.99218-1.31177.99218-.76806,0-.96-.25586-.96-.896V15.9668h-4.67163ZM132.769,4.67188a7.60742,7.60742,0,0,0-1.696-3.2002c-.096-.0957.064-.25586.19214-.22363,2.65576.7998,3.93554,2.04785,3.93554,3.35937a1.37981,1.37981,0,0,1-1.31176,1.47217C133.2168,6.07959,132.99292,5.72754,132.769,4.67188Zm12.415,6.27148H133.88892V15.167h11.29516Z"/><path class="cls-1" d="M166.52246,27.67773c0,.76807-.48,1.08838-1.47192,1.08838-.8,0-1.08789-.25634-1.08789-.92822s.09594-2.01562.09594-6.46338c0-2.17578,0-3.67969-.032-4.9917a23.46276,23.46276,0,0,1-6.91138,5.59961c-.19213.09619-.448-.28808-.28808-.416A31.06775,31.06775,0,0,0,167.09839,4.31982h-6.33545a20.60992,20.60992,0,0,0-2.75195.1919l-.31983-1.21582a22.06718,22.06718,0,0,0,3.07178.22363h20.19043c1.63184-1.85547,1.856-2.01562,2.04785-2.01562.22388,0,.448.16015,2.11182,1.43994.8.63965.928.896.928,1.08789s-.096.28808-.416.28808H169.91406a31.23624,31.23624,0,0,1-3.87158,9.375,6.2989,6.2989,0,0,1,.70386.44825h12.54321c1.08789-1.21582,1.2478-1.34424,1.43994-1.34424.22388,0,.41577.12842,1.56787,1.08838.512.48.6399.67187.6399.86377,0,.28808-.15992.44775-.928.92773v3.00781c0,5.34375.09594,7.99952.09594,8.79932,0,.832-.41577,1.15186-1.5039,1.15186-.79981,0-1.05591-.25586-1.05591-.92774V26.14209h-13.023Zm13.023-12.73486h-13.023V25.34229h13.023Z"/><path class="cls-1" d="M195.96558,13.53516a29.04246,29.04246,0,0,1-4.60767,3.80761,1.07838,1.07838,0,0,1-.60791.22412.39642.39642,0,0,1-.416-.44824c0-.22412.28809-.54394.73584-.96a40.68351,40.68351,0,0,0,4.60791-5.02344,37.98689,37.98689,0,0,0,2.87964-4.22363,5.10657,5.10657,0,0,0,.73609-1.856c0-.352-.32007-.76806-1.1521-1.248-.22388-.12793-.41577-.1919-.41577-.35205,0-.15967.57592-.38379,1.15185-.38379a5.92551,5.92551,0,0,1,2.43164,1.12011c.76807.51172,1.08814.89551,1.08814,1.37549a1.10584,1.10584,0,0,1-.64014.92823c-.31982.19189-.48.416-1.37573,1.63183a1.83827,1.83827,0,0,0,.416.03174,12.14623,12.14623,0,0,0,1.82373-.19189c1.43995-.22364,2.43189-.38379,3.51978-.57569a1.39563,1.39563,0,0,0,.73584-.416,1.04518,1.04518,0,0,1,.73608-.38428,3.359,3.359,0,0,1,1.63184.86426c.73584.57568,1.21582,1.02392,1.21582,1.53564,0,.416-.31983.64014-.73584.832a1.79059,1.79059,0,0,0-1.02393.92774,49.23155,49.23155,0,0,1-6.46362,9.05566,33.38009,33.38009,0,0,1-10.81518,8.03125,1.56153,1.56153,0,0,1-.60792.16016.44483.44483,0,0,1-.384-.416c0-.19189.12818-.31982.416-.51221a41.51091,41.51091,0,0,0,9.91919-8.57519,44.43855,44.43855,0,0,0,6.0476-9.37549.986.986,0,0,0,.064-.25586.14633.14633,0,0,0-.15991-.12793c-.48.03223-2.23975.35205-3.4878.60791a11.45308,11.45308,0,0,1-1.88769.25586,4.67132,4.67132,0,0,1-1.66406-.416A40.20058,40.20058,0,0,1,195.96558,13.53516Zm13.855-10.23926a7.20263,7.20263,0,0,1,2.78393,1.59961c.76782.67187,1.21582,1.248,1.21582,1.91992a.89037.89037,0,0,1-.896.96q-.624,0-1.05591-.86377a11.06687,11.06687,0,0,0-2.68775-3.07178.4968.4968,0,0,1-.22412-.32031.32936.32936,0,0,1,.35205-.31982A1.81127,1.81127,0,0,1,209.82056,3.2959Zm2.78393-2.144a7.55811,7.55811,0,0,1,2.55982,1.248c.76782.54395,1.47168,1.27979,1.47168,2.01563a.90816.90816,0,0,1-.86377,1.02392c-.416,0-.67212-.15966-1.02393-.76757a9.7518,9.7518,0,0,0-2.94385-3.00782.38578.38578,0,0,1-.22387-.32031.32064.32064,0,0,1,.31982-.31982A4.17968,4.17968,0,0,1,212.60449,1.15186Z"/><path class="cls-1" d="M223.041,10.55908a4.43978,4.43978,0,0,0-1.21607-.67187c-.15991-.064-.25586-.16016-.25586-.28809,0-.25586.57593-.44775,1.05591-.44775a5.03073,5.03073,0,0,1,2.5918,1.08789c.67187.44775,1.15185.96,1.15185,1.43994a1.04562,1.04562,0,0,1-.416.7998,2.32493,2.32493,0,0,0-.54395,1.08789,22.353,22.353,0,0,1-2.97583,6.20752,19.70663,19.70663,0,0,1-5.56763,5.34375,1.433,1.433,0,0,1-.57592.22413.477.477,0,0,1-.38379-.416c0-.16016.064-.25586.31982-.48a23.31245,23.31245,0,0,0,6.87964-10.9751,8.16048,8.16048,0,0,0,.35181-1.95215A1.17448,1.17448,0,0,0,223.041,10.55908Zm7.4873-3.61572c.8.48,1.248.86426,1.248,1.43994a1.14513,1.14513,0,0,1-.352.79981,1.65575,1.65575,0,0,0-.28809.99218c-.096,3.32764-.12793,6.20752-.15991,9.82325,0,.25585.096.38378.15991.38378a1.441,1.441,0,0,0,.54395-.15966,48.76982,48.76982,0,0,0,11.19921-6.94385c.22413-.1919.35206-.31983.54395-.31983a.54805.54805,0,0,1,.416.44825.76259.76259,0,0,1-.22388.41552c-2.81592,3.2959-6.39966,5.95166-11.32715,8.73584a1.817,1.817,0,0,0-.64014.67188c-.19189.35156-.3518.48-.67187.48-.448,0-.864-.28809-1.43994-.99219a2.84789,2.84789,0,0,1-.76783-1.56787,1.77431,1.77431,0,0,1,.09595-.54394,4.41128,4.41128,0,0,0,.15991-1.21583c.032-2.91162.032-6.11181,0-9.34326a4.67319,4.67319,0,0,0-.22387-2.08007,2.50573,2.50573,0,0,0-1.53589-1.0879c-.19214-.064-.32007-.12793-.32007-.28808,0-.31983.8-.60791,1.344-.60791A6.39707,6.39707,0,0,1,230.52832,6.94336Z"/><path class="cls-1" d="M252.42041,17.43848c-.63989,0-1.408-.70362-2.24-1.85547a3.26218,3.26218,0,0,1-.73584-1.66406c0-.416.064-.79981.28809-.79981.15991,0,.28784.15967.512.38379,1.11987,1.08789,1.56787,1.312,2.30371,1.312.67187,0,1.88794-.064,4.06372-.19189,4.35181-.25586,8.67139-.416,11.39111-.51221a4.17467,4.17467,0,0,0,1.95191-.38379,2.38425,2.38425,0,0,1,.99194-.22412,4.25186,4.25186,0,0,1,1.312.28809c1.50367.57617,1.6958.92773,1.6958,1.5039,0,.64014-.416.96-1.11987.96-1.21606,0-2.94385-.12793-4.51172-.12793-2.8479,0-8.51147.1919-12.70312.54395a6.69272,6.69272,0,0,0-2.20777.48A1.66477,1.66477,0,0,1,252.42041,17.43848Z"/><path class="cls-1" d="M280.03638,26.36621c0-.22412.19189-.38428.54394-.57617a33.59447,33.59447,0,0,0,9.50318-8.19141,39.94974,39.94974,0,0,0,4.9917-8.35156,1.82549,1.82549,0,0,0,.25585-.73584c0-.12793-.12793-.15967-.31982-.15967-.16016,0-.54394.03174-1.28.09571-3.16772.32031-7.45532.832-9.95117,1.21582a3.14949,3.14949,0,0,0-1.50391.44824,1.287,1.287,0,0,1-.832.25586c-.512,0-1.31177-.544-2.07983-1.59961a3.28305,3.28305,0,0,1-.86377-1.82422c0-.544.22388-.70361.3518-.70361.16016,0,.384.25586.6399.51171a2.91447,2.91447,0,0,0,2.30395,1.12012c.76782,0,1.56787-.03222,2.78369-.12793,3.23194-.28808,6.49561-.57617,9.63135-.896a1.89647,1.89647,0,0,0,1.1521-.38428,1.387,1.387,0,0,1,.76782-.44776,2.89931,2.89931,0,0,1,1.75977.96c.76807.67187,1.21606,1.18359,1.21606,1.72753,0,.38428-.352.57618-.73608.73633a2.11973,2.11973,0,0,0-1.05591,1.05567,41.43766,41.43766,0,0,1-5.50342,8.35156,28.581,28.581,0,0,1-10.62329,7.77539,2.11648,2.11648,0,0,1-.7041.19189A.4817.4817,0,0,1,280.03638,26.36621ZM304.22656,3.96777a2.91187,2.91187,0,1,1-2.91186-2.91211A2.92254,2.92254,0,0,1,304.22656,3.96777Zm-4.7998,0a1.88794,1.88794,0,1,0,1.88794-1.88769A1.8712,1.8712,0,0,0,299.42676,3.96777Z"/><path class="cls-1" d="M325.9165,9.21533A21.85786,21.85786,0,0,0,334.044,12.6709c.16015.03222.09619.35205-.064.38428-.928.22363-1.376.76757-1.72778,1.856-.12793.35157-.28809.47949-.512.47949a4.783,4.783,0,0,1-1.312-.47949,29.82908,29.82908,0,0,1-5.37549-3.77588,28.24325,28.24325,0,0,1-6.27148-8.1914,28.89823,28.89823,0,0,1-14.84717,12.79883c-.22387.09619-.38379-.416-.19189-.51172a33.9667,33.9667,0,0,0,11.0393-10.59131A15.78208,15.78208,0,0,0,316.79736.31982C320.093,1.24805,320.541,1.43994,320.541,1.792c0,.25586-.25611.38379-1.21582.63965A22.67252,22.67252,0,0,0,325.9165,9.21533Zm2.55982,18.39844c1.47192-1.72754,1.696-1.85547,1.88794-1.85547.22412,0,.416.12793,1.91992,1.37549.63989.57617.7998.80029.7998.99219s-.12793.28808-.41577.28808H306.718a13.2367,13.2367,0,0,0-2.23975.1919l-.32007-1.21582a11.94665,11.94665,0,0,0,2.52784.22363h3.71167V18.59082a28.55992,28.55992,0,0,0-.1919-3.96777c3.16773.31982,3.51978.60791,3.51978.96,0,.25586-.22413.51172-1.05591.86377v11.167h5.11963V14.1748a34.72937,34.72937,0,0,0-.19214-4.79931c3.2959.35156,3.67969.60791,3.67969.9917,0,.28808-.25586.5122-1.11988.896v6.62354h4.7356c1.28-1.66406,1.5039-1.82373,1.696-1.82373.22388,0,.416.15967,1.79175,1.34375.60791.54394.76807.76806.76807.96,0,.22412-.096.31982-.416.31982H320.157v8.92725Z"/><path class="cls-1" d="M353.16187,20.35059A19.65689,19.65689,0,0,0,358.5376,24.062a25.66811,25.66811,0,0,0,8.22339,2.08008c.15991,0,.12793.28809-.032.35205-.896.28809-1.1521.51172-1.76,1.792-.12793.25586-.28784.416-.512.416a6.071,6.071,0,0,1-1.344-.38428,22.30985,22.30985,0,0,1-5.88745-3.03955,21.37519,21.37519,0,0,1-4.54371-4.48c.064,1.792.12793,3.23193.15992,4.63965.032,1.82422.064,3.13574.064,3.584,0,.76807-.41577,1.05567-1.50366,1.05567-.7041,0-.99194-.2876-.99194-.896,0-.47949.064-1.53564.12793-3.29541.064-1.34424.09594-2.78369.15991-4.22363-3.10376,3.51953-7.45532,5.91943-12.927,7.19922-.22412.064-.384-.35205-.1919-.44776,4.54346-1.95215,8.5752-4.48,11.26319-8.06347h-8.22364a10.8162,10.8162,0,0,0-2.1438.19189l-.3518-1.21582a13.50233,13.50233,0,0,0,2.43164.22412h9.9834V16.57471h-6.59156a15.27888,15.27888,0,0,0-2.1438.22412l-.32006-1.248a13.71717,13.71717,0,0,0,2.43188.22412h6.62354V12.895h-8.31934a11.26427,11.26427,0,0,0-2.208.19189l-.31982-1.21582a14.05772,14.05772,0,0,0,2.46387.22412h11.519a17.33446,17.33446,0,0,0,1.408-2.75195,8.56037,8.56037,0,0,0,.60791-1.88769c2.1438.7998,3.03979,1.24755,3.03979,1.59961,0,.32031-.22412.44824-1.344.5122a24.683,24.683,0,0,1-2.75171,2.52783h5.95166c1.34375-1.47216,1.59985-1.60009,1.79175-1.60009s.448.12793,1.75976,1.18408c.60816.51172.73609.7041.73609.896,0,.22363-.09595.31982-.416.31982H352.80981V15.7749h5.91968c1.21582-1.376,1.43994-1.5039,1.63184-1.5039.22412,0,.448.12793,1.6958,1.11962.54394.416.67212.67237.67212.86426,0,.22412-.09595.31983-.416.31983h-9.50342v2.97607h8.92749c1.37574-1.53613,1.63184-1.69629,1.82374-1.69629.19213,0,.416.16016,1.824,1.24805.60791.48.76782.7041.76782.92822,0,.22363-.12793.31983-.41577.31983Zm4.15966-13.791a22.52712,22.52712,0,0,0,1.824-3.456,15.30911,15.30911,0,0,0,.73584-2.07959c2.43188,1.05615,3.10376,1.376,3.10376,1.728,0,.416-.28784.544-1.37573.544a21.18793,21.18793,0,0,1-3.35987,3.26367h4.15967c1.28-1.47217,1.50391-1.6001,1.6958-1.6001.22412,0,.448.12793,1.792,1.15186.60791.51221.76782.7041.76782.92822,0,.1919-.12792.31983-.41577.31983H340.36279a12.20138,12.20138,0,0,0-2.30371.19189L337.739,6.33545a15.10508,15.10508,0,0,0,2.55982.22412h7.4873V2.84766A14.73936,14.73936,0,0,0,347.6582.31982c3.00782.32032,3.35987.544,3.35987.896,0,.22412-.19214.416-1.02393.76807V6.55957h3.19971V2.84766a14.73936,14.73936,0,0,0-.12793-2.52784c3.00781.35206,3.35962.544,3.35962.896,0,.22412-.15992.416-1.02393.76807V6.55957ZM343.1145,4.9917a6.89577,6.89577,0,0,0-1.91968-3.35986c-.09619-.0962.032-.28809.15992-.25586,2.46386.57568,4.03173,1.91992,4.03173,3.26367a1.33552,1.33552,0,0,1-1.248,1.34375C343.59448,5.9834,343.33862,5.72754,343.1145,4.9917Zm3.7439,5.85547a5.899,5.899,0,0,0-1.56787-2.91162c-.09619-.09619.064-.25635.19189-.22412,2.23975.5122,3.64771,1.66406,3.64771,2.94384a1.279,1.279,0,0,1-1.27979,1.34375C347.3064,11.999,347.08228,11.74316,346.8584,10.84717Z"/><path class="cls-1" d="M376.686,20.19043c1.63183-.63965,3.23168-1.312,4.63964-1.98389.15992-.0957.416.22412.25586.352a40.93417,40.93417,0,0,1-9.05517,5.43946c-.09619,1.05615-.22412,1.34424-.60816,1.34424-.38379,0-.70385-.48-1.75976-3.2959a22.08879,22.08879,0,0,0,2.17578-.44776c.7041-.19238,1.408-.416,2.1438-.64013V12.479h-1.40772a15.44506,15.44506,0,0,0-1.88794.16016l-.32007-1.18408a10.91159,10.91159,0,0,0,2.176.22412h1.4397V4.15967h-1.75977a10.69156,10.69156,0,0,0-1.9519.16015l-.31983-1.18408a10.97959,10.97959,0,0,0,2.20777.22412h4.5437c1.11987-1.376,1.34375-1.5039,1.53589-1.5039.22387,0,.448.12793,1.6958,1.11963.512.416.67187.64013.67187.86425,0,.1919-.09594.31983-.41577.31983H376.686V11.6792h.7998c.928-1.21582,1.18408-1.376,1.376-1.376s.416.16016,1.5039,1.05616c.416.35156.57593.57568.57593.76757,0,.25635-.09595.352-.416.352H376.686Zm7.45532-4.03174c0,.73584-.448,1.02393-1.40772,1.02393-.7041,0-.96-.25586-.96-.92774,0-.76806.15991-3.04.15991-8.67138,0-3.07178-.032-4.15967-.19189-6.36768a25.08585,25.08585,0,0,1,2.62378,1.312h11.00708c.896-.99219,1.05591-1.12012,1.248-1.12012.22387,0,.416.12793,1.5039.96.512.44824.63989.60791.63989.80029,0,.2876-.19213.48-.99194.9917V7.16748c0,5.21582.12793,7.90332.12793,8.70313,0,.7041-.448,1.05615-1.408,1.05615-.67187,0-.92773-.25586-.92773-.896V15.231h-4.73584v5.21533h3.39184c1.43994-1.63184,1.66382-1.75977,1.856-1.75977.22388,0,.44775.12793,1.8877,1.312.64013.5122.76806.73584.76806.92773,0,.22412-.096.32031-.416.32031h-7.48755v5.85547h4.67163c1.53613-1.728,1.76-1.88769,1.98388-1.88769.22413,0,.448.15966,1.95191,1.37548.67212.544.8.76807.8.96,0,.22413-.096.35206-.416.35206H380.90967a12.92351,12.92351,0,0,0-2.17578.16015l-.32007-1.18408a13.20742,13.20742,0,0,0,2.43188.22412h7.74341V21.24658H383.8855a16.94294,16.94294,0,0,0-2.11182.15967l-.35205-1.18359a10.98871,10.98871,0,0,0,2.3999.22363h4.76758V15.231h-4.44775Zm0-12.831V8.41553h4.44775V3.32764Zm4.44775,11.10351V9.21533h-4.44775v5.21582ZM395.5647,3.32764h-4.73584V8.41553h4.73584Zm0,5.88769h-4.73584v5.21582h4.73584Z"/><path class="cls-1" d="M426.28149,7.93555A24.11845,24.11845,0,0,0,433.897,10.687c.15991.03223.12793.32031-.032.352-.832.12793-1.18384.44824-1.59985,1.66406-.12793.38379-.28809.544-.512.544a5.69167,5.69167,0,0,1-1.696-.60791,31.6416,31.6416,0,0,1-5.56738-3.584,26.81258,26.81258,0,0,1-5.6316-6.65528,30.25574,30.25574,0,0,1-14.84692,11.32715c-.22412.064-.384-.44824-.19214-.54394A32.281,32.281,0,0,0,414.92236,3.5835,14.23414,14.23414,0,0,0,416.93823,0c2.94385,1.08789,3.51978,1.34375,3.51978,1.6958,0,.22412-.28809.38428-.96.48A24.01453,24.01453,0,0,0,426.28149,7.93555ZM404.61914,26.46191c0-.73584.31982-1.08789,1.34375-1.59961a4.75924,4.75924,0,0,0,2.81592-4.31982c.032-.16016.384-.16016.416,0a11.17927,11.17927,0,0,1,.12793,1.6958c0,3.23193-1.5039,5.53565-3.32788,5.53565A1.29488,1.29488,0,0,1,404.61914,26.46191Zm19.1665-13.40673c.928-.99219,1.15186-1.12012,1.344-1.12012.22388,0,.448.12793,1.53589,1.05615.512.44775.60791.63965.60791.83154,0,.28809-.25586.51221-1.11988.76807a36.34917,36.34917,0,0,1-2.65576,4.44775,1.032,1.032,0,0,1-.896.48c-.73609,0-1.72779-.416-1.72779-.7998a1.20323,1.20323,0,0,1,.28785-.57617,22.79955,22.79955,0,0,0,2.71972-4.2876h-12.063a15.14889,15.14889,0,0,0-2.59179.16016l-.32007-1.21631a13.2528,13.2528,0,0,0,2.8479.25635Zm-9.24731,12.63916c0,1.18359.48,1.43945,3.87183,1.43945,2.91162,0,3.87158-.03174,4.67163-.41553.864-.416,1.15185-1.18408,1.88794-3.74414.032-.12793.31982-.03174.31982.09619-.032.832-.064,1.91992-.064,2.49561,0,.6084.032.7041.67187.96a.85144.85144,0,0,1,.48.832c0,.60791-.57593,1.12012-1.59985,1.376a28.10582,28.10582,0,0,1-6.55957.44775c-4.86353,0-5.95142-.60791-5.95142-3.42334,0-.44824.064-.96.064-2.87988a28.70421,28.70421,0,0,0-.12793-3.45606c3.10376.38428,3.3916.51221,3.3916.896,0,.25635-.15991.44824-1.05591.832Zm-1.50391-16.479a9.69291,9.69291,0,0,0,2.304.22412H420.01c1.05591-1.312,1.27978-1.43994,1.50391-1.43994.22387,0,.48.12793,1.6958,1.08789.512.416.67187.60791.67187.832,0,.1919-.096.31983-.41577.31983h-8.09546a11.84963,11.84963,0,0,0-2.01587.19189ZM419.146,22.43018a8.22308,8.22308,0,0,0-2.68775-3.45557c-.096-.064.064-.28809.1919-.25586,3.42382.86377,4.95971,2.20752,4.95971,3.67969,0,.92773-.48,1.53564-1.248,1.53564C419.75391,23.93408,419.49805,23.67822,419.146,22.43018ZM429.44922,25.854a9.9506,9.9506,0,0,0-2.62378-5.15136c-.096-.12793.12793-.32032.2561-.25635,3.13575,1.53613,5.02344,3.68017,5.02344,5.50391,0,1.02392-.41577,1.75976-1.37573,1.75976C430.02515,27.71,429.70532,27.26221,429.44922,25.854Z"/><path class="cls-1" d="M295.22021,121.71436h-31.9978v-1.27979h31.9978Z"/><path class="cls-1" d="M10.43774,239.32617a49.25736,49.25736,0,0,1-9.72729,5.376c-.32007.12793-.832-.57617-.57593-.76807A56.77306,56.77306,0,0,0,18.949,220.83154H6.53394a16.50227,16.50227,0,0,0-4.03174.51221l-.70386-2.56006a23.01639,23.01639,0,0,0,4.7356.51221h3.77563v-7.80762a36.96231,36.96231,0,0,0-.38379-5.56738c7.42334.76758,8.25537,1.47168,8.25537,2.17578,0,.57568-.7041,1.15186-2.04785,1.792v9.40723H18.885c1.91992-2.11182,2.43188-2.4961,2.94385-2.4961.63989,0,1.08789.38428,3.26367,2.624.96,1.02392,1.344,1.53564,1.344,2.04785,0,.64014-.448,1.02393-2.04785,1.59961A43.69607,43.69607,0,0,1,16.3252,234.335c6.84765,1.72754,10.43139,4.35156,10.43139,7.74316a3.19618,3.19618,0,0,1-3.136,3.19971c-1.47168,0-2.11182-.63965-2.87964-2.6875a16.67045,16.67045,0,0,0-4.47974-6.97558v7.29541c0,9.85546.2561,17.2788.2561,19.26269,0,1.79151-1.02392,2.6875-4.03173,2.6875-1.728,0-2.36792-.70361-2.36792-2.43164,0-1.02392.32006-4.73584.32006-14.0791ZM42.8833,259.74072h6.46362c3.45581-4.41552,4.22364-4.92724,4.67163-4.92724.57593,0,1.21583.51172,4.54371,3.3916,1.53588,1.34375,2.04785,1.91992,2.04785,2.36767,0,.44825-.19214.64014-.832.64014H25.98853a43.105,43.105,0,0,0-5.31153.38379l-.7041-2.36768a32.81554,32.81554,0,0,0,5.69556.51172H36.54785V231.0708H29.18823a28.53532,28.53532,0,0,0-4.2876.38428l-.70385-2.36817a23.01465,23.01465,0,0,0,4.73559.51221h7.61548V215.648a81.4513,81.4513,0,0,0-.384-9.0874c8.25537.76806,9.02344,1.4082,9.02344,2.17578q0,.96019-2.304,1.91992v18.94287h5.69556c3.32788-3.90381,4.0957-4.41553,4.5437-4.41553.57593,0,1.21582.51172,4.22363,3.07178,1.28,1.15186,1.792,1.72754,1.792,2.17578,0,.44776-.19189.63965-.832.63965H42.8833Z"/><path class="cls-1" d="M89.43823,258.58887c-6.27148,3.13574-11.967,4.54394-20.99048,5.63183-.32006.064-.512-.64013-.19189-.76806a69.47138,69.47138,0,0,0,12.73486-6.39942,17.97267,17.97267,0,0,0,4.35181-4.03174c5.75952,2.75147,7.48755,3.7754,7.48755,4.4795S92.126,258.7168,89.43823,258.58887Zm-8.06347-6.84766c0,1.792-1.08789,2.624-3.58374,2.624-1.98389,0-2.81568-.64013-2.81568-2.11181,0-2.56006.31983-5.95166.31983-16.31885,0-4.03174-.064-8.70312-.31983-12.79883a54.48812,54.48812,0,0,1,7.03931,3.3916h28.86206c2.23975-2.36767,2.75171-2.752,3.26367-2.752.63989,0,1.21607.38428,3.71167,2.17578,1.1521.896,1.53589,1.34424,1.53589,1.856,0,.64014-.448,1.02392-1.91968,1.98389v4.03173c0,9.02344.25586,15.61475.25586,17.6626,0,1.728-1.08789,2.56006-3.58374,2.56006-1.98389,0-2.68774-.57617-2.68774-2.23975v-.19238H81.37476Zm3.00781-30.65332c-.064,1.7915-1.21582,2.36768-3.45581,2.36768-1.47193,0-2.62378-.38428-2.62378-1.792,0-1.27978.064-4.03173.064-7.87158,0-2.81543,0-3.90332-.19189-6.71924a69.62619,69.62619,0,0,1,6.91138,3.26368h23.03833c2.304-2.49561,2.81591-2.87989,3.32788-2.87989.63989,0,1.15185.38428,3.58374,2.3042,1.08789.89551,1.47192,1.34375,1.47192,1.85547,0,.57617-.32007.832-1.856,1.728v1.21582c0,3.07178.1919,5.43994.1919,6.33545,0,1.728-1.21582,2.43213-3.5835,2.43213-1.91992,0-2.688-.64014-2.688-2.23975Zm27.07007,6.91113H81.37476v6.27149h30.07788Zm-30.07788,14.0791h30.07788v-6.33544H81.37476Zm0,8.06348h30.07788v-6.5918H81.37476Zm27.198-38.333H84.38257v7.80713h24.19018Zm9.66333,52.85987c-1.27978,0-1.91992-.38379-3.51977-1.98389a31.71079,31.71079,0,0,0-13.5669-7.93555c-.32006-.12793-.064-.70361.25586-.70361,14.207.57568,19.83863,2.87988,19.83863,7.29541A3.01684,3.01684,0,0,1,118.23608,264.66846Z"/><path class="cls-1" d="M157.27124,223.32764a26.0761,26.0761,0,0,1-1.40771,6.7832,45.96813,45.96813,0,0,1-4.03174,9.21533c-1.98389,3.71192-4.5437,7.99951-7.10352,10.6875a7.03005,7.03005,0,0,1-5.31177,2.62354,6.49222,6.49222,0,0,1-4.86352-2.49561c-2.304-2.56006-3.51978-5.82373-3.51978-11.647a19.982,19.982,0,0,1,2.752-9.72754,24.73877,24.73877,0,0,1,8.63916-8.95947,28.67714,28.67714,0,0,1,15.48706-4.15967c6.97534,0,11.967,1.91992,15.87085,4.9917,4.67163,3.77588,7.4873,8.89551,7.4873,16.25488a17.38808,17.38808,0,0,1-5.88745,13.18311,27.91537,27.91537,0,0,1-9.47144,5.69531,45.52956,45.52956,0,0,1-13.11889,2.43213c-.96,0-1.408-.12793-1.408-.64014,0-.51172.384-.63965,1.21582-.832,7.55151-1.66357,12.60718-4.54346,16.44678-8.3833,3.96777-4.0957,5.75976-8.12744,5.75976-14.84668,0-4.54395-1.47192-9.15137-5.63159-12.03125a20.189,20.189,0,0,0-10.23926-3.45557,28.70041,28.70041,0,0,0-4.03174.064A8.7881,8.7881,0,0,1,157.27124,223.32764Zm-15.55078.25586a19.486,19.486,0,0,0-5.4397,7.87158,16.65887,16.65887,0,0,0-1.08789,6.07959,12.71776,12.71776,0,0,0,1.59985,6.91113,4.12612,4.12612,0,0,0,2.81592,2.11182c1.02393,0,1.98389-.63965,4.41577-4.09571a77.71637,77.71637,0,0,0,8.5752-15.67871,14.84854,14.84854,0,0,0,1.344-5.43945,3.21951,3.21951,0,0,0-1.15185-2.87988A21.54666,21.54666,0,0,0,141.72046,223.5835Z"/><path class="cls-1" d="M222.09033,225.56738h16.19092c3.07178-3.648,3.83984-4.15967,4.2876-4.15967.57617,0,1.344.51172,4.47973,2.94385,1.408,1.08789,1.91993,1.59961,1.91993,2.04785,0,.44776-.1919.63965-.832.63965H195.6604a22.7906,22.7906,0,0,0-3.83984.38428l-.70386-2.36816a19.88218,19.88218,0,0,0,4.41577.5122h20.22241V216.48h-15.167a21.48228,21.48228,0,0,0-3.71167.38379l-.70386-2.36768a19.90891,19.90891,0,0,0,4.41553.51221h15.167v-3.64795a50.515,50.515,0,0,0-.31982-5.63135c8.1272.70362,8.89526,1.40772,8.89526,2.11182,0,.63965-.70386,1.21582-2.24,1.72754v5.43994h11.77539c2.94361-3.52,3.71167-4.03174,4.15967-4.03174.57593,0,1.27979.51172,4.35156,2.81543,1.344,1.08789,1.856,1.6001,1.856,2.04785,0,.44825-.19214.64014-.832.64014H222.09033Zm-.064,23.67823h12.67114c3.00781-3.648,3.77563-4.15967,4.22363-4.15967.57593,0,1.344.51172,4.47974,2.87988,1.47192,1.15186,1.98389,1.66357,1.98389,2.11182,0,.44775-.1919.64013-.832.64013H222.02637c.12817,4.79932.32007,9.727.32007,11.647,0,1.728-1.408,2.55957-4.03174,2.55957-1.91992,0-2.75171-.44776-2.75171-2.11182,0-1.21582.19189-4.9917.25586-12.09473H199.62817a22.83349,22.83349,0,0,0-3.83984.38379l-.70386-2.36767a19.9052,19.9052,0,0,0,4.41553.51172h16.31885v-9.34327H196.62036a28.59514,28.59514,0,0,0-4.28784.38379l-.70386-2.36767a26.55908,26.55908,0,0,0,5.11963.5122h26.686a50.37125,50.37125,0,0,0,2.24-6.07959,37.944,37.944,0,0,0,1.15185-5.11962c5.88745,1.72753,7.9353,2.6875,7.9353,3.64746,0,.832-.512,1.08789-2.55981,1.21582a44.98961,44.98961,0,0,1-6.46338,6.33593h11.135c3.39185-3.96777,4.15991-4.48,4.60767-4.48.57617,0,1.28.51221,4.47973,3.13575,1.408,1.15185,1.91993,1.728,1.91993,2.17578,0,.44824-.19214.64013-.832.64013H222.02637Zm-12.095-11.26319c-1.792,0-2.304-.7041-2.94385-3.77588a18.24935,18.24935,0,0,0-2.75171-6.27148c-.19214-.25586.19189-.57568.512-.51172,6.27149,1.856,8.51123,3.71143,8.51123,6.97559A3.33257,3.33257,0,0,1,209.9314,237.98242Z"/><path class="cls-1" d="M300.64307,221.40771a13.586,13.586,0,0,0,4.47973,2.30372c1.72779.31982,3.64771.38427,5.24756.7041,1.53589.31982,3.00781.51172,3.00781,2.87988,0,1.7915-1.66381,2.36768-3.00781,2.36768-1.21582,0-2.43188-.1919-4.22363-.38379a19.3557,19.3557,0,0,0-3.32788-.06446c-2.11182.06446-4.09571.32032-6.20752.57618-.12793,5.50341-.064,10.43115-.512,12.479a8.54593,8.54593,0,0,1-3.00782,5.05566,5.81563,5.81563,0,0,1-3.00757.96,2.36844,2.36844,0,0,1-2.24-1.728c-.512-1.59961-1.53588-2.11182-4.5437-4.09571-.512-.31982-.83178-.51171-.83178-.8955,0-.32032.25586-.38428.57592-.38428a8.64152,8.64152,0,0,1,1.15186.19189,26.9994,26.9994,0,0,0,5.18359.7041c1.59986,0,1.66382-.31982,1.91992-1.27978.57593-2.04785.6399-4.03174.70386-9.9834a114.87118,114.87118,0,0,0-14.52685,3.96777c-.064,3.90381-.19214,8.38331-.19214,10.43116,0,3.1997.12817,5.63183,1.02392,6.71972,1.08814,1.34375,2.752,2.17579,7.55152,2.17579a42.09542,42.09542,0,0,0,9.47143-.96,10.6448,10.6448,0,0,1,3.3916-.76806,10.92967,10.92967,0,0,1,3.64795.5122c1.27979.44776,2.23975,1.15186,2.23975,2.55957,0,1.91993-1.08789,2.624-3.51978,3.07178a70.79276,70.79276,0,0,1-11.71118.64014,33.47363,33.47363,0,0,1-10.49511-1.6001,9.15172,9.15172,0,0,1-4.54371-4.0957c-.96-1.792-1.344-4.2876-1.408-7.93555-.064-3.19971,0-6.07959-.064-9.023-5.37573,2.23975-6.97559,3.00781-7.74341,3.83936a2.45259,2.45259,0,0,1-2.11181,1.08789c-1.344,0-3.58374-1.34375-4.79981-2.36768-1.59985-1.34375-2.68774-2.81592-2.68774-4.0957,0-1.02393.32007-1.53565.70385-1.53565.32007,0,.448.1919,1.08814.70362A11.97611,11.97611,0,0,0,258.79,235.1665a4.01618,4.01618,0,0,0,1.91992.51221,9.396,9.396,0,0,0,2.11182-.32031c3.13574-.89551,6.78369-1.85547,10.11133-2.8794,0-1.856-.064-3.77588-.12793-5.56787-.064-2.30371-.12793-3.45556-.512-4.35156-.512-1.21582-1.408-1.66406-2.94384-1.98389-.76783-.12793-.896-.25586-.896-.51172a1.01355,1.01355,0,0,1,.512-.832,6.93362,6.93362,0,0,1,3.19971-.96c1.6001,0,3.584.896,5.56763,2.75147a3.68122,3.68122,0,0,1,1.53588,2.688,1.99143,1.99143,0,0,1-.44775,1.34375,2.05821,2.05821,0,0,0-.64014,1.34423c-.064.76758-.12793,1.98389-.25586,4.54346,4.7356-1.34375,9.59913-2.43164,14.207-3.58349v-4.86377c0-3.648,0-5.50342-.12818-7.48731a2.20213,2.20213,0,0,0-1.47192-2.17627,14.89279,14.89279,0,0,0-2.62378-.70361c-.31983-.064-.448-.44824-.448-.7041s.448-.76807,1.1521-1.21582a4.6322,4.6322,0,0,1,2.55982-.70411,10.44665,10.44665,0,0,1,6.33544,3.07178,2.52,2.52,0,0,1,.832,1.91992,3.71907,3.71907,0,0,1-.70411,1.98389,8.97594,8.97594,0,0,0-.63989,3.90381c-.064,2.17578-.12793,4.03174-.19189,5.88769,1.98364-.38427,4.03149-.76806,5.24756-1.02392-.448-.64014-1.72779-2.3042-2.36792-3.13574-.38379-.51221-.512-.64014-.512-.832,0-.25635.12818-.38428.32007-.38428A3.04762,3.04762,0,0,1,300.64307,221.40771Z"/><path class="cls-1" d="M348.66968,223.32764a26.07577,26.07577,0,0,1-1.40772,6.7832,45.967,45.967,0,0,1-4.03174,9.21533c-1.98388,3.71192-4.5437,7.99951-7.10351,10.6875a7.03005,7.03005,0,0,1-5.31177,2.62354,6.49222,6.49222,0,0,1-4.86352-2.49561c-2.304-2.56006-3.51978-5.82373-3.51978-11.647a19.98206,19.98206,0,0,1,2.75195-9.72754,24.73885,24.73885,0,0,1,8.63916-8.95947,28.67716,28.67716,0,0,1,15.48706-4.15967c6.97535,0,11.967,1.91992,15.87085,4.9917,4.67163,3.77588,7.48731,8.89551,7.48731,16.25488a17.38811,17.38811,0,0,1-5.88745,13.18311,27.91546,27.91546,0,0,1-9.47144,5.69531,45.52956,45.52956,0,0,1-13.11889,2.43213c-.96,0-1.408-.12793-1.408-.64014,0-.51172.384-.63965,1.21582-.832,7.55151-1.66357,12.60717-4.54346,16.44677-8.3833,3.96778-4.0957,5.75977-8.12744,5.75977-14.84668,0-4.54395-1.47192-9.15137-5.63159-12.03125a20.189,20.189,0,0,0-10.23926-3.45557,28.70041,28.70041,0,0,0-4.03174.064A8.7881,8.7881,0,0,1,348.66968,223.32764Zm-15.55078.25586a19.48589,19.48589,0,0,0-5.4397,7.87158,16.65887,16.65887,0,0,0-1.08789,6.07959,12.71776,12.71776,0,0,0,1.59985,6.91113,4.1261,4.1261,0,0,0,2.81592,2.11182c1.02393,0,1.98389-.63965,4.41577-4.09571a77.71637,77.71637,0,0,0,8.5752-15.67871,14.84874,14.84874,0,0,0,1.344-5.43945,3.21954,3.21954,0,0,0-1.15185-2.87988A21.54662,21.54662,0,0,0,333.1189,223.5835Z"/><path class="cls-1" d="M409.93042,218.3999a5.63851,5.63851,0,0,1,2.87964.57569,2.14855,2.14855,0,0,1,1.408,1.91992c0,.96-.6399,1.792-1.98389,2.3042a110.77064,110.77064,0,0,1-10.623,3.26367c-1.02392,2.6875-3.07177,8.44726-4.47973,12.28711-1.53589,4.15967-3.77588,9.91943-7.16748,18.55859-.96,2.43164-2.11182,3.26367-3.71167,3.26367a3.084,3.084,0,0,1-1.856-.96,2.84475,2.84475,0,0,1-.70386-2.30371c0-1.15185.6399-2.36767,1.72779-4.47949a225.64727,225.64727,0,0,0,11.39111-25.53418,39.76477,39.76477,0,0,1-6.97534.896c-2.81592,0-4.22388-.44825-6.14356-2.4961a6.07679,6.07679,0,0,1-1.728-3.32763c0-.38428.12793-.57618.32006-.57618.384,0,.6399.25635,1.08789.57618a7.81492,7.81492,0,0,0,5.24756,1.66357,40.9529,40.9529,0,0,0,9.79126-1.53564c1.408-4.73584,1.98389-7.35938,1.98389-8.38331a2.221,2.221,0,0,0-1.34375-2.23974,14.68832,14.68832,0,0,0-2.36792-.76807c-.448-.12793-.70386-.25586-.70386-.5122,0-.38379.1919-.70362.89575-1.0879a6.4793,6.4793,0,0,1,3.00782-.76806,12.23354,12.23354,0,0,1,6.59155,2.56006,2.4117,2.4117,0,0,1,.96,1.792,3.16423,3.16423,0,0,1-.896,1.91992c-1.15185,1.15186-1.59985,2.36768-3.07177,6.27149a14.83763,14.83763,0,0,0,3.90381-1.856A5.49087,5.49087,0,0,1,409.93042,218.3999Zm-1.21606,26.686a12.04407,12.04407,0,0,0-.57593,3.90381c0,3.45556,3.00781,6.07959,9.72729,6.07959a25.76535,25.76535,0,0,0,6.46363-.51221,9.48687,9.48687,0,0,1,3.32788-.44775,7.90663,7.90663,0,0,1,3.1997.832,3.01664,3.01664,0,0,1,1.59986,2.6875c0,1.66406-1.53589,2.43213-3.45581,2.75195a50.02142,50.02142,0,0,1-7.03955.31982,32.32608,32.32608,0,0,1-8.51123-1.08789c-4.9917-1.40771-7.67945-4.9917-7.67945-9.0874a11.68588,11.68588,0,0,1,1.79175-6.20752c.32007-.57568.832-1.08789,1.15186-1.08789.32006,0,.384.1919.384.51221A7.355,7.355,0,0,1,408.71436,245.08594Zm6.78369-13.5669a22.2072,22.2072,0,0,0-7.29541,2.49561.89429.89429,0,0,1-.57618.19189.509.509,0,0,1-.57592-.57568,1.53446,1.53446,0,0,1,.448-.832,21.93867,21.93867,0,0,1,5.88769-3.90381,22.3961,22.3961,0,0,1,8.12744-1.53564,18.011,18.011,0,0,1,7.10327,1.40771,3.25336,3.25336,0,0,1,2.176,3.13574,2.05148,2.05148,0,0,1-2.24,1.91992,11.12538,11.12538,0,0,1-2.49585-.31982,14.77535,14.77535,0,0,0-2.36768-.19238c-1.59985,0-4.41577,1.02441-9.02343,3.64795a1.44669,1.44669,0,0,1-.96.31982c-.31982,0-.25585-.25586-.25585-.44775.064-.44776,3.13574-2.752,6.14355-5.37549A17.76413,17.76413,0,0,0,415.49805,231.519Z"/><path class="cls-1" d="M484.10522,227.03906a15.55184,15.55184,0,0,1,5.8877,6.14356,14.67962,14.67962,0,0,1,1.66382,7.23144,15.58376,15.58376,0,0,1-5.63159,11.83936,28.07443,28.07443,0,0,1-11.64722,5.75976,58.96831,58.96831,0,0,1-10.17529,1.59961c-.57593,0-1.08789-.25586-1.08789-.63965,0-.44824.384-.57617,1.15185-.76806,6.20752-1.53613,10.68726-3.19971,14.271-6.01563a16.7487,16.7487,0,0,0,6.65552-13.05517c0-4.03174-.6399-6.65528-3.51978-9.53516a12.85544,12.85544,0,0,0-8.76733-3.32764A147.7598,147.7598,0,0,1,462.09082,243.166c.32007.44824.7041.96,1.15186,1.47216,1.28,1.40772,1.53588,2.30371,1.53588,3.13575,0,1.34375-.76782,2.4956-1.79174,2.4956-1.28,0-2.17578-.51172-4.35181-3.13574a45.36332,45.36332,0,0,1-3.96753,3.96777,18.197,18.197,0,0,1-2.94385,2.11182,6.79951,6.79951,0,0,1-3.45581.896,4.92488,4.92488,0,0,1-4.03174-2.04786,10.23167,10.23167,0,0,1-1.53588-5.63183c0-5.95117,3.00781-11.19922,8.83154-16.12647-.19214-.896-.384-1.856-.76807-3.71191s-.57593-2.688-.896-3.77588a10.753,10.753,0,0,0-3.26368-5.11963c-.448-.38379-.63989-.44775-.63989-.76807,0-.38378.25586-.51171.57593-.51171a13.99279,13.99279,0,0,1,5.24756,2.36767c2.04785,1.53613,3.07177,2.94385,3.32763,4.73584.19214,1.27979.12818,1.856.384,4.15967a38.55052,38.55052,0,0,1,13.375-4.03174,21.92925,21.92925,0,0,0,1.1521-2.81592,15.21853,15.21853,0,0,0,1.02392-4.54345.95042.95042,0,0,0-.57617-1.02393,8.56314,8.56314,0,0,0-3.19971-.64014c-.57592,0-.83178-.31982-.83178-.57568q0-.28784.57592-.76807a5.248,5.248,0,0,1,3.13575-1.27978c2.11181,0,4.41552,1.15185,6.33545,2.36767a2.99193,2.99193,0,0,1,1.59985,2.624,2.88438,2.88438,0,0,1-1.02393,2.11181,30.728,30.728,0,0,0-2.81567,4.79932A18.95,18.95,0,0,1,484.10522,227.03906ZM447.116,244.18994a7.83276,7.83276,0,0,0,.57592,3.584,1.60136,1.60136,0,0,0,1.53589,1.02392c1.59986,0,4.03174-1.6001,7.16748-5.11963A45.104,45.104,0,0,1,452.2356,233.439C448.77979,236.89453,447.116,240.79834,447.116,244.18994Zm12.79907-4.60742a74.2558,74.2558,0,0,0,7.80737-13.18311,25.02721,25.02721,0,0,0-11.58325,4.22364A27.93537,27.93537,0,0,0,459.915,239.58252Z"/><path class="cls-1" d="M512.93335,249.4375a14.27055,14.27055,0,0,0-.384,3.584c0,1.34375.384,3.00782.384,3.64747.064,1.792-.384,2.87988-1.792,2.87988-1.85572,0-2.43189-.63965-4.15967-3.96778-1.27979-2.4956-2.11182-7.29541-2.11182-11.96679,0-5.43994,1.08789-11.07129,2.75171-17.98291a38.90345,38.90345,0,0,0,1.28-6.52735,8.52863,8.52863,0,0,0-1.66382-5.05566.97744.97744,0,0,1-.2561-.64014c0-.19189.32007-.51172.896-.51172a6.1666,6.1666,0,0,1,3.07177,1.59961,14.21334,14.21334,0,0,1,2.94385,3.83985,6.93687,6.93687,0,0,1,1.08789,3.51953,3.35432,3.35432,0,0,1-.896,2.3042,13.54278,13.54278,0,0,0-1.98389,3.51953c-1.408,3.26367-3.26367,9.02344-3.26367,13.69482,0,3.83985.19189,5.56787.70385,6.46387a.26669.26669,0,0,0,.512,0c1.98388-3.77588,3.96777-8.06348,5.75952-11.77539.2561-.57568.57617-.76807.896-.76807.32007,0,.6399.38428.32007,1.34424C515.36523,241.69434,513.63721,246.62207,512.93335,249.4375Zm10.17529-7.55127a10.18279,10.18279,0,0,0,.76782,4.0957c1.0879,2.55957,4.09571,4.73584,10.94336,4.73584a38.41831,38.41831,0,0,0,8.31934-.57617,7.25519,7.25519,0,0,1,2.62378-.7041,10.327,10.327,0,0,1,3.71167,1.02393,2.68886,2.68886,0,0,1,1.728,2.43212,2.62723,2.62723,0,0,1-1.98389,2.49561c-1.408.51221-4.5437,1.08789-10.75122,1.08789-10.8794,0-17.21484-4.47949-17.21484-12.35107a14.684,14.684,0,0,1,1.59985-6.97559c.32007-.57568.448-.70361.7041-.70361.25586,0,.38379.25586.38379.63965A22.16091,22.16091,0,0,0,523.10864,241.88623Zm1.72779-17.21484a5.30586,5.30586,0,0,1-1.344.5122c-.512,0-.57593-.19238-.57593-.57617q0-.38379.76807-.96a30.58638,30.58638,0,0,1,7.99927-4.22363,23.84628,23.84628,0,0,1,8.25561-1.34375c5.82349,0,7.61524,2.04785,7.61524,3.77539,0,1.792-1.15186,2.36816-3.90357,2.36816-.832,0-2.176-.19238-3.00781-.19238a16.07519,16.07519,0,0,0-3.77563.44824c-1.856.51172-3.45581,1.21582-7.48755,4.54346a1.23805,1.23805,0,0,1-.832.38428.40461.40461,0,0,1-.448-.44825c0-.19189.064-.38378.448-.832,1.02392-1.27978,2.43188-2.6875,4.41577-4.99121A19.38543,19.38543,0,0,0,524.83643,224.67139Z"/><path class="cls-1" d="M31.7417,364.6792c.064,2.87988.12793,5.50342.12793,7.74365a5.852,5.852,0,0,1-1.15186,3.5835c-1.08789,1.53613-3.07177,2.30371-5.88769,2.30371-1.15186,0-1.21582-.064-1.53589-1.79151-.38379-2.11181-2.04785-3.32812-7.55127-4.67187-.32007-.064-.32007-.896,0-.896,3.13574.1919,6.39941.38428,9.15112.38428.64014,0,.832-.32031.832-.96v-5.6958H10.94312a23.32129,23.32129,0,0,0-4.35157.44775l-.7041-2.36767a28.57174,28.57174,0,0,0,4.86377.44824H25.72607v-5.6958H6.01562a43.10522,43.10522,0,0,0-5.31176.38379L0,355.52783a32.77091,32.77091,0,0,0,5.69556.51221H25.72607v-5.56787H11.64722a23.71362,23.71362,0,0,0-4.86377.51221l-.70386-2.4961a28.36739,28.36739,0,0,0,5.31152.51221h14.335V343.625H14.271v.38379c0,1.40771-1.15186,2.11182-3.26392,2.11182-1.79175,0-2.62378-.57618-2.62378-1.856,0-1.02393.19214-2.94385.19214-7.29541,0-2.23975,0-3.71192-.19214-6.01563a35.94656,35.94656,0,0,1,6.46362,2.81592H25.72607V328.522H7.74341a35.74131,35.74131,0,0,0-5.4397.44776l-.70386-2.43164a33.49353,33.49353,0,0,0,5.75953.51171H25.72607v-1.08789a54.66325,54.66325,0,0,0-.31982-6.84716c8.19141,1.15185,8.19141,1.15185,8.19141,2.23974,0,.63965-.448.96-1.98389,1.53565v4.15966H46.78052c3.13574-3.45556,3.90381-3.96777,4.3518-3.96777.57593,0,1.27979.51221,4.09571,2.81592,1.27978,1.02393,1.79175,1.53613,1.79175,1.98389,0,.44824-.1919.64013-.83179.64013H31.61377v5.24756H42.55688c2.11182-2.36767,2.62378-2.75195,3.13575-2.75195.63989,0,1.15185.38428,3.32788,2.17578.96.832,1.34375,1.28027,1.34375,1.792,0,.57617-.1919.76807-1.53589,1.66406v1.15186c0,3.00781.12817,5.11963.12817,5.75928,0,1.47216-1.28,2.17627-3.584,2.17627-1.59985,0-2.36768-.51221-2.36768-1.728V343.625H31.61377v5.37549h12.095c2.11182-2.23975,2.62378-2.624,3.13574-2.624.64014,0,1.21607.38428,3.51978,2.04786,1.08789.832,1.47192,1.27978,1.47192,1.792,0,.44775-.19189.64014-1.79175,1.728V356.04h1.02393c1.91968-2.87988,2.68774-3.39209,3.13574-3.39209.57593,0,1.27979.51221,3.58374,2.43213.96.76758,1.47193,1.34375,1.47193,1.7915,0,.44824-.19214.64014-.832.64014h-8.3833c.064,4.41553.25586,7.4873.25586,8.63965,0,1.85547-1.34375,2.55957-3.90381,2.55957-1.59985,0-2.36767-.64014-2.36767-2.04785V364.6792Zm-6.01563-29.438H14.271v6.91162H25.72607Zm17.27881,6.91162v-6.91162H31.61377v6.91162ZM44.02881,356.04v-5.56787h-12.415V356.04Zm0,7.16748v-5.6958h-12.415c0,1.47168.064,3.00781.12793,5.6958Z"/><path class="cls-1" d="M98.27612,359.17578a39.34417,39.34417,0,0,0,10.4314,6.27149,53.15381,53.15381,0,0,0,16.83057,3.71142c.32006,0,.32006.57617,0,.7041-2.36768.896-2.94361,1.40772-4.67163,5.31153a1.04553,1.04553,0,0,1-.96.7041,12.11326,12.11326,0,0,1-3.00756-.96,47.14593,47.14593,0,0,1-11.26319-6.20752,39.64456,39.64456,0,0,1-8.1914-8.44727c.19189,8.19141.38378,14.207.38378,15.93457,0,1.728-1.02392,2.43213-3.77563,2.43213-1.72778,0-2.49585-.7041-2.49585-2.11182,0-1.53613.32007-7.74365.448-13.375-5.4397,6.01514-14.14307,10.687-25.34229,12.99073-.31982.064-.63989-.44776-.31982-.57569,9.53516-4.48,16.31885-9.66357,21.3103-16.38281H72.55005a30.94925,30.94925,0,0,0-4.47974.38379l-.70385-2.36768a24.76874,24.76874,0,0,0,4.92749.51172H91.8125V351.752h-12.543a31.76334,31.76334,0,0,0-4.5437.38428l-.70386-2.36768a25.95236,25.95236,0,0,0,5.05567.51172H91.8125v-5.82373H75.94189a32.5108,32.5108,0,0,0-4.60791.38428l-.70385-2.36816a26.521,26.521,0,0,0,5.11963.5122H86.24512c-.832-.25586-1.28-1.08789-1.792-2.94384a12.178,12.178,0,0,0-3.1997-5.50342c-.25611-.19239.064-.57617.384-.51221,5.75952.896,8.70337,2.87988,8.70337,5.82373a3.2697,3.2697,0,0,1-2.24,3.13574H98.40405a42.44947,42.44947,0,0,0,2.688-5.50341,29.0943,29.0943,0,0,0,1.27979-4.03174c5.18359,1.98388,7.29541,3.00732,7.29541,3.77539s-.448.96-2.81568,1.08789a38.25584,38.25584,0,0,1-6.27148,4.67187h10.623c3.00782-3.32763,3.77588-3.83984,4.22388-3.83984.57593,0,1.27979.51221,4.09571,2.688,1.21582,1.02392,1.72778,1.53564,1.72778,1.98388,0,.44776-.1919.63965-.832.63965H97.57227v5.82373h9.98315c2.752-3.07177,3.51978-3.584,3.96777-3.584.57593,0,1.28.51221,3.71167,2.49609,1.08789.896,1.59986,1.47168,1.59986,1.91992,0,.44776-.1919.63965-.83179.63965H97.57227v5.95166h15.87085c3.26367-3.64746,4.03173-4.15966,4.47973-4.15966.57593,0,1.21582.5122,4.15967,2.87988,1.27978,1.02392,1.79175,1.66406,1.79175,2.11181s-.1919.64014-.83179.64014Zm-11.967-35.26172a25.1611,25.1611,0,0,0-.32007-4.67138c7.23145.70361,7.93555,1.21582,7.93555,1.98388,0,.51172-.512.89551-2.04785,1.59961v9.0874h5.31152v-7.99951a25.1611,25.1611,0,0,0-.32007-4.67138c7.29566.76757,7.99952,1.21582,7.99952,1.98388,0,.51172-.448.89551-2.11182,1.59961v9.0874h2.62378a62.07991,62.07991,0,0,0,3.58374-7.16748,27.80818,27.80818,0,0,0,1.408-4.28759c5.63159,2.36767,7.61548,3.3916,7.61548,4.15966,0,.96-.448,1.15186-2.94385,1.21582a41.02481,41.02481,0,0,1-7.67944,6.07959h7.48754c2.87964-3.1997,3.64771-3.71191,4.09571-3.71191.57593,0,1.27978.51221,3.96753,2.56006,1.21606,1.02392,1.728,1.53564,1.728,1.98389,0,.44775-.19213.64013-.832.64013H72.35791a35.01176,35.01176,0,0,0-4.7356.38379l-.70385-2.36767a27.78107,27.78107,0,0,0,5.24756.51171H86.30908Zm-6.84765,6.84766c-1.47168,0-2.04786-.57617-2.68775-2.4961a12.73858,12.73858,0,0,0-3.45581-6.27148c-.25586-.19189,0-.63965.32007-.57568,6.01562,1.02392,9.15137,3.13574,9.15137,6.14355A3.32177,3.32177,0,0,1,79.46143,330.76172Z"/><path class="cls-1" d="M160.24731,336.71338a26.07568,26.07568,0,0,1-1.40771,6.7832,45.96731,45.96731,0,0,1-4.03174,9.21533c-1.98389,3.71192-4.5437,7.99952-7.10351,10.6875a7.03005,7.03005,0,0,1-5.31177,2.62354,6.49224,6.49224,0,0,1-4.86353-2.49561c-2.304-2.56-3.51977-5.82373-3.51977-11.647a19.982,19.982,0,0,1,2.752-9.72754,24.73885,24.73885,0,0,1,8.63916-8.95947,28.67716,28.67716,0,0,1,15.48706-4.15967c6.97534,0,11.967,1.91992,15.87085,4.9917,4.67163,3.77588,7.48731,8.89551,7.48731,16.25488a17.38807,17.38807,0,0,1-5.88746,13.18311,27.91517,27.91517,0,0,1-9.47143,5.69531,45.52956,45.52956,0,0,1-13.1189,2.43213c-.96,0-1.408-.12793-1.408-.64014,0-.51172.384-.63964,1.21582-.832,7.55152-1.66357,12.60718-4.54345,16.44678-8.3833,3.96777-4.0957,5.75977-8.12744,5.75977-14.84668,0-4.54394-1.47193-9.15137-5.6316-12.03125a20.18888,20.18888,0,0,0-10.23925-3.45556,28.6988,28.6988,0,0,0-4.03174.064A8.78811,8.78811,0,0,1,160.24731,336.71338Zm-15.55078.25586a19.48609,19.48609,0,0,0-5.43969,7.87158,16.6587,16.6587,0,0,0-1.08789,6.07959,12.71774,12.71774,0,0,0,1.59985,6.91113,4.12607,4.12607,0,0,0,2.81592,2.11182c1.02392,0,1.98388-.63965,4.41577-4.0957a77.717,77.717,0,0,0,8.57519-15.67871,14.84863,14.84863,0,0,0,1.344-5.43946,3.21951,3.21951,0,0,0-1.15186-2.87988A21.54674,21.54674,0,0,0,144.69653,336.96924Z"/><path class="cls-1" d="M241.2959,329.5459c2.62378-3.07178,3.13574-3.45606,3.6477-3.45606.6399,0,1.15186.38428,4.92749,3.71192,1.792,1.66406,1.98389,2.17578,1.98389,2.688,0,.896-.512,1.47168-2.49585,1.34375-1.72778-.12793-1.98389-.064-3.19971.96a28.25426,28.25426,0,0,1-5.63159,3.83984c-.25586.12793-.70386-.12842-.57593-.44824a43.531,43.531,0,0,0,2.04786-7.16748H202.45068c.25586,5.05566-1.728,8.51172-5.05566,8.51172a3.19408,3.19408,0,0,1-3.26392-3.39209,3.02982,3.02982,0,0,1,2.04786-3.07178c3.32788-1.72754,4.22387-3.00781,4.67163-7.10352.0642-.31982.64013-.38379.7041-.064a20.67175,20.67175,0,0,1,.76782,3.648h16.38281v-4.15967c0-2.17578-.064-3.90381-.19189-5.312,7.9353.76807,8.6394,1.53613,8.6394,2.24023,0,.57569-.7041,1.15186-2.11181,1.79151v5.43994Zm-3.90381,17.21484c-1.66382,5.75928-4.03174,11.39112-7.87158,16.0625,9.9834,3.64795,14.335,7.23145,14.335,10.62354,0,2.04785-1.08789,3.45556-2.68775,3.45556-1.72778,0-1.85571-.064-4.92749-2.94384a67.86078,67.86078,0,0,0-9.98339-7.74317c-7.03955,6.33545-17.15064,9.59912-31.42163,10.49512-.32007,0-.32007-.832,0-.896,12.22314-2.36767,20.79833-6.20752,26.814-12.28711a105.23189,105.23189,0,0,0-10.94312-4.86377c-.512.832-1.08789,1.66407-1.66406,2.56006a2.63873,2.63873,0,0,1-2.30371,1.27979c-1.91992,0-3.90381-1.08789-3.90381-2.17578a2.75985,2.75985,0,0,1,.448-1.27979,84.68445,84.68445,0,0,0,7.67944-12.28711h-11.519a23.52761,23.52761,0,0,0-3.90381.38379l-.70385-2.36767a20.966,20.966,0,0,0,4.5437.51171H211.73l.83179-1.728a65.624,65.624,0,0,0,3.90381-10.49512c7.16748,1.728,7.55151,1.91992,7.55151,2.752,0,.76807-.384.96-2.62378,1.47168-.96,2.688-2.11206,5.376-3.32788,7.99951h21.69434c3.45581-3.96777,4.22387-4.47949,4.67187-4.47949.57593,0,1.27979.51172,4.35156,3.07178,1.408,1.21582,1.91992,1.792,1.91992,2.23975s-.19189.64013-.832.64013Zm-19.96655,0a119.17027,119.17027,0,0,1-6.01563,10.81494c4.22363,1.08789,8.38355,2.11182,12.54321,3.32764a38.97344,38.97344,0,0,0,6.71949-14.14258Z"/><path class="cls-1" d="M285.42529,340.80908h-13.887a22.83092,22.83092,0,0,0-3.8396.38379l-.7041-2.36767a20.96769,20.96769,0,0,0,4.5437.51171h29.18188c2.81592-3.58349,3.58375-4.0957,4.03174-4.0957.57593,0,1.27979.51221,4.35157,2.87988,1.344,1.08789,1.856,1.6001,1.856,2.04786,0,.44824-.19189.64013-.832.64013H291.377V354.312h8.3833c2.81592-3.64795,3.58374-4.15967,4.03174-4.15967.57593,0,1.27979.51172,4.09571,2.87989,1.27978,1.08789,1.792,1.66357,1.792,2.11181,0,.44776-.19214.63965-.832.63965H291.377v15.03906a55.18644,55.18644,0,0,0,7.67945.44776,100.97068,100.97068,0,0,0,17.08667-1.34375c.32006-.064.2561.44824,0,.64013a5.05961,5.05961,0,0,0-2.11182,4.54346c0,.96-.32007,1.34424-1.408,1.47217-2.68774.31982-7.55151.44775-10.81518.44775-9.4712,0-16.19092-1.91992-21.05445-6.33545a28.07335,28.07335,0,0,1-6.39966-9.27929c-2.81567,6.71924-7.16748,11.26318-14.59082,15.61474-.25586.1919-.76806-.51172-.512-.7041a40.71722,40.71722,0,0,0,11.45508-22.59033,48.65828,48.65828,0,0,0,.64014-6.84717c6.71948,1.34375,7.99926,1.72754,7.99926,2.6875,0,.57617-.38379.896-2.04785,1.6001a63.86731,63.86731,0,0,1-2.23974,8.57519c2.49585,4.48,5.63159,7.87159,10.36718,9.66358ZM307.8877,328.522c2.49584-2.81592,3.00781-3.1997,3.51977-3.1997.63989,0,1.15186,0,4.60767,3.26367,1.59985,1.47168,1.91992,1.98388,1.91992,2.4956,0,.832-.57617,1.47217-2.87988,1.53614a4.22909,4.22909,0,0,0-2.55982.57568,21.53137,21.53137,0,0,1-4.2876,2.752c-.2561.12793-.512-.12793-.448-.44775a31.57663,31.57663,0,0,0,1.15185-5.50391h-40.637c.19189,4.9917-1.792,8.44727-5.11963,8.44727a3.19368,3.19368,0,0,1-3.26392-3.3916,3.02982,3.02982,0,0,1,2.04785-3.07178c3.32789-1.728,4.22364-3.00781,4.67164-7.10352.0642-.31982.64013-.38379.7041-.064a30.23464,30.23464,0,0,1,.83178,3.71191h16.70289v-5.37549c0-.896-.064-2.04785-.1919-3.584,7.67944.7041,8.3833,1.40771,8.3833,2.04785,0,.57617-.63989,1.08789-1.98389,1.47168V328.522Z"/><path class="cls-1" d="M339.4353,343.11279c-.384-2.87988-.32007-5.6958-.32007-12.22314a9.96792,9.96792,0,0,0-.25585-3.32764c-.19214-.76806-.57618-1.15185-1.856-1.792-.63989-.31982-1.27979-.64014-1.91992-.896-.38379-.12793-.57593-.19189-.57593-.44775,0-.38428.384-.76807.832-1.02393a6.96619,6.96619,0,0,1,3.45581-1.02392c1.72778,0,3.71167,1.08789,5.56738,2.62353a3.5324,3.5324,0,0,1,1.66407,2.81592,2.72773,2.72773,0,0,1-.76807,1.792,5.5899,5.5899,0,0,0-.512,1.792,35.96573,35.96573,0,0,0-.384,3.96728,63.83339,63.83339,0,0,0,0,8.12744c.12818,1.28028.896,1.53613,1.792,1.53613.63989,0,2.55981-.96,5.56762-2.23974a39.80681,39.80681,0,0,0,4.03174-1.98389,1.1141,1.1141,0,0,0,.31982-1.66406,6.64671,6.64671,0,0,0-1.27978-1.59961c-.32007-.32031-.57593-.51221-.57593-.76807,0-.32031.63989-.7041,1.47168-.7041a4.332,4.332,0,0,1,2.176.7041,14.7253,14.7253,0,0,1,4.03174,3.19971,6.20063,6.20063,0,0,1,1.47192,3.19971c0,1.15185-.51221,1.728-1.792,1.91992-1.02393.12793-2.87989.57617-4.03174.832a78.41972,78.41972,0,0,0-11.71118,3.45557c-9.47119,3.77588-13.5669,7.03955-13.5669,12.15918,0,4.0957,3.77564,6.39941,12.28711,6.39941,6.59155,0,9.7273-.57568,11.135-1.15185a6.34506,6.34506,0,0,1,3.00781-.76807,9.48447,9.48447,0,0,1,3.26392.57617c1.79175.57568,2.75171,1.66406,2.75171,2.81592,0,1.47168-.448,2.43164-2.94385,3.00781-2.68774.63965-5.69556,1.02393-12.927,1.02393a41.69494,41.69494,0,0,1-11.967-1.40821,12.64842,12.64842,0,0,1-5.75977-3.58349,8.9019,8.9019,0,0,1-2.23974-5.95166c0-6.84766,4.86377-10.81543,12.927-15.03906A6.29329,6.29329,0,0,1,339.4353,343.11279Z"/><path class="cls-1" d="M399.15991,323.01807c2.62378-2.8794,3.13574-3.26368,3.64771-3.26368.63989,0,1.21582.38428,3.6477,2.30372,1.08789.832,1.47193,1.28027,1.47193,1.792,0,.57617-.384.896-2.04786,1.53613a34.76759,34.76759,0,0,0,4.47974,5.18359A47.979,47.979,0,0,0,413.751,325.77a41.23506,41.23506,0,0,0,2.68774-5.31152c6.01538,3.13574,6.33545,3.58349,6.33545,4.35156,0,.7041-.384.896-2.94385.96a35.04746,35.04746,0,0,1-8.57519,5.6958,35.35622,35.35622,0,0,0,6.07934,4.60742,44.92655,44.92655,0,0,0,4.15991-5.56738,34.375,34.375,0,0,0,2.17579-3.96777c4.92749,2.55957,6.33545,3.51953,6.33545,4.47949,0,.7041-.512.896-2.68775.896a38.94569,38.94569,0,0,1-8.57544,4.9917,55.94432,55.94432,0,0,0,16.19092,5.31153.42841.42841,0,0,1,.064.76806c-1.79174.832-2.7517,2.11182-3.45581,4.67139-.19189.832-.448,1.15234-.96,1.15234a9.87834,9.87834,0,0,1-2.81567-.76806,56.03235,56.03235,0,0,1-12.35108-7.74365,41.68967,41.68967,0,0,1-10.23925-13.82276,44.53434,44.53434,0,0,1-16.44678,16.9585,13.55881,13.55881,0,0,0,2.68774.25634h16.89478c2.49585-3.32812,3.26367-3.83984,3.71167-3.83984.57593,0,1.28.51172,4.0957,2.6875,1.21582,1.02393,1.728,1.53613,1.728,1.98389,0,.44824-.19214.64013-.832.64013h-4.35181V356.04h8.06348c3.26391-3.77588,4.03174-4.28809,4.47973-4.28809.57593,0,1.27979.51221,4.47974,2.94385,1.47192,1.21631,1.98364,1.728,1.98364,2.17578,0,.44824-.19189.64014-.83178.64014H412.66284v12.22314c0,2.11182.06421,2.11182,5.95166,2.11182,4.5437,0,6.01563-.25586,6.91138-1.02393.76807-.76806,1.344-2.36767,3.136-7.93554.12792-.31983.83178-.1919.83178.12793v6.01562c0,1.28028.064,1.4082.896,1.98389a2.61482,2.61482,0,0,1,1.59985,2.43213c0,1.40771-.83179,2.36767-3.07178,2.94384-2.11181.57569-5.50366.76758-10.68725.76758-10.17529,0-11.647-.832-11.647-6.7832,0-1.34424.064-2.752.064-8.25537v-4.60791H398.584c-1.91992,12.22314-8.31933,17.59863-22.33447,20.67041-.31982.064-.63989-.63965-.31982-.76807,10.94311-4.73535,15.35888-9.27929,16.83056-19.90234H382.64917a45.025,45.025,0,0,0-5.4397.38379l-.70385-2.36768a38.95355,38.95355,0,0,0,6.20751.51221h10.1753c.384-2.04785.448-5.376.448-10.8794H391.4165a14.84465,14.84465,0,0,0-3.07177.38379l-.512-1.59961a78.79844,78.79844,0,0,1-12.47924,5.63135c-.31983.12793-.70386-.51172-.44776-.63965,11.32715-6.3999,19.71045-14.91113,24.12622-24.44629h-9.5354a17.48873,17.48873,0,0,0-4.15967.51172l-.70385-2.4956a22.054,22.054,0,0,0,4.67163.51172Zm-11.90307,13.56738c-1.47193,0-1.98389-.51221-2.87989-3.584a14.32712,14.32712,0,0,0-3.8396-6.14355c-.2561-.25586-.06421-.51172.25586-.44775,6.78345,1.72754,9.59937,3.71142,9.59937,6.71923A3.22427,3.22427,0,0,1,387.25684,336.58545Zm11.967,8.57519c0,6.71973-.064,8.19141-.448,10.8794h7.87158v-10.8794Z"/><path class="cls-1" d="M461.46411,354.75977v-9.72706h-4.0957a26.332,26.332,0,0,0-4.0957.38379l-.70411-2.36767a23.17494,23.17494,0,0,0,4.79981.51172h4.0957V341.001c0-1.15186-.06421-2.752-.2561-4.79981,7.29541.7041,7.93554,1.34424,7.93554,1.98389,0,.51221-.64013,1.08789-1.91992,1.66406v3.71143h8.89527v-2.49561c0-1.15185-.12793-2.75195-.31983-4.73584,7.29541.7041,7.9353,1.34424,7.9353,1.98389,0,.51221-.57592,1.02392-1.79174,1.66406v3.5835h3.6477c2.62378-3.3916,3.3916-3.90332,3.8396-3.90332.57593,0,1.21607.51172,3.90381,2.75146,1.15186.96,1.66382,1.53613,1.66382,1.98389,0,.44824-.1919.64013-.832.64013h-12.2229v9.72706h6.59155c2.81567-3.51954,3.5835-4.03174,4.03149-4.03174.57593,0,1.21607.5122,3.96778,2.81592,1.15185,1.02392,1.66382,1.60009,1.66382,2.04785,0,.44824-.1919.64013-.83179.64013H472.34326a26.22681,26.22681,0,0,0,6.84741,8.12745,51.09706,51.09706,0,0,0,4.60767-4.2876,12.17853,12.17853,0,0,0,2.43188-3.32813c4.35181,2.4961,5.88746,3.71192,5.88746,4.48,0,.63965-.76783,1.02393-2.87964.76758a50.8281,50.8281,0,0,1-8.70337,3.39209,20.50327,20.50327,0,0,0,1.98388,1.21582c4.54371,2.55957,10.1753,3.96777,17.02271,4.47949.32007,0,.32007.64014,0,.7041-2.23975.57618-3.07178,1.47168-3.64771,3.90381-.2561,1.66358-.57592,2.04786-1.408,2.04786a10.39569,10.39569,0,0,1-2.55982-.51221,32.66609,32.66609,0,0,1-11.83911-6.78321c-3.71167-3.39208-6.65552-7.80761-9.5354-14.207h-6.78345V370.311c4.35181-.44825,8.8313-1.15235,12.73511-1.91993.32007-.064.512.70362.25586.83155-6.97534,3.39209-11.647,4.92773-22.33423,7.55175-.32007,1.53565-.896,2.23975-1.72778,2.23975-.76807,0-.76807,0-2.688-8.19141a15.53859,15.53859,0,0,0,2.304.12793c1.72779,0,3.71167-.064,5.75953-.19189V356.23193h-7.67945a42.76815,42.76815,0,0,1-9.72729,21.31055c-.1919.25586-.76807-.19238-.6399-.51221,2.68775-6.27148,4.22364-12.35107,5.05567-21.43847.57593-6.33545.76782-14.0791.76782-24.31836,0-5.88721-.064-8.3833-.31982-11.9668a57.11891,57.11891,0,0,1,7.42334,3.64746H487.894c2.304-2.75146,2.81592-3.13574,3.32788-3.13574.6399,0,1.15186.38428,3.51978,2.36816,1.08789.96,1.47168,1.40772,1.47168,1.91944,0,.7041-.44776,1.15234-1.79175,2.04785v1.34424c0,3.51953.12793,5.43945.12793,7.35937,0,1.21582-1.47192,1.98389-3.71167,1.98389-1.856,0-2.36792-.51221-2.43188-2.30371h-36.2854a142.617,142.617,0,0,1-1.47168,20.22217Zm26.9419-30.3335H452.18457v2.81592c0,2.04785,0,3.96728-.064,5.82324H488.406ZM476.1189,345.03271h-8.89527v9.72706h8.89527Z"/><path class="cls-1" d="M547.83032,337.417a13.4733,13.4733,0,0,1,5.11963,1.6001c3.00757,1.53564,3.64771,3.13574,3.64771,4.35156,0,1.27979-.832,1.91992-2.24,2.04785a17.44725,17.44725,0,0,0-3.58374.896,71.23223,71.23223,0,0,0-9.4712,4.03174c-2.11181,1.08789-4.47973,2.23974-6.01562,3.13574-.064,1.6001-.064,3.52-.064,4.86377,0,3.51953.12793,4.60742-.19189,5.63135a2.51226,2.51226,0,0,1-2.36792,1.66406c-1.856,0-2.81567-.896-2.81567-3.07178,0-1.15185.12793-2.688.19189-6.14355-1.53589.896-2.55981,1.6001-3.32788,2.11181-3.45557,2.36768-5.18359,4.35157-5.18359,7.10352,0,3.00781,2.68774,4.54346,8.70337,4.54346a54.85942,54.85942,0,0,0,8.70336-.44776,17.26256,17.26256,0,0,0,3.77588-1.08789,8.26269,8.26269,0,0,1,2.62378-.5122,6.12515,6.12515,0,0,1,3.77564,1.08789,3.23358,3.23358,0,0,1,1.344,2.36816,2.48032,2.48032,0,0,1-1.08789,1.91992c-1.28.896-5.18359,1.59961-12.47925,1.59961-7.61548,0-10.62329-.44775-13.759-1.91992a7.42959,7.42959,0,0,1-4.41553-7.16748c0-2.81543,1.40772-5.63135,4.41553-8.31934a48.35728,48.35728,0,0,1,6.97559-4.9917c.064-1.15185.064-2.11181.064-3.00781,0-3.3916-.832-5.50342-3.13574-5.50342-2.36792,0-4.67163,1.53614-7.23145,4.41553a69.44564,69.44564,0,0,0-4.5437,6.52783A4.12111,4.12111,0,0,1,512.37671,357a2.61164,2.61164,0,0,1-1.98364-.7041,2.46838,2.46838,0,0,1-.70411-2.04785,4.09582,4.09582,0,0,1,1.02393-2.624c.63989-.57568,1.53589-1.40771,2.23975-2.11181a62.36226,62.36226,0,0,0,9.3435-12.6709c-1.21606.12793-3.07177.31982-4.60766.44775a7.34016,7.34016,0,0,1-7.67945-5.18359,3.80981,3.80981,0,0,1-.32007-1.47168c0-.32031.12793-.57617.384-.57617a1.13064,1.13064,0,0,1,.70386.57617c1.08789,1.72754,3.58374,2.62353,6.39965,2.62353a35.09474,35.09474,0,0,0,7.42334-1.02392,29.97316,29.97316,0,0,0,2.11182-5.24756,7.15351,7.15351,0,0,0,.32007-1.72754,1.53825,1.53825,0,0,0-.57593-1.08838,4.85983,4.85983,0,0,0-1.53589-.89551,8.18076,8.18076,0,0,0-1.344-.44824c-.31983-.064-.384-.12793-.384-.31982,0-.31983.25611-.51221.448-.7041a3.5175,3.5175,0,0,1,2.36792-.76807,13.85893,13.85893,0,0,1,6.46363,1.66406,2.58451,2.58451,0,0,1,1.53588,2.36768,2.1495,2.1495,0,0,1-.896,1.6001,7.47691,7.47691,0,0,0-1.728,1.792c-.38379.51172-1.40771,1.98388-1.91968,2.81543a11.53,11.53,0,0,0,5.11963-2.36768,3.85272,3.85272,0,0,1,2.30371-.7041c2.43189,0,4.15967.96,4.15967,2.36816a2.4049,2.4049,0,0,1-1.79175,2.23975,75.25219,75.25219,0,0,1-12.22314,3.26367c-.63989.96-1.344,1.91992-2.23975,3.3916a54.86742,54.86742,0,0,1-3.32788,4.9917c2.87988-1.91992,4.86377-2.6875,6.97559-2.6875,2.36767,0,4.28759.70362,5.43945,2.49561.64014,1.02392,1.08814,2.36767,1.1521,5.43945,5.11963-3.13574,7.87134-4.79931,10.87915-6.71924,1.27979-.832,2.30371-1.40771,2.30371-1.91992a1.74868,1.74868,0,0,0-.70386-1.27978,3.97362,3.97362,0,0,0-1.856-.96c-.1919-.064-.25586-.1919-.25586-.51221C545.39844,337.7373,546.55029,337.417,547.83032,337.417Z"/><path class="cls-1" d="M170.738,477.55322a10.60717,10.60717,0,0,0,5.69555,5.11963c3.13575,1.27979,7.74366,1.66358,15.103,1.66358a211.89536,211.89536,0,0,0,24.38233-1.53565c.31982-.064.25585.57568,0,.70361a4.14307,4.14307,0,0,0-2.49585,3.584c-.19214,1.98389-.32007,2.17578-1.53589,2.30371-3.2.25586-11.45533.44824-15.74292.44824-10.75122,0-17.15088-.896-21.18238-3.584-2.94384-1.98389-4.73584-4.86377-6.07959-9.0874-2.30395,4.03173-3.07177,4.92773-7.61547,9.85546.19189,2.36768-.12818,2.87989-1.08789,2.87989-.96,0-2.24-2.11182-4.73584-7.74366a31.18053,31.18053,0,0,0,9.27954-4.35156V461.042h-4.60791a10.86735,10.86735,0,0,0-3.51954.57617l-.7041-2.55957a17.98362,17.98362,0,0,0,4.22364.51172h4.22387c2.23975-2.624,2.75171-3.00781,3.26367-3.00781.6399,0,1.15186.38379,3.51978,2.36768,1.08789.96,1.47192,1.4082,1.47192,1.91992,0,.44824-.19213.64013-1.85595,1.98388Zm-4.09571-30.398c-1.47192,0-2.23974-.76806-3.13574-3.96777a18.74189,18.74189,0,0,0-4.0957-7.4873c-.25586-.25635.19214-.64014.512-.57618,7.48755,1.856,10.23926,4.92774,10.23926,8.19141C170.16211,445.49121,168.88232,447.15527,166.64233,447.15527ZM202.5437,462.834c2.36792-2.6875,2.87988-3.07177,3.39185-3.07177.63989,0,1.15185.38427,3.51977,2.30371,1.08789.896,1.47193,1.34424,1.47193,1.856,0,.44824-.19214.64013-1.728,1.856v2.43164c0,5.95166.19214,9.02344.19214,10.11133,0,1.792-1.21607,2.624-3.58374,2.624-1.98389,0-2.55982-.57617-2.55982-2.43212V477.105H184.24121v1.53613c0,1.98389-1.08789,2.75147-3.51977,2.75147-1.856,0-2.62378-.63965-2.62378-2.17578,0-4.60742.31982-9.21534.31982-27.646,0-4.2876-.064-8.63916-.448-12.99072a56.17187,56.17187,0,0,1,6.78369,3.58349H188.273c.51172-1.66406.95972-3.07177,1.27978-4.54345.25586-1.40821.512-3.00782.832-5.11963,7.80737,1.7915,8.06323,1.85547,8.06323,2.75146,0,.7041-.57593,1.08789-2.62378,1.47217a28.47678,28.47678,0,0,1-5.24756,5.43945h10.49512c1.91992-2.17578,2.43188-2.56,2.94384-2.56.64014,0,1.21607.38427,3.45582,2.04785,1.02392.76806,1.40795,1.21631,1.40795,1.728,0,.57618-.384.96-1.59985,1.728v1.728c0,4.54346.12793,7.61523.12793,8.63916,0,1.91992-.96,2.752-3.26392,2.752-1.91967,0-2.55957-.64013-2.55957-2.56006v-.63964H184.24121V462.834Zm-.95972-19.19873H184.24121v9.91944H201.584ZM184.24121,475.6333H203.2478V464.30615H184.24121Z"/><path class="cls-1" d="M261.917,466.48193a39.283,39.283,0,0,0,19.51856,13.5669c.32007.064.19189.64013-.12793.7041-3.00782.832-4.09571,1.72754-5.05567,4.03174-.512,1.47168-.7041,1.72754-1.344,1.72754a6.95457,6.95457,0,0,1-2.62378-1.47168,50.53916,50.53916,0,0,1-12.863-14.91114c-2.68774-4.67138-4.67163-10.11132-6.78344-18.11035.19189,15.231.63989,30.39746.63989,32.95752a6.19317,6.19317,0,0,1-1.91992,4.92774c-1.21582,1.08789-3.13575,1.72754-5.75953,1.72754a.82107.82107,0,0,1-.896-.832c-.31983-3.1997-1.59986-4.0957-7.9353-5.69531-.32007-.064-.32007-.96,0-.96,3.45581.25586,6.91137.51172,9.34326.51172.896,0,1.08789-.25586,1.08789-1.08789V469.36182c-4.92749,4.15966-10.04712,7.4873-18.5586,12.15869,0,2.24023-.384,2.81592-1.15185,2.81592-.96,0-1.91992-1.66358-4.73584-7.55127,1.53589-.32032,3.51977-.896,5.75976-1.6001a132.61883,132.61883,0,0,0,18.68653-8.19141V449.20312H228.70337a30.94936,30.94936,0,0,0-4.47974.38379l-.70385-2.36767a26.55452,26.55452,0,0,0,5.11962.51172H247.198v-5.50342a92.3781,92.3781,0,0,0-.32007-9.66309c7.67969.76758,8.44751,1.02393,8.44751,2.04785,0,.63965-.512,1.0879-2.23975,1.85547V447.731h14.84693c3.07177-3.77539,3.8396-4.2876,4.28759-4.2876.57593,0,1.27979.51221,4.47974,3.00781,1.408,1.15186,1.91968,1.66406,1.91968,2.11182,0,.44824-.1919.64013-.83179.64013H253.08569a50.43807,50.43807,0,0,0,7.55127,15.61475,61.00276,61.00276,0,0,0,5.37574-8.76709,27.833,27.833,0,0,0,1.34375-3.32812c6.01562,3.64795,7.35961,4.67187,7.35961,5.56787,0,.832-.448,1.02392-3.07177,1.27978a57.39908,57.39908,0,0,1-9.9834,6.59131Zm-23.87036-.96c-1.27978,0-1.98389-.5122-2.62378-2.04785-1.72778-4.0957-4.67163-7.87158-7.03955-9.0874-.25586-.12793,0-.57617.32007-.51221,8.57544,1.21631,12.479,3.71192,12.479,7.87158C241.18237,463.92188,239.90259,465.522,238.04663,465.522Zm26.94214-20.22265a2.54882,2.54882,0,0,1-2.43189-1.53565c-1.85571-3.45605-3.07177-5.11963-5.82348-6.78369-.25611-.19189.12793-.7041.448-.7041,6.84741.64014,10.55908,2.752,10.55908,5.82373A2.9769,2.9769,0,0,1,264.98877,445.29932Z"/><path class="cls-1" d="M331.32471,446.38721a10.16472,10.16472,0,0,0,2.87988-.64014,4.79226,4.79226,0,0,1,2.11182-.63965,13.18534,13.18534,0,0,1,6.39941,1.792,3.69725,3.69725,0,0,1,1.856,3.00782,1.9157,1.9157,0,0,1-2.04785,1.91943,11.33589,11.33589,0,0,1-3.13575-.31982,30.11052,30.11052,0,0,0-7.16748-1.08789c-4.0957,0-6.97558.064-11.13525.38378-.064,3.26416-.1919,6.5918-.1919,10.23926a18.27686,18.27686,0,0,1,1.59986,7.67969c0,6.59131-3.45581,11.647-7.67945,15.03906a27.945,27.945,0,0,1-11.45507,5.37549,19.334,19.334,0,0,1-3.58374.64014c-.448,0-.896-.25635-.896-.64014,0-.51221.25586-.7041.76782-.896,9.02344-3.1997,14.59107-8.3833,16.63892-14.84668a8.10824,8.10824,0,0,1-3.77564.76758,7.44183,7.44183,0,0,1-4.60791-1.72754,8.12165,8.12165,0,0,1-2.75171-6.208,7.8892,7.8892,0,0,1,2.68775-6.20752,9.21965,9.21965,0,0,1,5.31177-1.98389,15.08,15.08,0,0,1,3.26367.38428c.064-2.4961,0-4.86377-.064-7.10352a140.1505,140.1505,0,0,0-15.48681,2.81592,11.63642,11.63642,0,0,0-3.77588,1.66357,3.48048,3.48048,0,0,1-2.11182.70411c-1.02392,0-2.36767-.38379-4.0957-1.98389-1.91968-1.792-3.07178-3.64746-3.07178-4.79981A2.24291,2.24291,0,0,1,288,448.69092a.67348.67348,0,0,1,.63989-.51172.88473.88473,0,0,1,.57593.31982c2.23975,1.91993,3.90381,2.36817,5.63159,2.36817a37.133,37.133,0,0,0,4.5437-.57617c5.43946-.896,11.77515-1.792,16.95874-2.43164,0-2.04786-.064-4.03174-.12793-6.52784a5.99189,5.99189,0,0,0-.2561-2.23974c-.25586-.57618-.57593-.96-1.72778-1.08789-1.28-.12793-1.792-.1919-2.43189-.25586-.384-.064-.70386-.19239-.70386-.51221,0-.44775.448-.896,1.02393-1.34375a5.79993,5.79993,0,0,1,3.3916-1.47217c1.792,0,3.45581.57617,5.75977,2.11231,1.15185.76757,1.85571,1.59961,1.85571,2.4956a2.70059,2.70059,0,0,1-.896,1.856,2.10155,2.10155,0,0,0-.70385,1.34375c-.12793,1.47168-.1919,2.624-.25586,5.05566C325.43726,446.96338,328.509,446.707,331.32471,446.38721Zm-21.43848,14.91113a4.97138,4.97138,0,0,0-1.34375,3.51953,4.78963,4.78963,0,0,0,1.15186,3.45557,4.26331,4.26331,0,0,0,3.39184,1.4082,4.18491,4.18491,0,0,0,2.87964-1.08789,4.88764,4.88764,0,0,0,1.15186-3.71191,5.49642,5.49642,0,0,0-.95972-3.39161,3.8949,3.8949,0,0,0-3.07178-1.4082A4.38,4.38,0,0,0,309.88623,461.29834Z"/><path class="cls-1" d="M364.21606,464.11377a20.0876,20.0876,0,0,1,12.991-5.37549c4.67163,0,8.19141,1.15186,11.32715,3.83984a12.41059,12.41059,0,0,1,4.22388,9.15137,14.51538,14.51538,0,0,1-6.46363,12.60694,22.05916,22.05916,0,0,1-12.67114,3.77587c-3.51977,0-6.59155-.44824-8.8313-1.91992a6.82848,6.82848,0,0,1-3.26367-5.88769,5.63776,5.63776,0,0,1,2.23975-4.54346,8.46523,8.46523,0,0,1,5.31152-1.53613,10.79224,10.79224,0,0,1,7.29565,3.26416,19.19145,19.19145,0,0,1,3.26368,5.31152,10.73433,10.73433,0,0,0,4.47973-3.26367,11.86148,11.86148,0,0,0,2.30371-7.74365,10.577,10.577,0,0,0-3.13574-7.67969,10.73867,10.73867,0,0,0-7.23144-2.43164c-7.42334,0-12.73511,4.73584-17.6626,11.647-1.28,1.792-2.176,2.56006-3.136,2.56006a2.78805,2.78805,0,0,1-1.85571-.76807,3.24555,3.24555,0,0,1-1.15186-2.36767,3.62339,3.62339,0,0,1,1.21582-2.87988,268.24827,268.24827,0,0,0,22.2063-26.17432c.448-.63965.7041-.95947.7041-1.27979,0-.31982-.32006-.57568-.76806-.44775a44.92268,44.92268,0,0,0-6.71948,2.6875c-1.59986.76807-2.55982,1.28027-3.64771,1.856a3.40214,3.40214,0,0,1-5.50366-.25586c-1.59986-1.856-2.49585-3.51953-2.49585-4.86377,0-.96.57593-2.36768,1.02392-2.36768.384,0,.6399.44776,1.1521,1.15186,1.08789,1.40771,1.85572,1.856,2.68775,1.856,1.85571,0,5.50366-.76806,10.94311-2.56a6.11785,6.11785,0,0,0,3.07178-1.66358,2.438,2.438,0,0,1,1.728-.832,10.89519,10.89519,0,0,1,5.75952,2.688,2.76953,2.76953,0,0,1,1.21582,2.23974,1.74665,1.74665,0,0,1-1.02393,1.66358,14.97833,14.97833,0,0,0-2.49585,1.6001,88.14906,88.14906,0,0,0-8.76733,9.34326c-2.94385,3.3916-5.24756,5.82373-8.3833,9.47119Zm7.42334,14.39893a5.98466,5.98466,0,0,0-4.03149-1.85547,3.76676,3.76676,0,0,0-2.94385,1.08789,3.06528,3.06528,0,0,0-.64013,2.04785,3.84826,3.84826,0,0,0,1.856,3.26367,11.85288,11.85288,0,0,0,6.01563,1.21582,16.29282,16.29282,0,0,0,2.75171-.19189A11.72423,11.72423,0,0,0,371.6394,478.5127Z"/></g></g></svg>