<svg aria-hidden="true" style="position: absolute; width: 0; height: 0; overflow: hidden;" version="1.1" xmlns="http://www.w3.org/2000/svg" xmlns:xlink="http://www.w3.org/1999/xlink">
<defs>

<symbol id="logo" viewBox="0 0 229.5 51.45822">
  <title>Kambara Family TM Community</title>
	<defs></defs><g><g><path class="cls-1" d="M69.70626,7.11191c.53059,0,1.46.06691,2.16629.06691.66412,0,1.525-.04375,2.05563-.04375.376,0,.59735.06477.59735.26509,0,.17586-.28814.28653-.64128.37446-.752.15442-1.01727.35473-1.0612,1.21561-.06676.83987-.06676,4.44339-.02284,4.75437.02284.08793.06677.15441.15462.15441.0896,0,.30921-.15441.332-.15441.70805-.5306,4.24476-4.00244,4.93-4.77538.57453-.64127.48668-.99429-.24421-1.1946-.26354-.08793-.50776-.15485-.50776-.33028,0-.20032.24422-.28825.57628-.28825.41815,0,.441.02273.83806.02273.53235,0,2.65473-.11066,3.27318-.11066.39706,0,.57451.08793.57451.26551,0,.13168-.2653.30884-.59735.39677A6.81271,6.81271,0,0,0,78.92489,9.4329a45.78187,45.78187,0,0,0-4.17975,3.89176c-.04217.13169-.065.15442,0,.21962.48668.62025,4.2676,4.48885,5.92615,6.1896a3.35393,3.35393,0,0,0,2.32091,1.19459c.24246.06692.441.22176.441.30927,0,.22133-.30923.332-.55168.332-.59736,0-2.63188-.17716-3.22749-.17716-.79588,0-1.0401.02274-1.54786.02274a.44324.44324,0,0,1-.46383-.39892c0-.11066.08784-.1986.95051-.37575.08784-.021.1546-.15484.11068-.21961-.66237-.84158-3.64915-4.00244-4.79643-5.1743-.59736-.64126-.81874-.92779-.99618-.92779-.1107,0-.08786.28653-.1107.46411-.04392.41993.02284,4.002.04568,4.81913.02109.57435.33031.90635,1.32473,1.17186.39883.08794.50951.24235.50951.3972,0,.17715-.22137.28782-.57451.28782-.48667,0-2.03454-.06649-2.71974-.06649-.70805,0-1.43717.06649-2.14522.06649-.24246,0-.52883-.1334-.52883-.28782,0-.1986.17569-.26551.64128-.37618,1.08227-.21962,1.50219-.5306,1.56894-1.83414.02108-.75193.06677-2.82886.06677-5.21633,0-3.53832-.04569-3.93552-.08961-4.73163-.04391-.77295-.3303-1.017-1.21579-1.23835-.50776-.13211-.57452-.26551-.57452-.37446,0-.20032.26529-.28825.59736-.28825"/><path class="cls-1" d="M90.72605,13.50182A2.77285,2.77285,0,0,1,91.1688,15.336c0,.86088-.0896,3.64727-.0896,3.88962,0,1.01745.70805,1.10538.8855,1.10538a2.45318,2.45318,0,0,0,.83981-.33028c.06676-.04419.08785,0,.13177.06648a.34054.34054,0,0,1,.06677.21962,2.24857,2.24857,0,0,1-1.98886,1.37046,1.48234,1.48234,0,0,1-1.41609-1.105c0-.021-.08785-.11067-.13176-.08793a8.68884,8.68884,0,0,1-1.99061,1.01744,3.9197,3.9197,0,0,1-.88374.13169c-.77306,0-1.525-.95053-1.525-2.05548a1.92108,1.92108,0,0,1,.41992-1.12811,2.16244,2.16244,0,0,1,.88374-.55162c.332-.13168,2.10129-.62024,2.58621-.77509.50951-.15442.64127-.26337.64127-.39677.02285-.1986.04569-1.548.04569-1.81312a1.71749,1.71749,0,0,0-1.72532-1.48113,1.53469,1.53469,0,0,0-.90657.24406c-.13177.0652-.19854.46369-.15461.90464a.52921.52921,0,0,1-.13178.24449,7.96023,7.96023,0,0,1-1.43717.7292.32766.32766,0,0,1-.26529-.28653c0-.643.61844-1.26151,1.65678-1.94653a4.74577,4.74577,0,0,1,2.05738-.83986,2.231,2.231,0,0,1,1.98884,1.04018m-1.45824,6.58636a1.24772,1.24772,0,0,0,.26528-.55333c.04393-.52888.04393-1.28082.04393-1.72348a.21248.21248,0,0,0-.17745-.17758,6.68638,6.68638,0,0,0-2.277.66443.85947.85947,0,0,0-.44276.83986,1.38224,1.38224,0,0,0,1.39326,1.32628,2.84455,2.84455,0,0,0,1.19472-.37618"/><path class="cls-1" d="M95.38984,13.25732a16.27433,16.27433,0,0,0,1.67962-.90635c.08785-.0652.13178-.08793.17571-.08793a.46782.46782,0,0,1,.267.22133c0,.30927-.0896.9278-.0896,1.14913,0,.06692.04569.22133.13177.13169a5.90281,5.90281,0,0,1,2.964-1.28082,2.82907,2.82907,0,0,1,1.72355.44095,2.55613,2.55613,0,0,1,.708.7751c.04393.0875.08786.13168.17746.0875a11.32,11.32,0,0,1,1.56894-.9501,3.40935,3.40935,0,0,1,1.41434-.35345,2.49781,2.49781,0,0,1,1.901.75022,3.4775,3.4775,0,0,1,.73089,2.12239c.08784,1.15084.04392,2.69717.04392,4.5103.02108.39848.15461.81841.94874,1.03974.28814.08794.42167.17587.42167.30927,0,.15485-.19853.24278-.61845.24278-.44274,0-1.0401-.06692-1.59353-.06692-.66237,0-.99443.04547-1.50219.04547-.41991,0-.55343-.1334-.55343-.28782,0-.13168.24422-.22133.48668-.28824.708-.22134.79588-.48513.79588-1.2598,0-.5306-.04391-3.006-.04391-3.7352a2.563,2.563,0,0,0-.35315-1.48113,1.81026,1.81026,0,0,0-1.67964-.77466,2.236,2.236,0,0,0-1.70247.685,1.68365,1.68365,0,0,0-.22137.64127c0,.15484-.04392,4.33271,0,4.81956.06676.70775.1757.92908.92766,1.105.24421.06691.46383.20031.46383.30926,0,.15614-.17569.2668-.52883.2668-.48667,0-1.15079-.04547-1.65855-.04547-.46383,0-1.10512.04547-1.569.04547-.5095,0-.57627-.17715-.57627-.2668,0-.0652.08784-.21962.44275-.30926.752-.17587.83981-.3972.83981-1.19288V15.336a1.69056,1.69056,0,0,0-.28813-1.12811,2.0383,2.0383,0,0,0-1.65679-.66228,2.68372,2.68372,0,0,0-1.76924.68373.7697.7697,0,0,0-.24421.55333c-.04217.57435-.04217,3.36074-.04217,5.04046,0,.41994.08785.77295.79414.99471.42166.1334.59736.22134.59736.39849,0,.15485-.30922.22133-.59736.22133-.0861,0-.90658-.04547-1.74463-.04547-.73089,0-1.17188.06692-1.65855.06692-.33206,0-.55344-.08793-.55344-.24278,0-.08965.13352-.24407.5306-.332.708-.17715.83981-.50786.92942-1.46011.04392-.63912.065-2.85116.065-4.37647a.75308.75308,0,0,0-.15461-.59708c-.61844-.57478-.77306-.68544-.77306-.7944,0-.1334.19854-.2668.44276-.39891"/><path class="cls-1" d="M119.03555,20.663a5.06059,5.06059,0,0,1-3.00612.99428,12.46431,12.46431,0,0,1-2.80758-.441.61676.61676,0,0,0-.46383.06648.75709.75709,0,0,1-.2653.0652c-.0896,0-.13352-.13168-.13352-.28653.11068-1.72519.13352-5.52731.13352-7.34044,0-2.09965-.06676-5.37074-.11068-5.68a1.49415,1.49415,0,0,0-.55344-.75193c-.33206-.24235-.44274-.30926-.44274-.41993a1.10019,1.10019,0,0,1,.2653-.30927,11.94141,11.94141,0,0,0,1.81315-.68544,2.0218,2.0218,0,0,1,.55344-.26509c.08784,0,.24246.1986.24246.28654-.065,1.45968-.19855,3.55933-.19855,5.32871,0,.57435,0,1.65656.04393,1.90106,0,.04375.11069.109.13353.0875a5.02368,5.02368,0,0,1,2.51944-.75193,4.18983,4.18983,0,0,1,2.74258.97369,4.30524,4.30524,0,0,1,1.45825,3.338,4.86083,4.86083,0,0,1-1.92384,3.89005m-.99442-6.278a3.44614,3.44614,0,0,0-2.41051-.9501,2.24547,2.24547,0,0,0-1.32474.33029.5289.5289,0,0,0-.17745.332c-.02284.1986-.04393.81842-.04393,1.28253,0,1.14913.06677,2.34373.17571,3.53661a1.56455,1.56455,0,0,0,.44274,1.10494,3.45221,3.45221,0,0,0,2.05561.92952,2.80129,2.80129,0,0,0,1.34933-.75193,4.7045,4.7045,0,0,0,1.01551-2.96226,4.5686,4.5686,0,0,0-1.08227-2.85159"/><path class="cls-1" d="M128.62859,13.50182a2.77291,2.77291,0,0,1,.44274,1.83414c0,.86088-.08959,3.64727-.08959,3.88962,0,1.01745.708,1.10538.88549,1.10538a2.45318,2.45318,0,0,0,.83981-.33028c.06677-.04419.08785,0,.13178.06648a.34058.34058,0,0,1,.06676.21962,2.24855,2.24855,0,0,1-1.98885,1.37046,1.48233,1.48233,0,0,1-1.41609-1.105c0-.021-.08785-.11067-.13177-.08793a8.68864,8.68864,0,0,1-1.99061,1.01744,3.9197,3.9197,0,0,1-.88374.13169c-.773,0-1.525-.95053-1.525-2.05548a1.92108,1.92108,0,0,1,.41992-1.12811,2.16234,2.16234,0,0,1,.88373-.55162c.332-.13168,2.10129-.62024,2.58621-.77509.50951-.15442.64128-.26337.64128-.39677.02284-.1986.04568-1.548.04568-1.81312a1.71748,1.71748,0,0,0-1.72531-1.48113,1.5347,1.5347,0,0,0-.90658.24406c-.13177.0652-.19853.46369-.15461.90464a.52929.52929,0,0,1-.13177.24449,7.96061,7.96061,0,0,1-1.43718.7292.32765.32765,0,0,1-.26528-.28653c0-.643.61843-1.26151,1.65677-1.94653a4.74581,4.74581,0,0,1,2.05738-.83986,2.231,2.231,0,0,1,1.98885,1.04018m-1.45825,6.58636a1.24764,1.24764,0,0,0,.26529-.55333c.04392-.52888.04392-1.28082.04392-1.72348a.21248.21248,0,0,0-.17744-.17758,6.68636,6.68636,0,0,0-2.277.66443.85948.85948,0,0,0-.44276.83986,1.38224,1.38224,0,0,0,1.39326,1.32628,2.84446,2.84446,0,0,0,1.19472-.37618"/><path class="cls-1" d="M133.02744,13.235a9.96059,9.96059,0,0,0,1.63571-.70775c.26528-.17587.376-.2638.44274-.2638.08784,0,.19853.1986.19853.2638,0,.39891-.04392.79739-.04392,1.21733,0,.08793.10892.11066.1546.08793a4.35661,4.35661,0,0,1,2.51946-1.37046c.90657,0,1.10511.55161,1.10511.75193a1.03187,1.03187,0,0,1-.13178.30926,5.6101,5.6101,0,0,1-.90658,1.01745.57355.57355,0,0,1-.30921-.06692,2.09751,2.09751,0,0,0-1.2158-.48641,1.30006,1.30006,0,0,0-.97334.30883.83527.83527,0,0,0-.21962.48685c0,.44266.10892,4.44338.13176,4.77538.04393.64126.17746,1.06119.57453,1.12639.28638.06649.6852.17716,1.01727.26509.35313.11066.39882.26551.39882.35473,0,.11067-.20029.1986-.53236.1986-.55167,0-1.32648-.11067-2.60729-.11067-.66412,0-.92942.08965-1.46.08965-.24245,0-.46383-.08965-.46383-.2668,0-.13211.2653-.21962.441-.28653.86267-.28825.92943-.50786.95227-1.83586V14.871a.70534.70534,0,0,0-.24421-.66228c-.5306-.41993-.752-.50787-.752-.59751a.42513.42513,0,0,1,.28814-.37618"/><path class="cls-1" d="M146.03261,13.50182a2.77358,2.77358,0,0,1,.441,1.83414c0,.86088-.08784,3.64727-.08784,3.88962,0,1.01745.70629,1.10538.88374,1.10538a2.44015,2.44015,0,0,0,.83981-.33028c.06676-.04419.0896,0,.13353.06648a.34732.34732,0,0,1,.065.21962,2.24621,2.24621,0,0,1-1.98886,1.37046,1.48192,1.48192,0,0,1-1.41433-1.105c0-.021-.08784-.11067-.13352-.08793a8.65288,8.65288,0,0,1-1.98886,1.01744,3.91962,3.91962,0,0,1-.88373.13169c-.77481,0-1.52679-.95053-1.52679-2.05548a1.91142,1.91142,0,0,1,.42168-1.12811,2.16234,2.16234,0,0,1,.88373-.55162c.33206-.13168,2.1013-.62024,2.58621-.77509.50776-.15442.64128-.26337.64128-.39677.02284-.1986.04393-1.548.04393-1.81312a1.7155,1.7155,0,0,0-1.72356-1.48113,1.53475,1.53475,0,0,0-.90658.24406c-.13352.0652-.19853.46369-.1546.90464a.53241.53241,0,0,1-.13354.24449,7.9517,7.9517,0,0,1-1.4354.7292.32951.32951,0,0,1-.26706-.28653c0-.643.62019-1.26151,1.65855-1.94653a4.74842,4.74842,0,0,1,2.05561-.83986,2.232,2.232,0,0,1,1.9906,1.04018m-1.46,6.58636a1.22873,1.22873,0,0,0,.26528-.55333c.04569-.52888.04569-1.28082.04569-1.72348a.21451.21451,0,0,0-.17745-.17758,6.68643,6.68643,0,0,0-2.277.66443.85665.85665,0,0,0-.44274.83986,1.38223,1.38223,0,0,0,1.39325,1.32628,2.8379,2.8379,0,0,0,1.193-.37618"/><path class="cls-1" d="M160.50714,7.178c1.32648,0,3.361-.06649,3.5367-.06649a.24825.24825,0,0,1,.26705.22133c-.04567.64127.04217,1.41593.065,2.16615.02109.28824-.11068.59751-.30922.59751-.17745,0-.35314-.24407-.48667-.685-.35314-1.08436-.59736-1.283-1.32649-1.39362a25.88375,25.88375,0,0,0-3.426-.04375.41278.41278,0,0,0-.35316.28653c-.04568.5306-.08959,3.42765-.08959,4.886,0,.59709.11068.81842.22137.81842.86265,0,2.653.021,3.18356-.02273.68521-.06477.88374-.26509,1.193-1.017.13352-.30926.22138-.5306.42166-.5306.15462,0,.19854.22134.19854.48642,0,.28825-.11068.99643-.11068,1.3932,0,1.06119.04392,1.25979.04392,1.74664,0,.24235-.11069.50958-.33206.50958-.10893,0-.24246-.15657-.33207-.46583-.21962-.83986-.4849-.95053-.90482-1.0612a12.47552,12.47552,0,0,0-1.48109-.11066,19.37238,19.37238,0,0,0-1.94668.06691c-.065,0-.15461.17715-.17569.26509-.02285.41993.065,3.51558.08783,4.15685.02284.68544.06677,1.12639,1.50219,1.39319.33205.0652.53235.21962.53235.41822,0,.13383-.2003.26551-.61845.26551-.57626,0-1.26147-.0652-2.10129-.0652-.88374,0-2.1663.13169-2.63013.13169-.44275,0-.61844-.08751-.61844-.22134,0-.17543.24246-.353.59559-.441,1.193-.28824,1.23865-.79568,1.25973-1.08393.06677-.685.17745-2.321.17745-6.69745,0-2.07864,0-3.38391-.04391-3.95826-.04569-.75021-.41992-1.12639-1.39327-1.37046-.441-.11066-.55167-.22133-.55167-.37618,0-.17543.2653-.26508.61844-.26508.97159,0,1.76924.06649,2.45269.06649Z"/><path class="cls-1" d="M171.98412,13.50182a2.7728,2.7728,0,0,1,.44274,1.83414c0,.86088-.08959,3.64727-.08959,3.88962,0,1.01745.708,1.10538.88549,1.10538a2.453,2.453,0,0,0,.83981-.33028c.06678-.04419.08785,0,.13179.06648a.34058.34058,0,0,1,.06676.21962,2.24855,2.24855,0,0,1-1.98886,1.37046,1.48235,1.48235,0,0,1-1.41609-1.105c0-.021-.08785-.11067-.13177-.08793a8.68884,8.68884,0,0,1-1.9906,1.01744,3.91954,3.91954,0,0,1-.88374.13169c-.77306,0-1.525-.95053-1.525-2.05548a1.92107,1.92107,0,0,1,.41991-1.12811,2.16248,2.16248,0,0,1,.88375-.55162c.332-.13168,2.10129-.62024,2.5862-.77509.5095-.15442.64127-.26337.64127-.39677.02284-.1986.04568-1.548.04568-1.81312a1.71748,1.71748,0,0,0-1.7253-1.48113,1.53477,1.53477,0,0,0-.90659.24406c-.13176.0652-.19852.46369-.15461.90464a.52936.52936,0,0,1-.13176.24449,7.96066,7.96066,0,0,1-1.43719.7292.32765.32765,0,0,1-.26527-.28653c0-.643.61842-1.26151,1.65678-1.94653a4.74577,4.74577,0,0,1,2.05738-.83986,2.231,2.231,0,0,1,1.98883,1.04018m-1.45823,6.58636a1.24769,1.24769,0,0,0,.26527-.55333c.04394-.52888.04394-1.28082.04394-1.72348a.21249.21249,0,0,0-.17745-.17758,6.68635,6.68635,0,0,0-2.277.66443.85948.85948,0,0,0-.44274.83986,1.38224,1.38224,0,0,0,1.39325,1.32628,2.84459,2.84459,0,0,0,1.19473-.37618"/><path class="cls-1" d="M176.65039,13.25732A16.27642,16.27642,0,0,0,178.33,12.351c.08785-.0652.13176-.08793.1757-.08793a.46786.46786,0,0,1,.267.22133c0,.30927-.08959.9278-.08959,1.14913,0,.06692.04568.22133.13176.13169a5.90285,5.90285,0,0,1,2.964-1.28082,2.82907,2.82907,0,0,1,1.72355.44095,2.5562,2.5562,0,0,1,.708.7751c.04391.0875.08785.13168.17745.0875a11.31951,11.31951,0,0,1,1.569-.9501,3.40927,3.40927,0,0,1,1.41432-.35345,2.49774,2.49774,0,0,1,1.901.75022,3.47737,3.47737,0,0,1,.73089,2.12239c.08785,1.15084.04394,2.69717.04394,4.5103.02107.39848.1546.81841.94873,1.03974.28814.08794.42168.17587.42168.30927,0,.15485-.19855.24278-.61845.24278-.44275,0-1.0401-.06692-1.59354-.06692-.66236,0-.99444.04547-1.5022.04547-.4199,0-.55341-.1334-.55341-.28782,0-.13168.2442-.22133.48666-.28824.708-.22134.79589-.48513.79589-1.2598,0-.5306-.04391-3.006-.04391-3.7352a2.56294,2.56294,0,0,0-.35315-1.48113,1.81026,1.81026,0,0,0-1.67965-.77466,2.23592,2.23592,0,0,0-1.70246.685,1.68365,1.68365,0,0,0-.22138.64127c0,.15484-.04391,4.33271,0,4.81956.06678.70775.1757.92908.92766,1.105.24423.06691.46384.20031.46384.30926,0,.15614-.1757.2668-.52882.2668-.48669,0-1.15079-.04547-1.65855-.04547-.46385,0-1.10514.04547-1.569.04547-.5095,0-.57628-.17715-.57628-.2668,0-.0652.08785-.21962.44274-.30926.752-.17587.83981-.3972.83981-1.19288V15.336a1.69064,1.69064,0,0,0-.28811-1.12811,2.03836,2.03836,0,0,0-1.65681-.66228,2.68376,2.68376,0,0,0-1.76924.68373.76969.76969,0,0,0-.2442.55333c-.04217.57435-.04217,3.36074-.04217,5.04046,0,.41994.08785.77295.79413.99471.42167.1334.59738.22134.59738.39849,0,.15485-.30924.22133-.59738.22133-.08608,0-.90656-.04547-1.74463-.04547-.73089,0-1.17186.06692-1.65855.06692-.33205,0-.55344-.08793-.55344-.24278,0-.08965.13354-.24407.5306-.332.708-.17715.83981-.50786.92943-1.46011.04392-.63912.065-2.85116.065-4.37647a.75308.75308,0,0,0-.15461-.59708c-.61842-.57478-.77305-.68544-.77305-.7944,0-.1334.19854-.2668.44277-.39891"/><path class="cls-1" d="M193.77608,21.48223c-.35489,0-.57451-.08922-.57451-.24406,0-.13341.15461-.24407.52883-.353.5095-.13383.84158-.39892.88549-.62025a21.45508,21.45508,0,0,0,.08962-2.27724c0-.66228.02108-3.18315-.02284-3.447-.02284-.15614-.2653-.332-.90659-.7974-.13176-.08793-.17744-.15485-.17744-.24278,0-.15442.20028-.332.44274-.37575.81874-.17587,1.85707-.66443,2.18915-.75193.08785,0,.19852.22133.19852.24406,0,.24236-.13351,3.11668-.13351,4.37647,0,1.23878.02284,2.16615.04391,2.93952.02284.70775.5095.75193,1.0612.92951.35489.11067.48665.22134.48665.37576,0,.13168-.26529.22133-.50949.22133-.15461,0-1.258-.06649-1.72356-.06649-.72912,0-1.50218.08922-1.87817.08922m2.8076-12.42508a1.1814,1.1814,0,0,1-1.0612,1.08436,1.29711,1.29711,0,0,1-.708-.26552,1.16517,1.16517,0,0,1-.33208-.81884,1.55814,1.55814,0,0,1,.2653-.79568,1.31588,1.31588,0,0,1,.86442-.28654c.59561,0,.9716.68373.9716,1.08222"/><path class="cls-1" d="M200.37727,6.49252a11.58608,11.58608,0,0,0,2.277-.86088c.065-.04547.19855.13211.19855.21962-.065.55376-.19855,3.0519-.19855,6.01415,0,3.22734-.04391,7.44939.065,8.04519.0896.44266.17745.70775,1.12972.97326.33028.08793.50776.20032.50776.332,0,.15442-.30924.24407-.57628.24407-.52886,0-1.47936-.06649-1.87817-.06649-.50775,0-1.4811.06649-1.94494.06649-.44275,0-.62019-.06649-.62019-.24407,0-.15442.24422-.26551.48668-.30927,1.01726-.22133,1.06117-.61853,1.15079-1.72519.065-.90506.13351-3.22777.13351-6.72019,0-1.636,0-4.02345-.0685-4.61925-.0211-.17715-.0211-.311-.52885-.62024-.37774-.26337-.44275-.33029-.44275-.41993,0-.08751.065-.24236.30924-.30927"/><path class="cls-1" d="M205.29072,12.68254c.55341,0,1.084.08965,1.72353.08965.62022,0,1.28432-.04547,1.54788-.04547.17744,0,.48666.06692.48666.24407,0,.15485-.15461.28653-.50776.37618-.62019.17544-.6852.2861-.46559.86088.33206,1.0612,1.74814,4.533,1.92385,4.79812.02284.04375.11069.04375.17745-.08965.26529-.59752,1.6357-4.17787,1.7464-4.53089.19851-.62024.02284-.884-.83981-1.08264-.2653-.0682-.46385-.22133-.46385-.311,0-.19817.2864-.24235.55167-.24235.41993,0,1.01728.02273,1.30542.02273.30922,0,.817-.08965,1.39148-.08965.28814,0,.44275.04418.44275.1986,0,.20032-.22136.28825-.48666.37618-.46384.15442-.752.41993-1.08227,1.15085-.73088,1.65656-1.92384,4.61881-2.4316,5.90134-.77483,2.01173-1.59354,4.289-2.29984,6.16686a1.16485,1.16485,0,0,1-1.15079.62025.98963.98963,0,0,1-.99267-1.08393,1.02231,1.02231,0,0,1,.9716-.97327c.11067,0,.57451.02274.7959.02274.19851,0,.24243-.15485.33205-.37618a27.77034,27.77034,0,0,0,1.05943-2.85116,1.48049,1.48049,0,0,0,.06852-.79611c-.06852-.15442-.24423-.66228-.33205-.90635-.46385-1.304-1.83426-4.59823-2.52123-5.98971a1.37422,1.37422,0,0,0-1.03833-.8626c-.311-.11066-.44274-.19859-.44274-.332,0-.08794.06675-.26552.5306-.26552"/><path class="cls-1" d="M221.609.196a1.59821,1.59821,0,0,0,.858-.17235c.084-.02715.227.02937.227.0859a11.4865,11.4865,0,0,0-.11579,1.258c0,.1995-.28374.22666-.37.02716-.1135-.22722-.17252-.7426-.513-.7426h-.799v2.4561c0,.486-.02951.68551.25652.772.17023.05653.28373.08645.37.11361.22925.08589.17252.39955-.02723.39955-.25876,0-.8013-.0277-1.08728-.0277-.572,0-.656.0277-1.08275.0277a.18778.18778,0,0,1-.059-.37018,2.41835,2.41835,0,0,1,.34275-.11361c.19975-.0859.37227-.2588.37227-.885v-1.8c0-.3724-.02951-.57246-.14526-.57246h-.6265c-.48576,0-.48576.343-.656.60184-.02951.05652-.11575.22665-.19974.22665-.11579,0-.19975-.05652-.19975-.286,0-.05653.05674-.91217.05674-1.11223a.29316.29316,0,0,1,.31324-.05874.81051.81051,0,0,0,.513.17235Zm7.583,4.1696h-.88529c-.25648,0-.513.0277-.74225.0277-.37,0-.513-.17068-.08624-.37018.3155-.143.34276-.19951.37227-.71489.05673-.94209.02722-1.97063.02722-2.05431,0-.11583-.05673-.08646-.084-.02938-.22926.42893-.858,1.82711-1.11451,2.42617-.143.343-.25648.65836-.286.68551a.15926.15926,0,0,1-.25651,0s-.05674-.1136-.22926-.51261c-.22925-.486-.656-1.45747-1.05549-2.19951-.02951-.11582-.08628-.08645-.11579,0,0,.68551-.05673,1.171-.05673,1.7135,0,.39956.143.42893.715.629.31325.113.17024.42671-.11579.42671-.37,0-.62645-.0277-.99872-.0277-.31553,0-.572.0277-.74228.0277-.25648,0-.39949-.25658-.11347-.37018.37-.17235.62875-.22943.68323-.68552.08624-.5719.25876-1.88418.25876-2.08368A.56457.56457,0,0,0,224.28.82272c-.143-.19784-.17252-.14076-.48577-.22721-.5425-.143-.34275-.45609-.02951-.42893.40178.02937.54479.02937.94428.02937h.25648c.08627,0,.17027.08645.31324.39956a19.51452,19.51452,0,0,0,1.14406,2.17014c.02722.05874.084.1136.143.02937.34051-.68551.91252-1.74343,1.19851-2.45609.02951-.0859.05677-.143.202-.143.084,0,1.08275-.02937,1.22576-.02937.286,0,.37223.22943.05673.3724-.143.05653-.28373.02716-.39949.0859-.17252.08423-.17252.19784-.19978.39956,0,.343.02726,1.4281.05677,2.08369.02951.60183.059.629.17252.71543.143.05653.25648.0859.39949.143.429.17013.143.399-.08624.399"/><path class="cls-1" d="M80.29444,31.49582c.57626.08793,1.34932.37618,1.67962.41993.11245,0,.33206.15485.33206.66443,0,.46368.11068,1.43523.15461,1.92207.02284.46369-.15461.7292-.332.7292-.1107,0-.24246-.24278-.35315-.57478a3.44564,3.44564,0,0,0-.90483-1.65828,5.54537,5.54537,0,0,0-3.53846-1.14913c-3.55955,0-5.83654,2.94081-5.83654,6.27925a8.05225,8.05225,0,0,0,.77306,3.64727,6.38059,6.38059,0,0,0,5.59408,3.5366,5.07483,5.07483,0,0,0,2.41051-.59708,4.93074,4.93074,0,0,0,2.05386-2.14341c.28814-.46411.37773-.57478.46559-.57478.22137,0,.24245.48513.19853.7292a8.02391,8.02391,0,0,1-.88374,2.233,1.77634,1.77634,0,0,1-.687.57478,13.35782,13.35782,0,0,1-4.02163.6181,8.55934,8.55934,0,0,1-6.27752-2.58607,7.46222,7.46222,0,0,1-1.85708-5.08465,7.3628,7.3628,0,0,1,2.43159-5.306,9.1116,9.1116,0,0,1,5.99115-2.03274,12.33878,12.33878,0,0,1,2.6073.353"/><path class="cls-1" d="M94.4938,41.33268a4.75959,4.75959,0,0,1-1.92209,3.80341,4.41621,4.41621,0,0,1-2.74081.884A4.80722,4.80722,0,0,1,86.88978,44.871a4.892,4.892,0,0,1-1.6357-3.3839,4.25566,4.25566,0,0,1,1.54786-3.447,4.94012,4.94012,0,0,1,3.26966-1.216,4.43411,4.43411,0,0,1,4.4222,4.50858m-6.27752-3.205a4.13883,4.13883,0,0,0-1.084,2.82885,6.65318,6.65318,0,0,0,.2653,1.968,3.24412,3.24412,0,0,0,2.87435,2.45439,2.025,2.025,0,0,0,1.34756-.7292,5.24205,5.24205,0,0,0-.10892-6.30026,2.79126,2.79126,0,0,0-1.85709-.863,2.32,2.32,0,0,0-1.43716.64127"/><path class="cls-1" d="M96.9869,37.61893a16.2752,16.2752,0,0,0,1.67962-.90635c.08786-.06692.13178-.08793.17571-.08793a.46162.46162,0,0,1,.267.22133c0,.30926-.0896.92779-.0896,1.14913,0,.06691.04569.22133.13177.1334a5.88925,5.88925,0,0,1,2.964-1.28253,2.81671,2.81671,0,0,1,1.72354.44266,2.53611,2.53611,0,0,1,.70805.77338c.04392.0875.08785.13168.17746.0875a11.32034,11.32034,0,0,1,1.56894-.9501,3.40925,3.40925,0,0,1,1.41433-.35344,2.49266,2.49266,0,0,1,1.901.75193,3.4724,3.4724,0,0,1,.73089,2.12067c.08784,1.15085.04393,2.69717.04393,4.5103.02107.39848.1546.81842.94873,1.03975.28814.08793.42167.17586.42167.30926,0,.15485-.19853.24278-.61845.24278-.44274,0-1.04009-.06691-1.59353-.06691-.66237,0-.99443.04547-1.50219.04547-.4199,0-.55342-.1334-.55342-.28782,0-.13169.24421-.22133.48667-.28825.708-.21962.79588-.48513.79588-1.25979,0-.5306-.04391-3.006-.04391-3.73521a2.56686,2.56686,0,0,0-.35315-1.48112,1.81023,1.81023,0,0,0-1.67964-.77467,2.22963,2.22963,0,0,0-1.70247.68673,1.66289,1.66289,0,0,0-.22137.64127c0,.15485-.04391,4.33271,0,4.81784.06677.70775.1757.92909.92766,1.105.24421.06692.46383.20032.46383.311,0,.15442-.17569.26509-.52883.26509-.48667,0-1.15079-.04547-1.65854-.04547-.46384,0-1.10513.04547-1.569.04547-.5095,0-.57626-.17716-.57626-.26509,0-.06691.08783-.22133.44274-.311.752-.17586.83981-.3972.83981-1.19288V39.69757a1.687,1.687,0,0,0-.28813-1.12811,2.03828,2.03828,0,0,0-1.65679-.66229,2.67665,2.67665,0,0,0-1.76924.68545.76252.76252,0,0,0-.24421.55161c-.04217.57435-.04217,3.36074-.04217,5.04047,0,.41993.08785.77509.79414.99471.42166.1334.59736.22133.59736.39848,0,.15485-.30922.22134-.59736.22134-.0861,0-.90658-.04547-1.74463-.04547-.73089,0-1.17188.06691-1.65855.06691-.33206,0-.55344-.08793-.55344-.24278,0-.08964.13352-.24406.5306-.332.70805-.17716.83981-.50787.92942-1.46011.04393-.63912.065-2.85116.065-4.37647a.75434.75434,0,0,0-.15461-.59708c-.61844-.57307-.773-.68373-.773-.7944,0-.1334.19853-.2668.44275-.39891"/><path class="cls-1" d="M114.557,37.61893a16.32058,16.32058,0,0,0,1.68138-.90635c.08785-.06692.13178-.08793.1757-.08793a.45709.45709,0,0,1,.26529.22133c0,.30926-.08784.92779-.08784,1.14913,0,.06691.04393.22133.13176.1334a5.88978,5.88978,0,0,1,2.96221-1.28253,2.8226,2.8226,0,0,1,1.7253.44266,2.52337,2.52337,0,0,1,.70628.77338c.04569.0875.08961.13168.17746.0875a11.3465,11.3465,0,0,1,1.5707-.9501,3.403,3.403,0,0,1,1.41433-.35344,2.49534,2.49534,0,0,1,1.901.75193,3.46024,3.46024,0,0,1,.72913,2.12067c.08784,1.15085.04568,2.69717.04568,4.5103.02107.39848.15461.81842.94875,1.03975.28812.08793.42166.17586.42166.30926,0,.15485-.20029.24278-.62021.24278-.441,0-1.03834-.06691-1.59178-.06691-.66236,0-.99443.04547-1.50394.04547-.41815,0-.55167-.1334-.55167-.28782,0-.13169.24246-.22133.48667-.28825.70629-.21962.79589-.48513.79589-1.25979,0-.5306-.04392-3.006-.04392-3.73521a2.55182,2.55182,0,0,0-.3549-1.48112,1.80613,1.80613,0,0,0-1.67964-.77467,2.2329,2.2329,0,0,0-1.70247.68673,1.6923,1.6923,0,0,0-.22137.64127c0,.15485-.04392,4.33271,0,4.81784.06676.70775.17746.92909.92943,1.105.24244.06692.46383.20032.46383.311,0,.15442-.1757.26509-.5306.26509-.48667,0-1.149-.04547-1.65679-.04547-.46559,0-1.10688.04547-1.57071.04547-.50774,0-.57451-.17716-.57451-.26509,0-.06691.08785-.22133.441-.311.752-.17586.84158-.3972.84158-1.19288V39.69757a1.687,1.687,0,0,0-.28814-1.12811,2.04483,2.04483,0,0,0-1.65855-.66229,2.67211,2.67211,0,0,0-1.76748.68545.76253.76253,0,0,0-.24422.55161c-.04392.57435-.04392,3.36074-.04392,5.04047,0,.41993.08785.77509.79589.99471.42167.1334.59737.22133.59737.39848,0,.15485-.30923.22134-.59737.22134-.08785,0-.90657-.04547-1.74638-.04547-.72913,0-1.17188.06691-1.65679.06691-.33207,0-.55344-.08793-.55344-.24278,0-.08964.13352-.24406.5306-.332.70629-.17716.83981-.50787.92941-1.46011.04393-.63912.065-2.85116.065-4.37647a.76137.76137,0,0,0-.1546-.59708c-.61844-.57307-.77306-.68373-.77306-.7944,0-.1334.19855-.2668.441-.39891"/><path class="cls-1" d="M136.97931,44.14052a1.28035,1.28035,0,0,0,.3303-.53017l.04568-5.08465a.81964.81964,0,0,0-.376-.48684c-.33207-.08793-.817-.21962-1.01727-.26509-.15462-.04418-.44274-.17586-.44274-.35344,0-.08794.28812-.1986.50951-.1986a10.88928,10.88928,0,0,0,2.36482-.24407,1.7407,1.7407,0,0,1,.5306-.08793c.11069,0,.15462.24278.15462.332-.04393.61853-.22139,5.52559-.22139,7.33872,0,.04418.08961.30927.2653.30927.15462,0,.84158-.109,1.10512-.109.0896,0,.24422.35345.2653.41822a.35044.35044,0,0,1-.24246.22133,14.24361,14.24361,0,0,0-2.0117.41993,7.80357,7.80357,0,0,1-.77481.20032c-.08608,0-.21961-.15613-.21961-.311,0-.13169.065-.55162.08785-.92737,0-.11109-.065-.17758-.10893-.15485a15.51,15.51,0,0,1-1.81316,1.1264,3.8441,3.8441,0,0,1-1.48286.2668,2.24988,2.24988,0,0,1-1.94492-1.04018,2.20494,2.20494,0,0,1-.30922-1.038c0-1.59179,0-4.09037-.04393-5.26223-.02108-.61853-.44274-.706-.817-.86088-.20028-.08965-.39883-.20031-.39883-.39891,0-.06649.11069-.1986.376-.1986.61844,0,2.25415-.24407,2.34375-.24407.08786,0,.1757.20032.1757.332.02284.75193-.065,4.93023-.065,5.92451a1.60306,1.60306,0,0,0,.55169,1.23878,2.05853,2.05853,0,0,0,1.50394.441,2.695,2.695,0,0,0,1.67963-.77338"/><path class="cls-1" d="M143.16724,37.4422a7.97111,7.97111,0,0,0,1.48109-.64126,1.49039,1.49039,0,0,1,.5306-.24235c.11068,0,.22137.24235.22137.332,0,.37446-.08961.90506-.08961,1.10537,0,.109.11245.06477.13354.06477a6.11773,6.11773,0,0,1,2.96218-1.21561,2.55918,2.55918,0,0,1,2.0117.84158,4.34114,4.34114,0,0,1,.7748,2.695c0,.42165.04393,3.71419.065,4.02517.04393.33028.2653.61853.817.773.42166.11066.55343.22133.55343.37618,0,.15442-.30921.24235-.66236.24235-.50952,0-1.01727-.04375-1.63571-.04375-.55344,0-1.23864.04375-1.525.04375-.19855,0-.50952-.08793-.50952-.26509,0-.15484.24246-.28653.50952-.37618.52882-.19859.63952-.37617.68344-1.10494.04567-.7292.06676-3.40492.06676-4.04447a2.22109,2.22109,0,0,0-.66236-1.636,2.97319,2.97319,0,0,0-1.41609-.42164,2.75132,2.75132,0,0,0-1.96778.70818,1.001,1.001,0,0,0-.21961.53059c0,.28654,0,5.04047.02108,5.306.02284.30927.11245.48642.81874.685.22137.06691.39882.1986.39882.332,0,.15484-.24421.26551-.55343.26551-.2653,0-.88375-.02273-1.34758-.02273-.81872,0-1.46.06648-1.836.06648-.33207,0-.57451-.0875-.57451-.28782,0-.15484.22137-.26551.46383-.33028.73089-.22176.86265-.44309.92942-1.23878.065-.664.11068-2.58607.11068-4.84229,0-.24235-.04568-.46368-.53236-.86088-.28637-.20032-.4199-.311-.4199-.37575,0-.15485.24421-.37618.39883-.4431"/><path class="cls-1" d="M154.96821,45.84255c-.3549,0-.57452-.0875-.57452-.24235,0-.1334.15461-.24407.52885-.35473.5095-.13212.84156-.3972.88549-.61853a21.45839,21.45839,0,0,0,.08961-2.27724c0-.66228.02107-3.18316-.02284-3.44867-.02285-.15442-.2653-.33029-.90659-.79569-.13177-.08793-.17745-.15484-.17745-.24278,0-.15441.20029-.332.44274-.37575.81874-.17758,1.85708-.66228,2.18915-.75193.0861,0,.19853.22134.19853.24407,0,.24235-.13352,3.11667-.13352,4.37647,0,1.23877.02109,2.16614.04391,2.93952.02284.70775.50952.75193,1.0612.92951.35491.11066.48667.22133.48667.37575,0,.13168-.2653.22133-.50776.22133-.15636,0-1.25972-.06648-1.72531-.06648-.72912,0-1.50217.0875-1.87816.0875m2.80759-12.42337a1.17965,1.17965,0,0,1-1.0612,1.08264,1.28373,1.28373,0,0,1-.708-.26551,1.1576,1.1576,0,0,1-.33207-.81713,1.55311,1.55311,0,0,1,.2653-.79568,1.31567,1.31567,0,0,1,.86267-.28825c.59735,0,.97334.68545.97334,1.08393"/><path class="cls-1" d="M165.814,37.04415c.02107,0,.24243.11109.24243.17758a7.58744,7.58744,0,0,1,.06678.83986c0,.1986-.4199.24235-.57628.24235h-2.40875a.2192.2192,0,0,0-.19853.15485c-.02284.44266-.04392,3.691-.04392,4.75222a1.359,1.359,0,0,0,.376,1.08436,1.85359,1.85359,0,0,0,1.34757.41993,2.4223,2.4223,0,0,0,1.084-.33243c.19852-.10852.24246-.13168.33205-.13168.02107,0,.13177.04418.13177.24277a.94186.94186,0,0,1-.30922.55334,3.31746,3.31746,0,0,1-2.36483.97326,2.33115,2.33115,0,0,1-1.94668-1.04018,2.61588,2.61588,0,0,1-.28814-1.45839c0-.81842.0896-4.13369.0896-4.90878,0-.15442-.39882-.30927-.83981-.441-.17745-.06692-.311-.17758-.311-.24407a.3915.3915,0,0,1,.13353-.24235,14.85965,14.85965,0,0,0,1.76923-1.52531c.2653-.30926.41992-.48641.50776-.48641a.50849.50849,0,0,1,.30922.24406v1.03846a.21408.21408,0,0,0,.17745.17716c.48667,0,2.63189-.08965,2.71974-.08965"/><path class="cls-1" d="M168.04756,37.04415c.55341,0,1.084.08965,1.72353.08965.62022,0,1.28432-.04547,1.54788-.04547.17744,0,.48666.06691.48666.24406,0,.15485-.15461.28654-.50776.37447-.62019.17887-.6852.28782-.46559.8626.33206,1.06119,1.74814,4.533,1.92385,4.79811.02284.04375.11069.04375.17745-.08965.26529-.59751,1.6357-4.17787,1.74639-4.53088.19852-.61853.02285-.884-.8398-1.08265-.2653-.06648-.46385-.22133-.46385-.311,0-.19817.2864-.24235.55167-.24235.41993,0,1.01728.02274,1.30542.02274.30922,0,.817-.08965,1.39148-.08965.28814,0,.44275.04418.44275.1986,0,.20031-.22136.28824-.48666.37618-.46384.15441-.752.41993-1.08227,1.14912-.73088,1.65828-1.92384,4.62054-2.4316,5.90307-.77483,2.01172-1.59354,4.289-2.29984,6.16857a1.16676,1.16676,0,0,1-1.15079.61853.98881.98881,0,0,1-.99267-1.08393,1.0223,1.0223,0,0,1,.9716-.97326c.11067,0,.57451.02273.7959.02273.19851,0,.24243-.15484.33205-.37618a27.76859,27.76859,0,0,0,1.05943-2.85116,1.46236,1.46236,0,0,0,.06852-.79611c-.06852-.15441-.24423-.66228-.33205-.90635-.46385-1.304-1.83426-4.59822-2.52123-5.9897a1.37739,1.37739,0,0,0-1.03833-.8626c-.311-.11067-.44274-.1986-.44274-.332,0-.08793.06675-.26551.5306-.26551"/><path class="cls-1" d="M24.64281,51.35528A24.67261,24.67261,0,0,1,24.64456,2.0101a24.6726,24.6726,0,1,1,.02811,49.34518Zm.03162-45.03562a20.34971,20.34971,0,1,0,.0369,0Z"/><path class="cls-1" d="M31.94849,43.727a6.80505,6.80505,0,1,1,.15637.00215Z"/><path class="cls-1" d="M17.18216,43.72745a6.81965,6.81965,0,1,1,6.88543-6.8167,6.84288,6.84288,0,0,1-6.83448,6.8167Z"/><path class="cls-1" d="M36.67992,29.58961a6.80812,6.80812,0,1,1,.05622,0Z"/><path class="cls-1" d="M12.595,29.59476a6.85076,6.85076,0,1,1,.058,0Z"/><path class="cls-1" d="M24.63192,20.85684a6.80184,6.80184,0,0,1-6.78-6.82528,6.58776,6.58776,0,0,1,1.973-4.78268,6.80194,6.80194,0,0,1,9.64557-.05447,6.61122,6.61122,0,0,1,2.024,4.89334A6.82083,6.82083,0,0,1,24.711,20.85684Z"/><path class="cls-1" d="M24.67338,29.6784a3,3,0,1,1,.00878,0Z"/><path class="cls-1" d="M23.40874,31.94535l.53059-1.64241.0773.00858c.12123.01587.24246.03174.36369.0386.09838.00558.19853.009.29692.009.08433,0,.16866-.00343.253-.00729.12123-.00687.24421-.02274.376-.03861l.09663-.012.53587,1.64413-1.265.91578Z"/><path class="cls-1" d="M20.5618,23.17311l.47613-1.47212h1.576l.52708,1.627a3.95172,3.95172,0,0,0-1.18067.86088Z"/><path class="cls-1" d="M27.26732,24.06573c-.14056-.12611-.27935-.2475-.42694-.35645a5.35166,5.35166,0,0,0-.47964-.3024l-.14759-.08922.52357-1.62353h1.5584c.1265.33371.23368.67815.34261,1.026l.14758.45682-1.38623,1.00672Z"/><path class="cls-1" d="M18.80258,28.59705l.47261-1.47555h1.73234a4.0519,4.0519,0,0,0,.4568,1.37389l-1.402,1.01744Z"/><path class="cls-1" d="M27.88277,28.49281a3.97142,3.97142,0,0,0,.45329-1.36488h1.73058l.4814,1.46526-1.25972.91707Z"/><path class="cls-1" d="M20.77438,30.03314l1.18242-.85874a3.91035,3.91035,0,0,0,1.18417.857l-.448,1.38976Z"/><path class="cls-1" d="M26.20876,30.04686l.1265-.07378a4.32476,4.32476,0,0,0,.92942-.67429l.13177-.118,1.17188.85059L26.65678,31.4229Z"/><path class="cls-1" d="M23.9504,23.06588c-.10718-.28954-.19854-.58293-.29165-.87847-.051-.163-.10191-.32643-.15637-.48985h2.342l-.43747,1.36488a4.81315,4.81315,0,0,0-.73968-.05962,3.89907,3.89907,0,0,0-.71682.06306"/><path class="cls-1" d="M20.20918,26.25118c-.24245,0-.4814-.00343-.64128-.01373l.71859-2.221,1.17714.85231a3.96844,3.96844,0,0,0-.45153,1.35973c-.15461.01416-.46208.02274-.80292.02274"/><path class="cls-1" d="M28.3394,26.23788a4.03916,4.03916,0,0,0-.46032-1.36145l1.18242-.85917.71859,2.22062Z"/></g></g>
</symbol>

<symbol id="logo_kamon" viewBox="0 0 48.89541 48.89178">
<defs></defs><g><g><path class="cls-1" d="M24.41638,48.89178A24.44591,24.44591,0,0,1,24.41812,0,24.4459,24.4459,0,1,1,24.446,48.89178ZM24.44772,4.27a20.16273,20.16273,0,1,0,.03656,0Z"/><path class="cls-1" d="M31.655,41.33361a6.74253,6.74253,0,1,1,.15492.00213Z"/><path class="cls-1" d="M17.02429,41.334A6.757,6.757,0,1,1,23.84645,34.58,6.78,6.78,0,0,1,17.07477,41.334Z"/><path class="cls-1" d="M36.3429,27.3261a6.74557,6.74557,0,1,1,.0557,0Z"/><path class="cls-1" d="M12.47925,27.3312a6.78782,6.78782,0,1,1,.05744,0Z"/><path class="cls-1" d="M24.40559,18.67357A6.73936,6.73936,0,0,1,17.68787,11.911a6.52719,6.52719,0,0,1,1.95492-4.73873,6.73944,6.73944,0,0,1,9.55694-.054,6.55047,6.55047,0,0,1,2.00539,4.84838,6.75816,6.75816,0,0,1-6.72119,6.7069Z"/><path class="cls-1" d="M24.44667,27.41408a2.97241,2.97241,0,1,1,.0087,0Z"/><path class="cls-1" d="M23.19365,29.66019l.52572-1.62732.07659.0085c.12012.01573.24023.03145.36035.03825.09748.00553.1967.00893.29419.00893.08356,0,.16711-.0034.25067-.00723.12012-.0068.242-.02252.37253-.03825l.09575-.0119.53094,1.629-1.25337.90737Z"/><path class="cls-1" d="M20.37287,20.96856l.47176-1.4586h1.56149l.52223,1.612a3.91556,3.91556,0,0,0-1.16981.853Z"/><path class="cls-1" d="M27.01678,21.853c-.13926-.12495-.27678-.24523-.423-.35318a5.30048,5.30048,0,0,0-.47524-.29962l-.14623-.0884.51876-1.60862h1.54408c.12534.33065.23153.67192.33946,1.0166l.14622.45262-1.37348.99747Z"/><path class="cls-1" d="M18.62982,26.34266l.46826-1.462h1.71643a4.01455,4.01455,0,0,0,.45261,1.36127L19.878,27.25Z"/><path class="cls-1" d="M27.62658,26.23938A3.935,3.935,0,0,0,28.0757,24.887h1.71469l.477,1.45179-1.24815.90865Z"/><path class="cls-1" d="M20.58351,27.76555l1.17154-.85085a3.87434,3.87434,0,0,0,1.1733.84915l-.4439,1.377Z"/><path class="cls-1" d="M25.96795,27.77915l.12534-.0731a4.28565,4.28565,0,0,0,.92088-.6681l.13056-.11687,1.1611.84277-1.894,1.37869Z"/><path class="cls-1" d="M23.73034,20.86231c-.10619-.28688-.19672-.57758-.289-.8704-.05049-.1615-.101-.32342-.15494-.48535h2.32048l-.43346,1.35235a4.7681,4.7681,0,0,0-.73287-.05908,3.86392,3.86392,0,0,0-.71024.06248"/><path class="cls-1" d="M20.0235,24.01834c-.24023,0-.477-.0034-.63539-.0136l.712-2.20064,1.16633.84447a3.93212,3.93212,0,0,0-.44739,1.34725c-.15318.014-.45782.02252-.79553.02252"/><path class="cls-1" d="M28.079,24.00517a4.00206,4.00206,0,0,0-.45609-1.34895l1.17156-.85127.712,2.20022Z"/></g></g>
</symbol>

<symbol id="logo_text" viewBox="0 0 156.49593 50">
<defs></defs><g><g><path class="cls-1" d="M.98529,6.06115c.52571,0,1.44659.0663,2.14639.0663.658,0,1.511-.04335,2.03673-.04335.37253,0,.59187.06417.59187.26265,0,.17425-.28549.2839-.63539.371-.74506.153-1.00792.35147-1.05144,1.20444-.06616.83215-.06616,4.40256-.02263,4.71068.02263.08713.06615.153.15319.153.08878,0,.30638-.153.329-.153.70154-.52572,4.20575-3.96565,4.88466-4.7315.56924-.63537.4822-.98515-.242-1.18362-.26112-.08712-.50309-.15342-.50309-.32725,0-.19847.242-.2856.571-.2856.41431,0,.43694.02253.83036.02253.52746,0,2.63034-.10965,3.2431-.10965.39342,0,.56923.08712.56923.26307,0,.13048-.26286.306-.59186.39313a6.75009,6.75009,0,0,0-3.17521,1.68681,45.36132,45.36132,0,0,0-4.14134,3.856c-.04179.13047-.06442.153,0,.2176.4822.61455,4.22838,4.4476,5.87169,6.13272a3.32307,3.32307,0,0,0,2.29959,1.18362c.24023.0663.43693.21973.43693.30642,0,.2193-.30638.329-.54661.329-.59186,0-2.6077-.17552-3.19783-.17552-.78857,0-1.03054.02252-1.53363.02252a.43915.43915,0,0,1-.45957-.39524c0-.10965.087-.19678.94177-.3723.087-.02083.15318-.15343.10966-.2176-.65628-.83385-3.61562-3.96566-4.75236-5.12675-.59187-.63538-.81121-.91927-.987-.91927-.10967,0-.087.28389-.10967.45984-.04353.41608.02263,3.96524.04526,4.77486.02089.56907.32727.898,1.31255,1.16109.39517.08713.50483.24013.50483.39355,0,.17552-.21934.28517-.56923.28517-.4822,0-2.01584-.06587-2.69475-.06587-.70154,0-1.424.06587-2.12551.06587-.24023,0-.524-.13217-.524-.28517,0-.19677.17408-.26307.63539-.37272,1.07232-.2176,1.48838-.52573,1.55452-1.81729.02089-.745.06615-2.80287.06615-5.16841,0-3.50581-.04526-3.89935-.08878-4.68815C2.12377,7.17889,1.84,6.93707.96266,6.71777c-.50309-.1309-.56924-.26307-.56924-.371,0-.19848.26286-.2856.59187-.2856"/><path class="cls-1" d="M21.812,12.39234a2.74742,2.74742,0,0,1,.43868,1.8173c0,.853-.08877,3.61375-.08877,3.85388,0,1.00809.70154,1.09522.87735,1.09522a2.43067,2.43067,0,0,0,.8321-.32725c.06615-.04377.087,0,.13056.06588a.33737.33737,0,0,1,.06616.21759,2.22789,2.22789,0,0,1-1.97059,1.35787A1.46871,1.46871,0,0,1,20.69437,19.378c0-.02083-.087-.10965-.13056-.08713a8.60883,8.60883,0,0,1-1.97232,1.0081,3.88385,3.88385,0,0,1-.87562.13047c-.766,0-1.511-.94179-1.511-2.03659a1.90344,1.90344,0,0,1,.41606-1.11774,2.14248,2.14248,0,0,1,.87561-.54655c.329-.13047,2.082-.61455,2.56245-.768.50483-.153.63539-.26095.63539-.39312.02263-.19678.04526-1.53382.04526-1.79647a1.70171,1.70171,0,0,0-1.70946-1.46752,1.52057,1.52057,0,0,0-.89825.24182c-.13056.0646-.19671.45943-.15319.89632a.52437.52437,0,0,1-.13056.24225,7.88723,7.88723,0,0,1-1.424.7225.32464.32464,0,0,1-.26285-.2839c0-.63707.61275-1.24992,1.64155-1.92864a4.70216,4.70216,0,0,1,2.03848-.83215A2.2105,2.2105,0,0,1,21.812,12.39234M20.3671,18.91819a1.23614,1.23614,0,0,0,.26285-.54825c.04352-.524.04352-1.269.04352-1.70764a.21053.21053,0,0,0-.17581-.17595,6.62488,6.62488,0,0,0-2.25606.65832.8516.8516,0,0,0-.4387.83215,1.36955,1.36955,0,0,0,1.38046,1.31409,2.81836,2.81836,0,0,0,1.18374-.37272"/><path class="cls-1" d="M26.43289,12.1501a16.1258,16.1258,0,0,0,1.66418-.898c.08705-.0646.13057-.08712.17409-.08712a.4635.4635,0,0,1,.26459.2193c0,.30642-.08877.91927-.08877,1.13857,0,.0663.04526.2193.13056.13047a5.84861,5.84861,0,0,1,2.93672-1.269,2.803,2.803,0,0,1,1.70771.4369,2.53261,2.53261,0,0,1,.70154.768c.04352.0867.087.13047.17583.0867a11.21459,11.21459,0,0,1,1.55452-.94137,3.378,3.378,0,0,1,1.40134-.3502,2.47485,2.47485,0,0,1,1.88354.74332,3.44561,3.44561,0,0,1,.72417,2.10289c.087,1.14027.04352,2.67239.04352,4.46886.02088.39482.15318.81089.94,1.03019.2855.08713.4178.17425.4178.30643,0,.15342-.1967.24054-.61276.24054-.43868,0-1.03054-.0663-1.5789-.0663-.65627,0-.98529.045-1.48838.045-.416,0-.54834-.13217-.54834-.28517,0-.13047.242-.2193.4822-.2856.70154-.2193.78857-.48067.78857-1.24822,0-.52572-.04351-2.97838-.04351-3.70088a2.53941,2.53941,0,0,0-.34991-1.46752,1.79361,1.79361,0,0,0-1.6642-.76755,2.21543,2.21543,0,0,0-1.68683.67873,1.66806,1.66806,0,0,0-.21933.63537c0,.15342-.04351,4.2929,0,4.77528.06615.70124.17409.92054.91913,1.09479.242.0663.45957.19848.45957.30643,0,.15469-.17407.26434-.524.26434-.4822,0-1.14021-.045-1.64331-.045-.45956,0-1.095.045-1.55453.045-.50482,0-.571-.17552-.571-.26434,0-.0646.087-.2176.43867-.30643.74507-.17425.8321-.39355.8321-1.18192v-4.2929a1.67508,1.67508,0,0,0-.28548-1.11775,2.01959,2.01959,0,0,0-1.64157-.6562,2.65908,2.65908,0,0,0-1.753.67745.7626.7626,0,0,0-.242.54825c-.04179.56907-.04179,3.32986-.04179,4.99415,0,.41607.08705.76585.78685.98557.41778.13218.59187.2193.59187.39483,0,.15342-.30638.21929-.59187.21929-.08531,0-.89825-.045-1.7286-.045-.72417,0-1.16111.0663-1.64331.0663-.329,0-.54836-.08712-.54836-.24054,0-.08883.1323-.24183.52573-.32895.70154-.17553.83209-.5032.92088-1.4467.04352-.63324.0644-2.825.0644-4.33625a.74617.74617,0,0,0-.15319-.5916c-.61275-.5695-.766-.67915-.766-.7871,0-.13217.19671-.26435.43869-.39524"/><path class="cls-1" d="M49.86133,19.48769a5.01407,5.01407,0,0,1-2.97849.98514,12.3498,12.3498,0,0,1-2.78178-.43689.611.611,0,0,0-.45957.06587.7505.7505,0,0,1-.26287.0646c-.08878,0-.13229-.13047-.13229-.2839.10966-1.70934.13229-5.47652.13229-7.273,0-2.08037-.06615-5.3214-.10966-5.62783a1.48051,1.48051,0,0,0-.54835-.745c-.329-.24012-.43868-.30642-.43868-.41607a1.08987,1.08987,0,0,1,.26286-.30642,11.832,11.832,0,0,0,1.7965-.67915,2.00293,2.00293,0,0,1,.54835-.26265c.087,0,.24023.19677.24023.2839-.06441,1.44627-.19672,3.52663-.19672,5.27975,0,.56907,0,1.64134.04352,1.88359,0,.04335.10968.108.13231.0867a4.97752,4.97752,0,0,1,2.49629-.745,4.15131,4.15131,0,0,1,2.71737.96474,4.2657,4.2657,0,0,1,1.44486,3.30734,4.81616,4.81616,0,0,1-1.90617,3.85431m-.98528-6.22027a3.41444,3.41444,0,0,0-2.38836-.94138,2.22489,2.22489,0,0,0-1.31257.32725.52411.52411,0,0,0-.17582.32895c-.02263.19678-.04352.8109-.04352,1.27075,0,1.13857.06615,2.32219.17409,3.50411a1.55016,1.55016,0,0,0,.43868,1.09479,3.42048,3.42048,0,0,0,2.03672.921,2.77552,2.77552,0,0,0,1.33693-.745,4.6613,4.6613,0,0,0,1.00618-2.935,4.5266,4.5266,0,0,0-1.07233-2.82538"/><path class="cls-1" d="M59.36623,12.39234a2.74748,2.74748,0,0,1,.43868,1.8173c0,.853-.08877,3.61375-.08877,3.85388,0,1.00809.70153,1.09522.87735,1.09522a2.43056,2.43056,0,0,0,.83209-.32725c.06616-.04377.08705,0,.13057.06588a.33737.33737,0,0,1,.06616.21759,2.22791,2.22791,0,0,1-1.97059,1.35787A1.46873,1.46873,0,0,1,58.24864,19.378c0-.02083-.087-.10965-.13055-.08713a8.609,8.609,0,0,1-1.97232,1.0081,3.88392,3.88392,0,0,1-.87562.13047c-.766,0-1.511-.94179-1.511-2.03659a1.90344,1.90344,0,0,1,.41606-1.11774,2.14248,2.14248,0,0,1,.87561-.54655c.329-.13047,2.082-.61455,2.56245-.768.50483-.153.63538-.26095.63538-.39312.02263-.19678.04527-1.53382.04527-1.79647a1.70172,1.70172,0,0,0-1.70947-1.46752,1.52056,1.52056,0,0,0-.89824.24182c-.13056.0646-.19671.45943-.15319.89632a.5243.5243,0,0,1-.13057.24225,7.88686,7.88686,0,0,1-1.424.7225.32464.32464,0,0,1-.26285-.2839c0-.63707.61275-1.24992,1.64155-1.92864a4.70216,4.70216,0,0,1,2.03848-.83215,2.21051,2.21051,0,0,1,1.97057,1.03062m-1.44485,6.52585a1.23614,1.23614,0,0,0,.26285-.54825c.04352-.524.04352-1.269.04352-1.70764a.21053.21053,0,0,0-.17581-.17595,6.625,6.625,0,0,0-2.25607.65832.8516.8516,0,0,0-.43869.83215,1.36954,1.36954,0,0,0,1.38046,1.31409,2.8184,2.8184,0,0,0,1.18374-.37272"/><path class="cls-1" d="M63.72466,12.128a9.86977,9.86977,0,0,0,1.62068-.70125c.26285-.17425.37253-.26138.43868-.26138.087,0,.19671.19678.19671.26138,0,.39525-.04353.79007-.04353,1.20614,0,.08713.10793.10965.15319.08713a4.31662,4.31662,0,0,1,2.49631-1.35787c.89824,0,1.095.54655,1.095.745a1.02231,1.02231,0,0,1-.13057.30642,5.55835,5.55835,0,0,1-.89824,1.0081.56837.56837,0,0,1-.30637-.0663,2.07826,2.07826,0,0,0-1.20464-.48195,1.28815,1.28815,0,0,0-.9644.306.82762.82762,0,0,0-.21759.48237c0,.4386.10792,4.40256.13055,4.73151.04352.63537.17583,1.05144.56924,1.116.28376.06588.67891.17553,1.00793.26265.34989.10965.39515.26308.39515.35147,0,.10965-.19844.19678-.52746.19678-.5466,0-1.31429-.10965-2.58334-.10965-.658,0-.92088.08882-1.4466.08882-.24023,0-.45957-.08882-.45957-.26434,0-.1309.26286-.2176.43694-.2839.85474-.2856.92089-.5032.94352-1.819V13.74894a.69886.69886,0,0,0-.242-.6562c-.52572-.41607-.74506-.5032-.74506-.592a.42124.42124,0,0,1,.28549-.37272"/><path class="cls-1" d="M76.61034,12.39234a2.74813,2.74813,0,0,1,.43694,1.8173c0,.853-.087,3.61375-.087,3.85388,0,1.00809.6998,1.09522.87561,1.09522a2.41771,2.41771,0,0,0,.8321-.32725c.06615-.04377.08878,0,.1323.06588a.34406.34406,0,0,1,.06442.21759,2.22557,2.22557,0,0,1-1.97059,1.35787A1.46829,1.46829,0,0,1,75.49276,19.378c0-.02083-.087-.10965-.1323-.08713a8.57347,8.57347,0,0,1-1.97058,1.0081,3.88385,3.88385,0,0,1-.87562.13047c-.76769,0-1.51275-.94179-1.51275-2.03659a1.89388,1.89388,0,0,1,.4178-1.11774,2.14248,2.14248,0,0,1,.87561-.54655c.329-.13047,2.082-.61455,2.56245-.768.50309-.153.63539-.26095.63539-.39312.02263-.19678.04352-1.53382.04352-1.79647a1.69974,1.69974,0,0,0-1.70772-1.46752,1.52057,1.52057,0,0,0-.89825.24182c-.1323.0646-.19671.45943-.15319.89632a.52753.52753,0,0,1-.1323.24225,7.87849,7.87849,0,0,1-1.42222.7225.32648.32648,0,0,1-.2646-.2839c0-.63707.61449-1.24992,1.64331-1.92864a4.70471,4.70471,0,0,1,2.03672-.83215,2.2115,2.2115,0,0,1,1.97231,1.03062m-1.44659,6.52585a1.21737,1.21737,0,0,0,.26285-.54825c.04526-.524.04526-1.269.04526-1.70764a.21254.21254,0,0,0-.17581-.17595,6.625,6.625,0,0,0-2.25607.65832.84881.84881,0,0,0-.43867.83215,1.36953,1.36953,0,0,0,1.38044,1.31409,2.81179,2.81179,0,0,0,1.182-.37272"/><path class="cls-1" d="M90.95187,6.1266c1.3143,0,3.33013-.06588,3.50421-.06588a.246.246,0,0,1,.2646.2193c-.04525.63537.04178,1.40292.06441,2.14624.02089.2856-.10966.592-.30638.592-.17582,0-.3499-.24182-.4822-.67872-.3499-1.07439-.59187-1.27117-1.3143-1.38082a25.64784,25.64784,0,0,0-3.39453-.04335.409.409,0,0,0-.34991.2839c-.04526.52573-.08877,3.39616-.08877,4.84116,0,.59159.10966.81089.21934.81089.85472,0,2.62858.02083,3.15431-.02252.6789-.06418.87561-.26265,1.182-1.00767.1323-.30643.21934-.52573.41779-.52573.1532,0,.19671.2193.19671.48195,0,.2856-.10966.98727-.10966,1.3804,0,1.05144.04352,1.24822.04352,1.73059,0,.24012-.10968.5049-.329.5049-.10792,0-.24023-.15513-.329-.46155-.2176-.83215-.48045-.9418-.89651-1.05145a12.36036,12.36036,0,0,0-1.46748-.10965,19.19313,19.19313,0,0,0-1.9288.0663c-.06441,0-.15318.17553-.17407.26265-.02264.41607.0644,3.48329.087,4.11866.02263.67915.06615,1.116,1.48838,1.38039.329.0646.52746.2176.52746.41438,0,.13259-.19846.26307-.61276.26307-.571,0-1.24988-.0646-2.082-.0646-.87562,0-2.1464.13047-2.606.13047-.43868,0-.61275-.0867-.61275-.2193,0-.17382.24023-.34977.59012-.43689,1.182-.2856,1.22726-.78837,1.24815-1.074.06616-.67873.17582-2.29967.17582-6.63592,0-2.05954,0-3.35281-.04351-3.92189-.04526-.74332-.41606-1.116-1.38046-1.35786-.43694-.10965-.5466-.2193-.5466-.37273,0-.17382.26286-.26265.61275-.26265.96266,0,1.753.06588,2.43016.06588Z"/><path class="cls-1" d="M102.3234,12.39234a2.74736,2.74736,0,0,1,.43868,1.8173c0,.853-.08877,3.61375-.08877,3.85388,0,1.00809.70154,1.09522.87735,1.09522a2.43059,2.43059,0,0,0,.8321-.32725c.06616-.04377.087,0,.13058.06588a.33744.33744,0,0,1,.06614.21759,2.22788,2.22788,0,0,1-1.97059,1.35787,1.46872,1.46872,0,0,1-1.40307-1.09479c0-.02083-.08705-.10965-.13056-.08713A8.609,8.609,0,0,1,99.103,20.299a3.88384,3.88384,0,0,1-.87563.13047c-.766,0-1.511-.94179-1.511-2.03659a1.90342,1.90342,0,0,1,.416-1.11774,2.14256,2.14256,0,0,1,.87563-.54655c.329-.13047,2.082-.61455,2.56244-.768.50482-.153.63538-.26095.63538-.39312.02263-.19678.04526-1.53382.04526-1.79647a1.70171,1.70171,0,0,0-1.70945-1.46752,1.52061,1.52061,0,0,0-.89826.24182c-.13055.0646-.19669.45943-.15318.89632a.52446.52446,0,0,1-.13056.24225,7.88761,7.88761,0,0,1-1.424.7225.32465.32465,0,0,1-.26284-.2839c0-.63707.61274-1.24992,1.64156-1.92864a4.70216,4.70216,0,0,1,2.03848-.83215,2.21047,2.21047,0,0,1,1.97055,1.03062m-1.44483,6.52585a1.23618,1.23618,0,0,0,.26283-.54825c.04354-.524.04354-1.269.04354-1.70764a.21055.21055,0,0,0-.17582-.17595,6.62487,6.62487,0,0,0-2.25607.65832.8516.8516,0,0,0-.43868.83215,1.36954,1.36954,0,0,0,1.38045,1.31409,2.81844,2.81844,0,0,0,1.18375-.37272"/><path class="cls-1" d="M106.9468,12.1501a16.12789,16.12789,0,0,0,1.66418-.898c.08705-.0646.13056-.08712.17409-.08712a.46357.46357,0,0,1,.26459.2193c0,.30642-.08877.91927-.08877,1.13857,0,.0663.04526.2193.13055.13047a5.84869,5.84869,0,0,1,2.93671-1.269,2.80306,2.80306,0,0,1,1.70773.4369,2.53268,2.53268,0,0,1,.70153.768c.04351.0867.08705.13047.17582.0867a11.21547,11.21547,0,0,1,1.55454-.94137,3.37793,3.37793,0,0,1,1.40132-.3502,2.47479,2.47479,0,0,1,1.88354.74332,3.44548,3.44548,0,0,1,.72417,2.10289c.08705,1.14027.04354,2.67239.04354,4.46886.02088.39482.15318.81089.94,1.03019.2855.08713.4178.17425.4178.30643,0,.15342-.19672.24054-.61276.24054-.43868,0-1.03055-.0663-1.5789-.0663-.65628,0-.9853.045-1.4884.045-.416,0-.54832-.13217-.54832-.28517,0-.13047.24195-.2193.48218-.2856.70154-.2193.78859-.48067.78859-1.24822,0-.52572-.04351-2.97838-.04351-3.70088a2.53941,2.53941,0,0,0-.34991-1.46752,1.79363,1.79363,0,0,0-1.66421-.76755,2.21536,2.21536,0,0,0-1.68682.67873,1.66806,1.66806,0,0,0-.21935.63537c0,.15342-.04351,4.2929,0,4.77528.06617.70124.17409.92054.91914,1.09479.242.0663.45958.19848.45958.30643,0,.15469-.17409.26434-.524.26434-.48221,0-1.14022-.045-1.64331-.045-.45958,0-1.095.045-1.55453.045-.50482,0-.571-.17552-.571-.26434,0-.0646.08705-.2176.43868-.30643.74507-.17425.83209-.39355.83209-1.18192v-4.2929a1.6751,1.6751,0,0,0-.28546-1.11775,2.01963,2.01963,0,0,0-1.64159-.6562,2.65912,2.65912,0,0,0-1.753.67745.76263.76263,0,0,0-.242.54825c-.04178.56907-.04178,3.32986-.04178,4.99415,0,.41607.087.76585.78683.98557.4178.13218.59189.2193.59189.39483,0,.15342-.3064.21929-.59189.21929-.08529,0-.89823-.045-1.7286-.045-.72417,0-1.16109.0663-1.64331.0663-.329,0-.54835-.08712-.54835-.24054,0-.08883.13231-.24183.52572-.32895.70154-.17553.8321-.5032.92089-1.4467.04351-.63324.06439-2.825.06439-4.33625a.74619.74619,0,0,0-.15318-.5916c-.61275-.5695-.766-.67915-.766-.7871,0-.13217.19672-.26435.43871-.39524"/><path class="cls-1" d="M123.91514,20.29943c-.35164,0-.56923-.0884-.56923-.24182,0-.13217.15318-.24182.524-.34977.50481-.1326.83384-.39525.87735-.61455a21.257,21.257,0,0,0,.0888-2.25632c0-.65619.02088-3.15391-.02263-3.41528-.02263-.1547-.26286-.329-.89826-.79007-.13056-.08713-.17582-.15343-.17582-.24055,0-.153.19845-.32895.43868-.3723.81121-.17425,1.84-.65832,2.169-.745.087,0,.19669.2193.19669.24182,0,.24013-.13228,3.088-.13228,4.33626,0,1.22739.02263,2.14624.04351,2.91251.02263.70125.50482.745,1.05145.921.35163.10965.48218.2193.48218.3723,0,.13047-.26286.2193-.50481.2193-.15319,0-1.24642-.06588-1.70773-.06588-.72241,0-1.48836.0884-1.8609.0884m2.7818-12.31092a1.17054,1.17054,0,0,1-1.05145,1.0744,1.2853,1.2853,0,0,1-.70154-.26307,1.15455,1.15455,0,0,1-.329-.81133,1.54394,1.54394,0,0,1,.26286-.78837,1.30385,1.30385,0,0,1,.85648-.2839c.59014,0,.96268.67745.96268,1.07227"/><path class="cls-1" d="M130.45567,5.44745a11.47924,11.47924,0,0,0,2.25605-.853c.06442-.045.19672.1309.19672.2176-.06441.54867-.19672,3.02386-.19672,5.9589,0,3.19768-.04351,7.38094.06442,7.97126.08877.4386.17581.70125,1.11933.96432.32725.08713.5031.19848.5031.32895,0,.153-.3064.24182-.571.24182-.524,0-1.46576-.06587-1.86091-.06587-.50309,0-1.46749.06587-1.92707.06587-.43868,0-.61449-.06587-.61449-.24182,0-.153.242-.26307.48221-.30642,1.00791-.2193,1.05142-.61285,1.14022-1.70935.06441-.89674.13228-3.19811.13228-6.65844,0-1.62094,0-3.98648-.06787-4.57681-.02091-.17552-.02091-.30812-.524-.61454-.37426-.261-.43867-.32725-.43867-.41608,0-.0867.06441-.24012.30639-.30642"/><path class="cls-1" d="M135.324,11.5806c.54833,0,1.074.08882,1.7077.08882.61452,0,1.27252-.045,1.53366-.045.17581,0,.48218.0663.48218.24183,0,.15342-.15318.2839-.50309.37272-.61449.17382-.67891.28347-.46131.853.329,1.05145,1.73208,4.49138,1.90617,4.754.02263.04335.10968.04335.17582-.08882.26286-.592,1.62068-4.13949,1.73035-4.48926.1967-.61455.02263-.87592-.83209-1.07269-.26286-.06758-.45958-.2193-.45958-.30813,0-.19635.28376-.24012.5466-.24012.41607,0,1.00793.02252,1.29343.02252.30637,0,.80946-.08882,1.37869-.08882.28549,0,.43868.04377.43868.19677,0,.19848-.21933.2856-.48219.37273-.45958.153-.74507.41607-1.07232,1.14027-.72417,1.64134-1.90617,4.57637-2.40926,5.84712-.76771,1.99324-1.5789,4.24955-2.27871,6.1102a1.15416,1.15416,0,0,1-1.14022.61454.98053.98053,0,0,1-.98355-1.074,1.01292,1.01292,0,0,1,.96267-.96432c.10965,0,.56924.02253.78859.02253.19669,0,.2402-.15343.329-.37273a27.51343,27.51343,0,0,0,1.04969-2.825,1.46678,1.46678,0,0,0,.0679-.78879c-.0679-.153-.242-.6562-.329-.898-.45958-1.292-1.81739-4.556-2.49806-5.93467a1.36155,1.36155,0,0,0-1.02878-.85467c-.30813-.10965-.43868-.19677-.43868-.329,0-.08712.06614-.26307.52572-.26307"/><path class="cls-1" d="M150.71881.15027a1.2257,1.2257,0,0,0,.658-.13217c.06441-.02082.17409.02253.17409.06587a8.80868,8.80868,0,0,0-.0888.96475c0,.153-.2176.17382-.28374.02083-.087-.17425-.1323-.5695-.39341-.5695h-.61277V2.38364c0,.37272-.02263.52572.19672.592.13056.04335.2176.0663.28374.08713.17582.06587.13231.30642-.02088.30642-.19845,0-.61452-.02125-.83384-.02125-.43868,0-.5031.02125-.83037.02125a.144.144,0,0,1-.04526-.2839,1.85376,1.85376,0,0,1,.26286-.08712c.15318-.06588.28549-.19848.28549-.67873V.93907c0-.2856-.02263-.439-.1114-.439h-.48046c-.37254,0-.37254.26307-.50309.46155-.02263.04335-.08877.17382-.15319.17382-.0888,0-.15318-.04335-.15318-.2193,0-.04335.04351-.69955.04351-.853a.22484.22484,0,0,1,.24023-.045.62157.62157,0,0,0,.39341.13217Zm5.541,3.19769h-.67894c-.19669,0-.39341.02125-.56923.02125-.28374,0-.39342-.1309-.06614-.2839.242-.10965.26286-.153.28549-.54825.04351-.72249.02088-1.51129.02088-1.57546,0-.08883-.04351-.0663-.06441-.02253-.17582.32895-.658,1.40122-.85473,1.86064-.10967.26308-.19669.5049-.21932.52573a.12214.12214,0,0,1-.19672,0s-.04351-.08713-.17582-.39313c-.17582-.37272-.50309-1.11774-.80946-1.68682-.02263-.08882-.06617-.0663-.0888,0,0,.52573-.04351.898-.04351,1.3141,0,.30642.10968.32895.54835.48237.24023.0867.13056.32725-.08879.32725-.28374,0-.48044-.02125-.76593-.02125-.242,0-.43868.02125-.56926.02125-.19669,0-.30637-.19677-.087-.2839.28374-.13217.48219-.176.524-.52572.06614-.4386.19845-1.445.19845-1.598A.433.433,0,0,0,152.4927.631C152.383.47922,152.36039.523,152.12016.4567c-.416-.10965-.26286-.34978-.02263-.32895.30812.02252.4178.02252.72417.02252h.1967c.06616,0,.13058.0663.24023.30643A14.96514,14.96514,0,0,0,154.136,2.121c.02088.04505.06438.08713.10965.02253.26113-.52573.69981-1.337.91914-1.8836.02263-.06587.04353-.10965.15493-.10965.06442,0,.83037-.02252.94005-.02252.21932,0,.28546.176.04351.2856-.10968.04335-.2176.02082-.30637.06587-.13231.0646-.13231.15173-.15322.30643,0,.26307.02091,1.09522.04354,1.598.02263.46155.04526.48237.13231.54867.10965.04335.19669.06588.30637.10965.329.13048.10967.306-.06614.306"/><path class="cls-1" d="M11.47618,30.221c.571.08713,1.33693.37273,1.66419.41608.11142,0,.329.15342.329.65832,0,.45942.10967,1.422.15319,1.90442.02263.45942-.15319.72249-.329.72249-.10968,0-.24023-.24055-.34991-.56949a3.414,3.414,0,0,0-.8965-1.643,5.49449,5.49449,0,0,0-3.506-1.13857c-3.52685,0-5.78291,2.91379-5.78291,6.22155a7.97829,7.97829,0,0,0,.76595,3.61376,6.322,6.322,0,0,0,5.54268,3.50411,5.02829,5.02829,0,0,0,2.38837-.5916,4.88544,4.88544,0,0,0,2.035-2.12372c.28549-.45984.37426-.56949.4613-.56949.21934,0,.24023.48067.19671.72249a7.94977,7.94977,0,0,1-.87561,2.21254,1.76,1.76,0,0,1-.68065.5695,13.23523,13.23523,0,0,1-3.98468.61242,8.48067,8.48067,0,0,1-6.21984-2.56231,7.39365,7.39365,0,0,1-1.84-5.03793,7.29512,7.29512,0,0,1,2.40925-5.25722,9.02784,9.02784,0,0,1,5.93611-2.01407,12.22589,12.22589,0,0,1,2.58333.34977"/><path class="cls-1" d="M25.54508,39.9675A4.71583,4.71583,0,0,1,23.64065,43.736a4.37557,4.37557,0,0,1-2.71563.87592,4.763,4.763,0,0,1-2.91409-1.13857,4.84705,4.84705,0,0,1-1.62068-3.35281,4.21654,4.21654,0,0,1,1.53365-3.41528,4.8947,4.8947,0,0,1,3.23961-1.20487,4.39337,4.39337,0,0,1,4.38157,4.46716m-6.21985-3.17559a4.10082,4.10082,0,0,0-1.07407,2.80286,6.59184,6.59184,0,0,0,.26286,1.94989A3.21431,3.21431,0,0,0,21.362,43.9765a2.00643,2.00643,0,0,0,1.33518-.72249,5.19393,5.19393,0,0,0-.10792-6.24238,2.76563,2.76563,0,0,0-1.84-.85509,2.29872,2.29872,0,0,0-1.424.63537"/><path class="cls-1" d="M28.01528,36.28786a16.125,16.125,0,0,0,1.66418-.898c.08705-.0663.13057-.08712.17409-.08712a.4574.4574,0,0,1,.26459.2193c0,.30642-.08877.91927-.08877,1.13857,0,.06629.04526.21929.13055.13217A5.83516,5.83516,0,0,1,33.09665,35.522a2.79085,2.79085,0,0,1,1.7077.43859,2.51274,2.51274,0,0,1,.70154.76627c.04353.0867.087.13048.17583.0867a11.21727,11.21727,0,0,1,1.55453-.94137,3.378,3.378,0,0,1,1.40134-.35019,2.46975,2.46975,0,0,1,1.88353.745,3.44054,3.44054,0,0,1,.72417,2.10119c.087,1.14027.04353,2.67239.04353,4.46885.02087.39483.15318.8109.94,1.0302.28549.08712.4178.17425.4178.30642,0,.15343-.19671.24055-.61277.24055-.43867,0-1.03054-.0663-1.57889-.0663-.65628,0-.98529.04505-1.48838.04505-.416,0-.54834-.13217-.54834-.28517,0-.13048.242-.2193.4822-.2856.70154-.2176.78857-.48067.78857-1.24822,0-.52572-.04351-2.97839-.04351-3.70088a2.54321,2.54321,0,0,0-.34991-1.46752,1.79359,1.79359,0,0,0-1.6642-.76755,2.20912,2.20912,0,0,0-1.68683.68042,1.64755,1.64755,0,0,0-.21934.63537c0,.15343-.04351,4.29291,0,4.77358.06616.70125.17409.92055.91914,1.0948.242.0663.45957.19847.45957.30812,0,.153-.17408.26265-.524.26265-.4822,0-1.14022-.04505-1.64331-.04505-.45957,0-1.095.04505-1.55453.04505-.50482,0-.571-.17552-.571-.26265,0-.0663.087-.2193.43868-.30812.74506-.17425.83209-.39355.83209-1.18192V38.3474a1.67162,1.67162,0,0,0-.28547-1.11774,2.0196,2.0196,0,0,0-1.64157-.6562,2.652,2.652,0,0,0-1.753.67915.75552.75552,0,0,0-.242.54654c-.04178.56908-.04178,3.32986-.04178,4.99416,0,.41607.087.768.78684.98557.41779.13217.59188.2193.59188.39482,0,.15343-.30638.2193-.59188.2193-.0853,0-.89824-.04505-1.7286-.04505-.72417,0-1.1611.0663-1.6433.0663-.329,0-.54836-.08712-.54836-.24055,0-.08882.1323-.24182.52572-.32895.70154-.17552.8321-.50319.92088-1.44669.04353-.63325.0644-2.825.0644-4.33626a.74739.74739,0,0,0-.15318-.59159c-.61276-.5678-.766-.67745-.766-.7871,0-.13217.1967-.26435.43869-.39525"/><path class="cls-1" d="M45.42389,36.28786a16.1678,16.1678,0,0,0,1.66592-.898c.087-.0663.13057-.08712.17409-.08712a.45286.45286,0,0,1,.26285.2193c0,.30642-.087.91927-.087,1.13857,0,.06629.04352.21929.13055.13217a5.83569,5.83569,0,0,1,2.935-1.27074,2.7967,2.7967,0,0,1,1.70945.43859,2.50048,2.50048,0,0,1,.6998.76627c.04526.0867.08878.13048.17583.0867a11.2418,11.2418,0,0,1,1.55626-.94137,3.37172,3.37172,0,0,1,1.40134-.35019,2.47241,2.47241,0,0,1,1.88354.745,3.42846,3.42846,0,0,1,.72243,2.10119c.087,1.14027.04526,2.67239.04526,4.46885.02088.39483.15318.8109.94,1.0302.28548.08712.41778.17425.41778.30642,0,.15343-.19844.24055-.6145.24055-.43694,0-1.0288-.0663-1.57716-.0663-.65627,0-.98529.04505-1.49012.04505-.41431,0-.5466-.13217-.5466-.28517,0-.13048.24023-.2193.4822-.2856.6998-.2176.78857-.48067.78857-1.24822,0-.52572-.04351-2.97839-.04351-3.70088a2.52834,2.52834,0,0,0-.35165-1.46752,1.78951,1.78951,0,0,0-1.6642-.76755,2.21237,2.21237,0,0,0-1.68683.68042,1.67679,1.67679,0,0,0-.21934.63537c0,.15343-.0435,4.29291,0,4.77358.06616.70125.17583.92055.9209,1.0948.24021.0663.45957.19847.45957.30812,0,.153-.17409.26265-.52573.26265-.4822,0-1.13847-.04505-1.64157-.04505-.4613,0-1.0967.04505-1.55627.04505-.50308,0-.56923-.17552-.56923-.26265,0-.0663.087-.2193.43693-.30812.74507-.17425.83385-.39355.83385-1.18192V38.3474a1.6716,1.6716,0,0,0-.28549-1.11774,2.02608,2.02608,0,0,0-1.64331-.6562,2.64755,2.64755,0,0,0-1.75125.67915.75556.75556,0,0,0-.242.54654c-.04352.56908-.04352,3.32986-.04352,4.99416,0,.41607.087.768.78859.98557.41778.13217.59187.2193.59187.39482,0,.15343-.30638.2193-.59187.2193-.087,0-.89825-.04505-1.73034-.04505-.72243,0-1.16111.0663-1.64157.0663-.329,0-.54836-.08712-.54836-.24055,0-.08882.1323-.24182.52573-.32895.6998-.17552.83209-.50319.92087-1.44669.04353-.63325.06441-2.825.06441-4.33626a.75436.75436,0,0,0-.15319-.59159c-.61275-.5678-.766-.67745-.766-.7871,0-.13217.19672-.26435.437-.39525"/><path class="cls-1" d="M67.64022,42.74953a1.26855,1.26855,0,0,0,.32727-.52529l.04526-5.03793a.81211.81211,0,0,0-.37253-.48238c-.329-.08712-.80947-.21759-1.00792-.26264-.1532-.04378-.43868-.17425-.43868-.3502,0-.08713.28548-.19678.50484-.19678a10.78958,10.78958,0,0,0,2.34309-.24182,1.72453,1.72453,0,0,1,.52572-.08712c.10968,0,.1532.24054.1532.32894-.04352.61285-.21935,5.47483-.21935,7.2713,0,.04377.08878.30642.26286.30642.1532,0,.83385-.10795,1.095-.10795.08877,0,.242.3502.26286.41437a.34723.34723,0,0,1-.24023.2193,14.112,14.112,0,0,0-1.99322.41608,7.73573,7.73573,0,0,1-.76769.19847c-.08529,0-.2176-.1547-.2176-.30812,0-.13048.06442-.54655.08705-.91885,0-.11007-.06442-.176-.10793-.15342a15.36878,15.36878,0,0,1-1.7965,1.116,3.80871,3.80871,0,0,1-1.46923.26435,2.22921,2.22921,0,0,1-1.92705-1.03062,2.18468,2.18468,0,0,1-.30638-1.0285c0-1.57716,0-4.05278-.04353-5.21387-.02089-.61285-.43868-.69955-.80946-.853-.19845-.08883-.39517-.19848-.39517-.39525,0-.06588.10968-.19678.37254-.19678.61275,0,2.23343-.24182,2.32222-.24182.087,0,.17407.19847.17407.32895.02263.745-.06441,4.88493-.06441,5.87007a1.58833,1.58833,0,0,0,.54661,1.2274,2.03967,2.03967,0,0,0,1.49013.43689,2.6701,2.6701,0,0,0,1.66419-.76627"/><path class="cls-1" d="M73.7713,36.11276a7.8982,7.8982,0,0,0,1.46748-.63537,1.477,1.477,0,0,1,.52572-.24012c.10966,0,.21934.24012.21934.32895,0,.371-.08878.89674-.08878,1.09522,0,.10794.11141.06417.1323.06417a6.06146,6.06146,0,0,1,2.935-1.20444,2.53567,2.53567,0,0,1,1.99322.83384,4.30124,4.30124,0,0,1,.76768,2.67026c0,.41778.04352,3.68006.06441,3.98819.04352.32725.26286.61284.80948.76584.41778.10965.54834.2193.54834.37273,0,.153-.30637.24012-.65628.24012-.50483,0-1.00792-.04335-1.62068-.04335-.54835,0-1.22726.04335-1.511.04335-.19672,0-.50483-.08712-.50483-.26265,0-.15342.24023-.2839.50483-.37272.524-.19678.63365-.37273.67717-1.0948.04525-.72249.06614-3.37363.06614-4.0073a2.20065,2.20065,0,0,0-.65628-1.621,2.94584,2.94584,0,0,0-1.40307-.41777,2.726,2.726,0,0,0-1.9497.70167.99177.99177,0,0,0-.2176.52572c0,.2839,0,4.99416.0209,5.25723.02263.30642.11141.48195.81121.67872.21934.0663.39516.19678.39516.32895,0,.15343-.242.26308-.54834.26308-.26287,0-.87563-.02253-1.3352-.02253-.8112,0-1.44659.06588-1.81913.06588-.329,0-.56923-.0867-.56923-.28518,0-.15342.21934-.26307.45957-.32725.72417-.21972.85472-.439.92088-1.22739.0644-.6579.10966-2.56231.10966-4.7978,0-.24013-.04526-.45943-.52746-.853-.28374-.19847-.416-.30812-.416-.37229,0-.15343.242-.37273.39517-.439"/><path class="cls-1" d="M85.46383,44.43593c-.35163,0-.56923-.0867-.56923-.24013,0-.13217.15319-.24182.524-.35147.50481-.1309.83383-.39355.87735-.61285a21.26266,21.26266,0,0,0,.08879-2.25631c0-.6562.02087-3.15392-.02264-3.417-.02263-.153-.26286-.32725-.89826-.78837-.13055-.08712-.17581-.15342-.17581-.24055,0-.153.19845-.32895.43868-.3723.81121-.176,1.84-.65619,2.169-.745.0853,0,.1967.2193.1967.24182,0,.24013-.13229,3.088-.13229,4.33626,0,1.22739.02089,2.14624.04351,2.91251.02263.70125.50483.745,1.05144.921.35165.10965.4822.2193.4822.3723,0,.13048-.26286.2193-.50309.2193-.15492,0-1.24815-.06587-1.70946-.06587-.72242,0-1.48837.0867-1.86091.0867m2.7818-12.30922a1.16881,1.16881,0,0,1-1.05144,1.07269,1.27191,1.27191,0,0,1-.70154-.26307,1.147,1.147,0,0,1-.329-.80962,1.53894,1.53894,0,0,1,.26286-.78838,1.3036,1.3036,0,0,1,.85474-.28559c.59187,0,.9644.67914.9644,1.074"/><path class="cls-1" d="M96.20994,35.71836c.02088,0,.2402.11008.2402.176a7.5178,7.5178,0,0,1,.06617.83215c0,.19677-.416.24012-.571.24012H93.55871A.21718.21718,0,0,0,93.362,37.12c-.02263.4386-.04352,3.65711-.04352,4.70855A1.34653,1.34653,0,0,0,93.691,42.903a1.83658,1.83658,0,0,0,1.3352.41607,2.4,2.4,0,0,0,1.07406-.32937c.1967-.10753.24023-.13048.329-.13048.02088,0,.13056.04378.13056.24055a.93324.93324,0,0,1-.30637.54825,3.287,3.287,0,0,1-2.34311.96432,2.30974,2.30974,0,0,1-1.92879-1.03062,2.5918,2.5918,0,0,1-.28549-1.445c0-.8109.08877-4.09571.08877-4.86368,0-.153-.39515-.30643-.83209-.4369-.17582-.0663-.30813-.176-.30813-.24182a.38792.38792,0,0,1,.13231-.24013,14.72436,14.72436,0,0,0,1.753-1.51129c.26286-.30643.41606-.48195.50309-.48195a.50382.50382,0,0,1,.30639.24182v1.02892a.2121.2121,0,0,0,.17581.17553c.4822,0,2.60771-.08883,2.69476-.08883"/><path class="cls-1" d="M98.423,35.71836c.54833,0,1.074.08883,1.70769.08883.61452,0,1.27253-.045,1.53366-.045.17582,0,.48219.0663.48219.24182,0,.15343-.15319.2839-.50309.371-.6145.17722-.67891.28517-.46131.85467.329,1.05144,1.73208,4.49138,1.90617,4.754.02263.04335.10968.04335.17582-.08883.26286-.592,1.62067-4.13948,1.73035-4.48925.19669-.61285.02263-.87592-.83209-1.0727-.26287-.06587-.45959-.2193-.45959-.30812,0-.19635.28377-.24013.5466-.24013.41608,0,1.00794.02253,1.29343.02253.30637,0,.80946-.08883,1.3787-.08883.28549,0,.43867.04378.43867.19678,0,.19847-.21932.2856-.48218.37272-.45959.153-.74508.41607-1.07233,1.13857-.72417,1.643-1.90617,4.57808-2.40926,5.84883-.7677,1.99324-1.57889,4.24955-2.2787,6.11189A1.15606,1.15606,0,0,1,99.97752,50a.97972.97972,0,0,1-.98355-1.074,1.01291,1.01291,0,0,1,.96267-.96432c.10965,0,.56923.02252.78858.02252.1967,0,.24021-.15342.329-.37272a27.51577,27.51577,0,0,0,1.04969-2.825,1.44889,1.44889,0,0,0,.06789-.7888c-.06789-.153-.242-.65619-.329-.898-.45958-1.292-1.8174-4.556-2.49806-5.93467a1.36471,1.36471,0,0,0-1.02879-.85467c-.30812-.10965-.43867-.19678-.43867-.32895,0-.08713.06614-.26308.52572-.26308"/></g></g>
</symbol>

</defs>
</svg>